<?xml version="1.0" encoding="utf-8"?><svg xmlns="http://www.w3.org/2000/svg" xmlns:xlink="http://www.w3.org/1999/xlink"><symbol viewBox="0 0 16 16" id="arrow-left" xmlns="http://www.w3.org/2000/svg"><path d="M8 0l1.41 1.41L3.83 7H16v2H3.83l5.58 5.59L8 16 0 8l8-8z"/></symbol><symbol viewBox="0 0 16 16" id="arrow-right" xmlns="http://www.w3.org/2000/svg"><path d="M8 0L6.59 1.41 12.17 7H0v2h12.17l-5.58 5.59L8 16l8-8-8-8z"/></symbol><symbol viewBox="0 0 22 24" id="basket" xmlns="http://www.w3.org/2000/svg"><g clip-path="url(#aca)"><path d="M10.363 18.443a2.046 2.046 0 00-2.045 2.042 2.046 2.046 0 004.09 0 2.046 2.046 0 00-2.045-2.042zm6.134 0a2.046 2.046 0 00-2.045 2.042 2.046 2.046 0 004.089 0 2.046 2.046 0 00-2.044-2.042zm3.978-8.199L7.413 6.891a.614.614 0 00-.75.73L8.67 16.4h-.786L5.482 5.895a.613.613 0 00-.474-.464l-4.27-.882A.614.614 0 00.489 5.75l3.885.802L6.797 17.15a.613.613 0 00.598.477h12.07a.615.615 0 00.607-.53l.858-6.175a.613.613 0 00-.455-.678zm-8.14 3.91a.613.613 0 01-1.227 0v-2.696a.613.613 0 011.227 0v2.696zm2.625 0a.613.613 0 01-1.227 0v-1.88a.613.613 0 011.227 0v1.88zm2.625 0a.613.613 0 01-1.227 0v-1.226a.613.613 0 011.227 0v1.226z"/></g><path fill-rule="evenodd" clip-rule="evenodd" d="M16.268 4.568a2.996 2.996 0 00-1.693-.523c-.627 0-1.21.193-1.693.523-.28-.843-.492-1.752-.492-2.383C12.39.98 13.37 0 14.575 0s2.185.98 2.185 2.185c0 .631-.212 1.54-.492 2.383zm-4.722 2.274l.024.006v-.011l-.024.005zm4.972 1.217c-1.333-.33-2.766-.681-4.129-1.013a2.185 2.185 0 114.129 1.013zm4.436 1.103c-.866-.217-2.155-.538-3.618-.9a2.995 2.995 0 00.243-1.425c.87.18 1.762.45 2.308.765.596.344.969.928 1.067 1.56zM9.869 6.439c-.36-.086-.706-.167-1.03-.243a2.19 2.19 0 01-.376-2.667 2.188 2.188 0 013.147-.7c.098.738.338 1.599.61 2.353a3.01 3.01 0 00-.449.774c-.628.113-1.305.278-1.902.483zm10.124.075a3.43 3.43 0 01-.217.114c-.696-.295-1.587-.526-2.397-.672a3.01 3.01 0 00-.449-.774c.262-.727.494-1.553.599-2.273.095-.067.189-.128.278-.18a2.188 2.188 0 012.986.8 2.188 2.188 0 01-.8 2.985z"/><defs><clipPath id="aca"><path transform="translate(0 3.064)" d="M0 0h20.936v20.936H0z"/></clipPath></defs></symbol><symbol viewBox="0 0 16 16" id="calendar" xmlns="http://www.w3.org/2000/svg"><g clip-path="url(#ada)"><path d="M13.93.941h-1.412v1.412a.472.472 0 01-.941 0V.94h-7.53v1.412a.472.472 0 01-.941 0V.94H1.694C.988.941.471 1.553.471 2.353v1.694H15.53V2.353c0-.8-.848-1.412-1.6-1.412zM.47 5.035v8.612c0 .847.518 1.412 1.271 1.412h12.236c.752 0 1.6-.612 1.6-1.412V5.035H.47zm4.189 7.906h-1.13a.371.371 0 01-.376-.376v-1.177a.37.37 0 01.377-.376h1.176a.37.37 0 01.376.376v1.177c-.047.235-.188.376-.423.376zm0-4.235h-1.13a.371.371 0 01-.376-.377V7.153c0-.188.141-.377.377-.377h1.176c.188 0 .376.142.376.377v1.176c-.047.236-.188.377-.423.377zm3.765 4.235H7.247a.371.371 0 01-.376-.376v-1.177a.37.37 0 01.376-.376h1.177a.37.37 0 01.376.376v1.177c0 .235-.141.376-.376.376zm0-4.235H7.247a.371.371 0 01-.376-.377V7.153a.37.37 0 01.376-.377h1.177c.188 0 .376.142.376.377v1.176c0 .236-.141.377-.376.377zm3.764 4.235h-1.176a.371.371 0 01-.377-.376v-1.177c0-.188.142-.376.377-.376h1.176a.37.37 0 01.377.376v1.177c0 .235-.141.376-.377.376zm0-4.235h-1.176a.371.371 0 01-.377-.377V7.153c0-.188.142-.377.377-.377h1.176c.189 0 .377.142.377.377v1.176c0 .236-.141.377-.377.377z"/></g><defs><clipPath id="ada"><path d="M0 0h16v16H0z"/></clipPath></defs></symbol><symbol viewBox="0 0 16 17" id="calendar2" xmlns="http://www.w3.org/2000/svg"><g clip-path="url(#aea)"><path d="M14 2.5h-.667V1.167A.667.667 0 0012.667.5H12a.667.667 0 00-.667.667V2.5H4.667V1.167A.667.667 0 004 .5h-.667a.667.667 0 00-.666.667V2.5H2c-1.103 0-2 .897-2 2v10c0 1.103.897 2 2 2h12c1.103 0 2-.897 2-2v-10c0-1.103-.897-2-2-2zm.667 12c0 .367-.3.667-.667.667H2a.668.668 0 01-.667-.667V7.193h13.334V14.5z"/></g><defs><clipPath id="aea"><path transform="translate(0 .5)" d="M0 0h16v16H0z"/></clipPath></defs></symbol><symbol viewBox="0 0 344.96 344.96" id="check" xmlns="http://www.w3.org/2000/svg"><g data-name="Слой 2"><path class="afcls-1" d="M321.85 86.24l-40-23.11-23.1-40H212.5L172.48 0l-40 23.11H86.24l-23.11 40-40 23.1v46.21L0 172.48l23.11 40v46.21l40 23.11 23.11 40h46.21l40 23.1 40-23.11h46.21l23.11-40 40-23.11V212.5l23.11-40-23.11-40V86.24zM156.91 243.07a16.79 16.79 0 01-23.34 0l-50.45-50.44a16.19 16.19 0 010-22.89l13.35-13.35a16.19 16.19 0 0122.89 0l25.87 25.87 80.34-80.35a16.19 16.19 0 0122.89 0l13.35 13.35a16.19 16.19 0 010 22.89z" data-name="Capa 1"/></g></symbol><symbol viewBox="0 0 16 16" id="chevron-down" xmlns="http://www.w3.org/2000/svg"><path d="M3 6l5 5 5-5"/></symbol><symbol viewBox="0 0 24 25" id="chevron-right" xmlns="http://www.w3.org/2000/svg"><path d="M10.393 15.56l3.053-3.06-3.053-3.06.94-.94 4 4-4 4-.94-.94z"/></symbol><symbol viewBox="0 0 40 40" id="children" xmlns="http://www.w3.org/2000/svg"><g clip-path="url(#aia)"><path d="M28.817 23.434c1.06 0 1.923-.863 1.923-1.923a.586.586 0 10-1.172 0 .752.752 0 01-1.502 0 .586.586 0 10-1.171 0c0 1.06.862 1.923 1.922 1.923zm3.072-3.287a.586.586 0 00.586-.586v-.612a.586.586 0 00-.073-1.168h-.513a.586.586 0 00-.586.586v1.194c0 .324.262.586.586.586zm-6.731-1.198v.612a.586.586 0 001.172 0v-1.194a.586.586 0 00-.586-.585h-.514a.586.586 0 00-.072 1.167z"/><path d="M37.574 19.666a2.711 2.711 0 00-.422-2.96.582.582 0 00.106-.336c0-1.73.087-2.757-.434-4.246a.586.586 0 10-1.106.387c.426 1.217.369 2.06.369 3.273h-3.61a3.078 3.078 0 01-3.075-3.074.586.586 0 10-1.172 0 3.078 3.078 0 01-3.074 3.074h-3.61v-1.091a6.611 6.611 0 016.604-6.604.08.08 0 01.08.08.586.586 0 101.172 0 .08.08 0 01.08-.08c1.91 0 3.725.826 4.98 2.266a.586.586 0 00.883-.77 7.778 7.778 0 00-5.862-2.668c-.245 0-.474.07-.666.192a1.245 1.245 0 00-.667-.192c-4.287 0-7.775 3.488-7.775 7.776v1.677c0 .126.04.242.107.337a2.726 2.726 0 00-.474.756 2.963 2.963 0 00-1.157-2.12v-2.231c0-4.395-3.576-7.971-7.97-7.971-1.092 0-.655-.019-2.164.1a6.656 6.656 0 00-5.073 3.01l-1.765-.565a.586.586 0 00-.764.53c-.008.177-.185 4.1.53 6.834A2.977 2.977 0 000 17.71a2.98 2.98 0 002.587 2.95 7.635 7.635 0 003.51 4.806H4.864A3.678 3.678 0 001.19 29.14v5.134c0 .324.262.586.586.586h.973a.586.586 0 000-1.172H2.36V29.14a2.505 2.505 0 012.503-2.503h1.704a3.506 3.506 0 003.68 2.91 3.505 3.505 0 003.224-2.91h1.705a2.505 2.505 0 012.502 2.503v4.548H5.483a.586.586 0 100 1.172h12.782a.586.586 0 00.586-.586V29.14c0-.488-.097-.954-.27-1.38h.941c.59 0 1.152-.118 1.666-.33a3.557 3.557 0 00-.572 1.938v4.906c0 .324.262.586.585.586h15.27a.586.586 0 00.586-.586v-4.906a3.56 3.56 0 00-.559-1.917c.5.198 1.043.309 1.613.309h1.303a.586.586 0 00.586-.586v-3.589a4.41 4.41 0 00-2.426-3.919zm-12.418-2.71a4.248 4.248 0 003.66-2.096 4.248 4.248 0 003.661 2.096h2.634c.855 0 1.55.696 1.55 1.551a1.55 1.55 0 01-1.613 1.55.584.584 0 00-.602.489 5.699 5.699 0 01-5.63 4.759 5.7 5.7 0 01-4.954-2.863.574.574 0 00-.033-.07 5.673 5.673 0 01-.54-1.35l-.007-.028a5.464 5.464 0 01-.095-.448.586.586 0 00-.602-.49 1.555 1.555 0 01-1.614-1.549 1.553 1.553 0 011.615-1.549c.025 0 .05 0 .074-.002h2.496zm3.67 11.985a2.024 2.024 0 01-2.022-2.022v-.742c.665.204 1.36.3 2.013.3a6.94 6.94 0 002.031-.306v.748a2.025 2.025 0 01-2.022 2.022zm-4.631-3.153h-.001a3.57 3.57 0 00-1.148.19 4.36 4.36 0 00.757-1.672 6.86 6.86 0 001.83 1.388v.094h-1.438zm7.825-.103a6.822 6.822 0 001.81-1.378c.131.607.39 1.168.745 1.654-.67-.216-1.018-.173-2.555-.173v-.103zM2.267 9.04l1.462.467a.586.586 0 00.69-.274 5.489 5.489 0 014.39-2.825c1.472-.115 1.025-.095 2.071-.095a6.806 6.806 0 016.799 6.798v1.693c-.512-.11-.35-.066-8.386-.066a3.919 3.919 0 01-3.845-3.162.587.587 0 00-1.003-.288 7.628 7.628 0 00-1.757 3.085c-.403-1.822-.436-4.148-.421-5.333zM3.65 20a.586.586 0 00-.602-.49 1.805 1.805 0 01-1.876-1.8c0-.977.779-1.767 1.737-1.801h.007a1.776 1.776 0 01.134 0h.005c.292.01.546-.2.595-.489a6.39 6.39 0 011-2.513 5.102 5.102 0 004.643 3.003h7.835c.285.013.581.099.837.25l.014.008a1.805 1.805 0 01-.935 3.345l-.074-.002a.587.587 0 00-.601.489 6.43 6.43 0 01-6.36 5.376A6.429 6.429 0 013.65 20zm6.253 8.38a2.333 2.333 0 01-2.2-2.087l-.001-.026a2.223 2.223 0 01-.006-.076 7.71 7.71 0 002.313.357c.752 0 1.563-.115 2.336-.364a2.332 2.332 0 01-2.442 2.196zm5.274-2.914h-1.255a7.602 7.602 0 003.51-4.806 2.983 2.983 0 002.383-1.868 2.7 2.7 0 00.244.874 4.41 4.41 0 00-2.426 3.92v2.824a3.659 3.659 0 00-2.456-.944zm3.628 1.122v-3.003a3.23 3.23 0 011.994-2.97c.39.318.858.518 1.326.587a6.93 6.93 0 00.606 1.604v.573c0 1.77-1.44 3.209-3.209 3.209h-.717zm17.08 7.1H21.787v-4.32a2.41 2.41 0 012.409-2.408h1.437a3.199 3.199 0 003.193 3.153 3.198 3.198 0 003.194-3.153h1.457a2.41 2.41 0 012.408 2.408v4.32zm2.943-7.1h-.717a3.212 3.212 0 01-3.209-3.209v-.573a6.933 6.933 0 00.606-1.604 2.72 2.72 0 001.27-.544l.056-.043a3.229 3.229 0 011.994 2.97v3.003z"/><path d="M10.01 23.157c1.147 0 2.08-.933 2.08-2.08a.586.586 0 10-1.172 0 .909.909 0 01-1.816 0 .586.586 0 10-1.172 0c0 1.147.933 2.08 2.08 2.08zm-3.436-6.16a.586.586 0 00-.586.586v1.296a.586.586 0 101.172 0v-1.296a.586.586 0 00-.586-.586zm6.869 2.468a.586.586 0 00.586-.586v-1.296a.586.586 0 10-1.172 0v1.296c0 .323.263.585.586.585z"/></g><defs><clipPath id="aia"><path d="M0 0h40v40H0z"/></clipPath></defs></symbol><symbol viewBox="0 0 24 24" id="close" xmlns="http://www.w3.org/2000/svg"><path d="M6 18L18 6M6 6l12 12"/></symbol><symbol viewBox="0 0 32 32" id="conversation" xmlns="http://www.w3.org/2000/svg"><g clip-path="url(#aka)"><path d="M21.625 19.938a.625.625 0 00-.625.625v4.312A3.129 3.129 0 0117.875 28h-6.748a.625.625 0 00-.625.625v1.242l-1.493-1.492A.625.625 0 008.436 28H4.375a3.129 3.129 0 01-3.125-3.125V15.25a3.129 3.129 0 013.125-3.125h6.313a.625.625 0 000-1.25H4.375A4.38 4.38 0 000 15.25v9.625a4.38 4.38 0 004.375 4.375h3.741l2.567 2.567a.624.624 0 001.067-.442l.002-2.125h6.123a4.38 4.38 0 004.375-4.375v-4.313a.625.625 0 00-.625-.625z"/><path d="M22.916 0h-1.582c-5.009 0-9.084 4.075-9.084 9.084 0 5.01 4.075 9.084 9.084 9.084h1.582a9.1 9.1 0 002.305-.295l2.337 2.335a.625.625 0 001.067-.442V16.15a9.172 9.172 0 002.388-2.944A8.987 8.987 0 0032 9.084C32 4.075 27.925 0 22.916 0zm4.708 15.346a.625.625 0 00-.249.5v2.412l-1.53-1.529a.625.625 0 00-.625-.155 7.834 7.834 0 01-2.304.344h-1.582c-4.32 0-7.834-3.514-7.834-7.834s3.514-7.834 7.834-7.834h1.582c4.32 0 7.834 3.514 7.834 7.834a7.776 7.776 0 01-3.126 6.262z"/><path d="M24.94 6.839a2.652 2.652 0 00-2.454-2.454c-.741-.05-1.45.2-1.99.706a2.655 2.655 0 00-.842 1.934.625.625 0 001.25 0c0-.391.158-.754.444-1.02a1.397 1.397 0 111.26 2.383c-.55.122-.933.599-.933 1.159v1.501a.625.625 0 001.25 0V9.597a2.632 2.632 0 002.015-2.758zm-2.198 6.24a.63.63 0 00-.442-.183.63.63 0 00-.442.183.63.63 0 00-.183.442.63.63 0 00.183.442.629.629 0 00.884 0 .631.631 0 00.183-.442.63.63 0 00-.183-.442zm-5.554 6.296H4a.625.625 0 000 1.25h13.188a.625.625 0 100-1.25zm.442 3.683a.63.63 0 00-.442-.183.63.63 0 00-.442.183.63.63 0 00-.183.442.63.63 0 00.183.442.63.63 0 00.442.183.63.63 0 00.625-.625.63.63 0 00-.184-.442zm-2.9-.183H4a.625.625 0 000 1.25h10.73a.625.625 0 100-1.25zm-1.605-7H4a.625.625 0 000 1.25h9.125a.625.625 0 100-1.25z"/></g><defs><clipPath id="aka"><path d="M0 0h32v32H0z"/></clipPath></defs></symbol><symbol viewBox="0 0 16 16" id="document" xmlns="http://www.w3.org/2000/svg"><path d="M10.313 4.688a1.095 1.095 0 01-1.094-1.094V0H3.625a1.72 1.72 0 00-1.719 1.719V14.28A1.72 1.72 0 003.625 16h8.75a1.72 1.72 0 001.719-1.719V4.687h-3.781zM4.468 11.25H6.74a.469.469 0 010 .938H4.47a.469.469 0 010-.938zM4 9.219c0-.26.21-.469.469-.469h6.875a.469.469 0 010 .938H4.469A.469.469 0 014 9.217zm7.344-2.969a.469.469 0 010 .938H4.469a.469.469 0 010-.938h6.875z"/><path d="M10.156 3.594c0 .086.07.156.156.156h3.573a1.712 1.712 0 00-.329-.43L10.543.47a1.723 1.723 0 00-.387-.276v3.4z"/></symbol><symbol viewBox="0 0 24 24" id="dots" xmlns="http://www.w3.org/2000/svg"><rect x="4" y="4" width="4" height="4" rx="2"/><rect x="4" y="10" width="4" height="4" rx="2"/><rect x="4" y="16" width="4" height="4" rx="2"/><rect x="10" y="4" width="4" height="4" rx="2"/><rect x="10" y="10" width="4" height="4" rx="2"/><rect x="10" y="16" width="4" height="4" rx="2"/><rect x="16" y="4" width="4" height="4" rx="2"/><rect x="16" y="10" width="4" height="4" rx="2"/><rect x="16" y="16" width="4" height="4" rx="2"/></symbol><symbol viewBox="0 0 16 16" id="email" xmlns="http://www.w3.org/2000/svg"><path d="M8.463 10.021a.897.897 0 01-.472.132.897.897 0 01-.473-.132L0 5.431v6.102a2.362 2.362 0 002.361 2.36H13.64A2.362 2.362 0 0016 11.534V5.43l-7.537 4.59z"/><path d="M13.637 2.106H2.36A2.347 2.347 0 00.074 3.958l7.934 4.835 7.915-4.835a2.347 2.347 0 00-2.286-1.852z"/></symbol><symbol viewBox="0 0 24 24" id="facebook" xmlns="http://www.w3.org/2000/svg"><path fill-rule="evenodd" clip-rule="evenodd" d="M12 24c6.627 0 12-5.373 12-12S18.627 0 12 0 0 5.373 0 12s5.373 12 12 12zM7.472 13.049l-3.226-1.204a.38.38 0 01-.003-.712l13.239-5.107a.38.38 0 01.509.432l-2.376 11.429a.38.38 0 01-.596.23l-3.243-2.355a.536.536 0 00-.654.018l-1.798 1.466a.38.38 0 01-.603-.182L7.472 13.05zm7.352-4.524L8.52 12.408a.635.635 0 00-.278.714l.682 2.395c.048.17.295.152.318-.023l.177-1.313c.034-.248.152-.475.335-.646L14.957 8.7c.097-.09-.02-.244-.133-.174z"/></symbol><symbol viewBox="0 0 24 24" id="fb" xmlns="http://www.w3.org/2000/svg"><path d="M13.397 20.997v-8.196h2.765l.411-3.209h-3.176V7.548c0-.926.258-1.56 1.587-1.56h1.684v-2.86A22.108 22.108 0 0014.201 3c-2.444 0-4.122 1.492-4.122 4.231v2.355H7.332v3.21h2.753v8.201h3.312z"/></symbol><symbol viewBox="0 0 24 24" id="headerBlock-icon-1" xmlns="http://www.w3.org/2000/svg"><g clip-path="url(#aqa)"><path d="M12.32 23.2a.472.472 0 00-.664 0 .472.472 0 000 .663.472.472 0 00.663 0 .473.473 0 000-.663z"/><path d="M21.495 15.331l-1.564-.373v-.62a3.093 3.093 0 001.446-2.617V9.974a3.097 3.097 0 00-3.093-3.093c-.92 0-1.748.404-2.315 1.044a4.132 4.132 0 00-3.964-2.983 4.132 4.132 0 00-3.967 2.99 3.087 3.087 0 00-2.321-1.051 3.097 3.097 0 00-3.094 3.093v1.747c0 1.1.578 2.068 1.446 2.617v.62l-1.564.373A3.253 3.253 0 000 18.505v3.151c0 .26.21.469.469.469h3.748v1.406c0 .26.21.469.469.469h5.142a.469.469 0 000-.938H7.736V21a.469.469 0 00-.938 0v2.064H5.154v-2.115c0-1.59 1.08-2.96 2.626-3.33l2.306-.552 1.483 3.375a.469.469 0 00.858 0l1.482-3.37 2.299.549a3.412 3.412 0 012.628 3.33v.523a.469.469 0 000 .367v1.223h-1.634V21a.469.469 0 00-.938 0v2.064H13.97a.469.469 0 100 .937h5.336c.259 0 .468-.21.468-.469v-1.406h3.758c.26 0 .469-.21.469-.469v-3.15a3.253 3.253 0 00-2.505-3.175zm-3.212-7.513c1.19 0 2.157.967 2.157 2.156v.163h-1.341a5.791 5.791 0 01-2.885-.77 2.16 2.16 0 012.07-1.549zm-2.156 3.827c.002-.048.003-1.26.003-1.26a6.73 6.73 0 002.97.69h1.34v.646a2.159 2.159 0 01-2.157 2.156 2.159 2.159 0 01-2.156-2.156v-.076zm-7.31-2.578a3.191 3.191 0 013.188-3.187 3.191 3.191 0 013.187 3.187v.061l-1.74-1.022a.469.469 0 00-.596.103 3.54 3.54 0 01-2.72 1.27H8.817v-.412zM3.56 10.09v-.116a2.16 2.16 0 012.157-2.156 2.16 2.16 0 012.069 1.55 5.792 5.792 0 01-2.885.77H3.56v-.048zm0 1.631v-.646h1.341a6.73 6.73 0 002.972-.692v1.338a2.159 2.159 0 01-2.156 2.156 2.159 2.159 0 01-2.157-2.156zm.657 9.227v.24H2.813v-2.083a.469.469 0 00-.938 0v2.082H.937v-2.682c0-1.08.735-2.01 1.786-2.262l1.486-.355.97 2.323a4.352 4.352 0 00-.962 2.737zm1.5-3.881l-.712-1.705.001-.034v-.596a3.092 3.092 0 001.418 0v.566a.447.447 0 00.002.07l-.71 1.699zm1.845-.36a4.413 4.413 0 00-.793.272l.457-1.093 1.486.356c.115.028.227.064.336.108l-1.486.357zm2.326-.977a3.254 3.254 0 00-.958-.4l-1.569-.376v-.614c.39-.246.722-.577.97-.966a4.15 4.15 0 001.557 1.666v.69zm3.28.696l-1.17 2.661-1.172-2.667v-.966a4.11 4.11 0 002.343.004v.968zm-1.163-1.738A3.191 3.191 0 018.817 11.5v-1.084h1.32a4.47 4.47 0 003.167-1.31l1.886 1.108v1.396a3.191 3.191 0 01-3.185 3.078zm2.101.36a4.155 4.155 0 001.57-1.666c.246.386.575.713.963.958v.614l-1.57.376a3.258 3.258 0 00-.963.403v-.684zm2.32 1.66l-1.483-.354c.112-.046.227-.084.345-.112l1.483-.355.458 1.098a4.416 4.416 0 00-.803-.277zm1.147-1.332a.487.487 0 00.003-.052v-.592a3.088 3.088 0 001.418 0v.621l-.715 1.714-.706-1.691zm5.49 5.812h-.938v-2.083a.469.469 0 00-.938 0v2.082h-1.414v-.237c0-1.027-.353-1.98-.958-2.733l.973-2.33 1.49.356a2.318 2.318 0 011.785 2.262v2.683z"/><path d="M10.76 10.977a.472.472 0 00-.664 0 .472.472 0 000 .663.473.473 0 00.663 0 .47.47 0 000-.663zm3.134 0a.472.472 0 00-.663 0 .472.472 0 000 .663.472.472 0 00.663 0 .47.47 0 000-.663zm-.992 1.578a.469.469 0 00-.663 0 .356.356 0 01-.503 0 .469.469 0 00-.663.663c.252.252.583.378.915.378.33 0 .662-.126.914-.378a.469.469 0 000-.663zm6.48-10.024h-.322a.469.469 0 000 .938h.322a.469.469 0 000-.938zm2.275 0h-.322a.469.469 0 100 .938h.322a.469.469 0 000-.938zm-1.299.977a.469.469 0 00-.468.468v.322a.469.469 0 00.937 0v-.322a.469.469 0 00-.469-.468zm0-2.275a.469.469 0 00-.468.469v.322a.469.469 0 00.937 0v-.322a.469.469 0 00-.469-.469zM2.64 2.531h-.322a.469.469 0 000 .938h.321a.469.469 0 000-.938zm2.274 0h-.322a.469.469 0 000 .938h.322a.469.469 0 000-.938zm-1.298.977a.469.469 0 00-.469.468v.322a.469.469 0 10.937 0v-.322a.469.469 0 00-.468-.468zm0-2.275a.469.469 0 00-.469.469v.322a.469.469 0 10.937 0v-.322a.469.469 0 00-.468-.469zM12 1.785a.469.469 0 00-.469.469v1.233a.469.469 0 00.938 0V2.254A.469.469 0 0012 1.785zm.331-1.648a.472.472 0 00-.662 0 .472.472 0 000 .663.472.472 0 00.662 0 .472.472 0 000-.663zM10.357 1.88l-.686-.685a.469.469 0 00-.663.663l.686.685a.467.467 0 00.663 0 .469.469 0 000-.662zm4.635-.711a.469.469 0 00-.663 0l-.71.709a.469.469 0 00.664.663l.709-.71a.469.469 0 000-.662z"/></g><defs><clipPath id="aqa"><path d="M0 0h24v24H0z"/></clipPath></defs></symbol><symbol viewBox="0 0 24 24" id="headerBlock-icon-2" xmlns="http://www.w3.org/2000/svg"><path d="M22.577 10.546l-2.716-.607a8.08 8.08 0 00-.844-2.037l1.491-2.355a.461.461 0 00-.063-.573l-1.419-1.419a.462.462 0 00-.573-.063l-2.355 1.494a8.1 8.1 0 00-2.037-.846l-.607-2.717a.461.461 0 00-.45-.361h-2.008a.462.462 0 00-.45.36L9.937 4.14c-.72.19-1.403.474-2.036.846L5.547 3.492a.462.462 0 00-.574.063L3.555 4.974a.462.462 0 00-.064.573l1.492 2.355a8.083 8.083 0 00-.844 2.037l-2.717.607a.462.462 0 00-.36.45v2.008c0 .216.15.403.36.45l2.717.607a8.02 8.02 0 00.843 2.037l-1.49 2.355a.462.462 0 00.063.573l1.418 1.419a.463.463 0 00.574.064l2.355-1.492a8.08 8.08 0 002.037.844l.606 2.716a.463.463 0 00.45.361h2.009c.216 0 .403-.15.45-.36l.607-2.717a8.025 8.025 0 002.037-.844l2.355 1.492c.183.115.42.089.573-.064l1.419-1.419a.461.461 0 00.063-.573l-1.49-2.355a8.084 8.084 0 00.843-2.037l2.716-.607a.462.462 0 00.361-.45v-2.008a.462.462 0 00-.36-.45zm-.562 2.088l-2.635.589a.462.462 0 00-.35.35 7.173 7.173 0 01-.946 2.283.462.462 0 000 .493l1.447 2.286-.896.896-2.286-1.447a.462.462 0 00-.494 0 7.112 7.112 0 01-2.282.946.462.462 0 00-.35.35l-.589 2.635h-1.268l-.589-2.635a.462.462 0 00-.35-.35 7.173 7.173 0 01-2.283-.946.461.461 0 00-.493 0l-2.286 1.447-.896-.896 1.447-2.286a.461.461 0 000-.494 7.11 7.11 0 01-.946-2.282.461.461 0 00-.35-.35l-2.635-.589v-1.268l2.635-.589a.462.462 0 00.35-.35 7.171 7.171 0 01.946-2.283.462.462 0 000-.493L4.469 5.365l.896-.896L7.65 5.92a.461.461 0 00.496 0 7.187 7.187 0 012.283-.95.462.462 0 00.348-.35l.589-2.635h1.268l.589 2.635c.039.174.174.31.348.35.82.186 1.588.506 2.283.95a.461.461 0 00.496 0l2.285-1.45.896.895-1.447 2.286a.461.461 0 000 .493c.448.71.767 1.477.945 2.283a.462.462 0 00.35.35l2.636.589v1.268z"/><path d="M12.006 6.297a5.715 5.715 0 00-5.709 5.709c0 3.141 2.561 5.697 5.709 5.697a5.703 5.703 0 005.697-5.697c0-3.148-2.556-5.709-5.697-5.709zm0 10.482c-2.639 0-4.786-2.141-4.786-4.773a4.79 4.79 0 014.786-4.785 4.78 4.78 0 010 9.559zM2.307 6.923a.462.462 0 100-.923.462.462 0 000 .923zM5.538 2.77a.462.462 0 100-.924.462.462 0 000 .923zm9.692.46a.462.462 0 100-.922.462.462 0 000 .923zM8.77 21.692a.462.462 0 100-.923.462.462 0 000 .923zm12.46-.462a.462.462 0 100-.922.462.462 0 000 .923zM2.307 17.077a.462.462 0 100-.923.462.462 0 000 .923z"/><path d="M13.153 10.742v-1.05h.231a.462.462 0 100-.923h-2.769a.462.462 0 000 .923h.23v1.05c-1.78 2.878-1.68 2.708-1.702 2.755a1.218 1.218 0 001.104 1.734h3.506c.892 0 1.48-.927 1.104-1.734-.008-.016.078.123-1.704-2.755zm.6 3.566h-3.506a.295.295 0 01-.276-.4l1.729-2.791a.462.462 0 00.069-.243V9.692h.461v1.182c0 .086.024.17.07.243l1.729 2.79a.295.295 0 01-.276.4zM2.307 19.846a1.386 1.386 0 101.385 1.385c0-.764-.621-1.385-1.385-1.385zm0 1.846a.462.462 0 11.002-.924.462.462 0 01-.002.924zm18.231-18a1.155 1.155 0 000-2.308 1.155 1.155 0 000 2.308zm0-1.384a.231.231 0 110 .462.231.231 0 010-.462z"/></symbol><symbol viewBox="0 0 32 32" id="info-1" xmlns="http://www.w3.org/2000/svg"><path d="M18.425 12.208c-1.158-1.203-3.02.64-1.82 1.818 1.2 1.177 3.014-.65 1.82-1.818zm-.912 1.395a.49.49 0 010-.96.49.49 0 010 .96z"/><path d="M4.377 27.702H3.2a.4.4 0 00-.4.4V30a.4.4 0 00.4.4h24a.4.4 0 00.4-.4v-1.898a.4.4 0 00-.4-.4h-1.168c-.157-8.32-5.12-13.894-5.933-14.758a2.56 2.56 0 00-.493-1.354l2.864-2.88c.455-.425-.509-.988-.71-1.28l2.118-2.118.442.448c.361.371.937-.202.566-.563-.025-.035-.707-.688-.72-.73a1105.5 1105.5 0 00-2.768-2.758c-.361-.362-.94.211-.566.573l.441.441-2.118 2.122c-.288-.205-.851-1.165-1.28-.71L8.483 13.53c-.358.342.163.723.387.96-.185.32-1.58 1.155-1.059 1.625l2.682 2.685a.413.413 0 00.284.115.4.4 0 00.282-.115l1.06-1.06c.23.225.61.746.96.388l2.911-2.912c.36.257.78.417 1.22.464.287 1.046 1.247 5.011-.225 7.024-.585.8-1.481 1.19-2.736 1.19h-2.355v-.96h2.355a.4.4 0 00.4-.4V20.65a.4.4 0 00-.4-.4H3.811a.396.396 0 00-.4.4v1.9a.397.397 0 00.4.4h2.355v1.136c-1.414.768-1.721 2.759-1.789 3.616zM26.8 29.6H3.6v-1.098h23.2V29.6zm-5.639-1.898c-.726-5.155-.556-8.93.47-10.102.146-.181.348-.309.574-.362a21.949 21.949 0 013.033 10.477l-4.077-.013zm-3.648-12.8c-2.326.036-2.332-3.628 0-3.593 2.327-.023 2.327 3.638 0 3.603v-.01zM21.84 3.29l1.472 1.475-2.119 2.118-1.475-1.475L21.84 3.29zM10.777 17.946L8.66 15.824l.774-.784 2.119 2.118-.775.788zm2.023-.666l-3.47-3.469 8.829-8.829c.877.887 2.56 2.583 3.462 3.46l-2.56 2.576c-2.294-1.76-5.385 1.337-3.629 3.628L12.8 17.28zm4.832 5.907c1.619-2.214.761-6.166.4-7.526a2.608 2.608 0 001.92-1.67 22.658 22.658 0 011.827 2.527 1.892 1.892 0 00-.755.544c-1.6 1.847-1.136 7.31-.672 10.64H5.18c.07-.793.361-2.53 1.548-2.995h7.52c1.508 0 2.644-.512 3.383-1.52zM4.21 21.05h9.638v1.1H4.211v-1.1zm6.883 1.9v.96H6.966v-.96h4.128z"/></symbol><symbol viewBox="0 0 32 32" id="info-2" xmlns="http://www.w3.org/2000/svg"><path d="M12.472 29.432a.499.499 0 11-1 0v-6.29c0-.424.185-.807.482-1.082a1.63 1.63 0 011.113-.432h5.862c.432 0 .829.163 1.112.431.298.276.482.659.482 1.083v6.29a.499.499 0 11-.999 0v-6.29a.481.481 0 00-.156-.354.657.657 0 00-.44-.163h-2.43v6.807c0 .276-.22.502-.496.502a.505.505 0 01-.504-.502v-6.807h-2.43a.653.653 0 00-.433.163.489.489 0 00-.163.354v6.29zM11.063 14.92h3.274c.276 0 .496.22.496.496v3.043c0 .276-.22.494-.496.494h-3.274a.492.492 0 01-.497-.494v-3.043c0-.276.22-.495.496-.495zm0-6.048h3.274c.276 0 .496.22.496.495v3.042c0 .276-.22.495-.496.495h-3.274a.493.493 0 01-.497-.495V9.367c0-.276.22-.495.496-.495zm2.77.998h-2.267v2.037h2.268V9.87zm5.472 2.037c.276 0 .496.226.496.502s-.22.496-.496.496h-1.637a.499.499 0 01-.504-.496V9.367c0-.276.227-.495.504-.495.276 0 .496.22.496.495v2.54h1.14zm-1.637 3.014h3.267c.277 0 .503.22.503.495v3.043a.498.498 0 01-.503.494h-3.267a.498.498 0 01-.504-.494v-3.043c0-.276.227-.495.504-.495zm2.771.998h-2.275v2.037h2.275V15.92zm-6.605 0h-2.268v2.037h2.268V15.92zm10.587-.595a.499.499 0 01-.864-.007l-4.295-7.266a5.434 5.434 0 01-.518-1.28 5.391 5.391 0 01-.17-1.359c0-1.493.603-2.844 1.588-3.828a5.434 5.434 0 017.669 0 5.416 5.416 0 011.587 3.828c0 .467-.064.92-.177 1.359a5.285 5.285 0 01-.51 1.273l-4.31 7.28zm-.425-1.23l3.87-6.545a4.39 4.39 0 00.553-2.136 4.394 4.394 0 00-1.297-3.12A4.414 4.414 0 0023.996.996a4.416 4.416 0 00-4.422 4.415c0 .39.049.757.134 1.11.092.354.234.694.404 1.012l3.884 6.56z"/><path d="M23.996 2.526c.794 0 1.517.326 2.04.849a2.85 2.85 0 01.852 2.037c0 .8-.327 1.521-.851 2.045a2.908 2.908 0 01-4.09 0 2.873 2.873 0 01-.842-2.045c0-.8.318-1.52.843-2.037a2.89 2.89 0 012.048-.85zm1.332 1.55a1.893 1.893 0 00-2.672 0 1.898 1.898 0 000 2.674 1.892 1.892 0 002.672 0 1.875 1.875 0 000-2.674zm.978 20.226a.498.498 0 01-.495-.502c0-.276.22-.495.495-.495h1.815c.624 0 1.177.36 1.418.934l2.345 5.702c.1.24.135.481.107.722-.05.488-.376.94-.809 1.167-.22.113-.46.17-.715.17H1.537c-.256 0-.496-.057-.716-.17a1.543 1.543 0 01-.815-1.167c-.021-.24.014-.482.106-.722l2.353-5.702a1.524 1.524 0 011.418-.934h1.8a.499.499 0 010 .998h-1.8c-.22 0-.411.105-.496.318L1.04 30.323a.457.457 0 00-.043.233.544.544 0 00.277.39.618.618 0 00.262.056h28.93c.1 0 .184-.02.256-.056a.508.508 0 00.276-.39.45.45 0 00-.035-.233l-2.346-5.702a.508.508 0 00-.496-.319h-1.816z"/><path d="M23.493 17.468a.499.499 0 111 0V29.43a.5.5 0 01-.497.503H8.006a.498.498 0 01-.495-.503V7.564c0-.424.184-.807.482-1.082a1.62 1.62 0 011.113-.44h7.888c.276 0 .496.227.496.503s-.22.503-.496.503H9.106a.623.623 0 00-.44.162.482.482 0 00-.156.354v21.373h14.983V17.468z"/></symbol><symbol viewBox="0 0 24 24" id="inst" xmlns="http://www.w3.org/2000/svg"><path d="M14.548 6.821H9.455A2.637 2.637 0 006.82 9.456v5.093a2.637 2.637 0 002.635 2.635h5.093a2.637 2.637 0 002.635-2.635V9.456a2.64 2.64 0 00-2.635-2.635zM12 15.408A3.414 3.414 0 018.591 12a3.414 3.414 0 013.408-3.408A3.414 3.414 0 0115.407 12a3.414 3.414 0 01-3.408 3.408zm3.579-6.438a.574.574 0 01-.576-.576c0-.32.256-.576.576-.576.32 0 .576.256.576.576 0 .32-.256.576-.576.576z"/><path d="M14.072 12.025a2.07 2.07 0 10-4.139-.05 2.07 2.07 0 004.139.05z"/><path d="M12 0C5.37 0 0 5.37 0 12s5.37 12 12 12 12-5.37 12-12S18.63 0 12 0zm6.667 14.55a4.12 4.12 0 01-4.118 4.117H9.456a4.12 4.12 0 01-4.117-4.118V9.456a4.12 4.12 0 014.117-4.117h5.093a4.12 4.12 0 014.118 4.117v5.093z"/></symbol><symbol viewBox="0 0 24 24" id="instagram" xmlns="http://www.w3.org/2000/svg"><path d="M11.999 7.377a4.624 4.624 0 100 9.248 4.624 4.624 0 000-9.248zm0 7.627a3.004 3.004 0 110-6.008 3.004 3.004 0 010 6.008zm4.807-6.719a1.078 1.078 0 100-2.156 1.078 1.078 0 000 2.156z"/><path d="M20.533 6.11A4.605 4.605 0 0017.9 3.48a6.607 6.607 0 00-2.186-.42c-.963-.042-1.268-.054-3.71-.054s-2.755 0-3.71.054a6.554 6.554 0 00-2.184.42 4.6 4.6 0 00-2.633 2.63 6.585 6.585 0 00-.419 2.186c-.043.962-.056 1.267-.056 3.71 0 2.442 0 2.753.056 3.71.015.748.156 1.486.419 2.187a4.61 4.61 0 002.634 2.632 6.583 6.583 0 002.185.45c.963.042 1.268.055 3.71.055s2.755 0 3.71-.055a6.616 6.616 0 002.186-.42 4.613 4.613 0 002.633-2.632c.263-.7.404-1.438.419-2.186.043-.962.056-1.267.056-3.71s0-2.753-.056-3.71a6.583 6.583 0 00-.421-2.217zm-1.218 9.533a5.046 5.046 0 01-.311 1.688 2.987 2.987 0 01-1.712 1.71c-.535.2-1.1.305-1.67.312-.95.044-1.218.055-3.654.055-2.438 0-2.687 0-3.655-.055a4.961 4.961 0 01-1.67-.311 2.984 2.984 0 01-1.718-1.711 5.08 5.08 0 01-.311-1.67c-.043-.95-.053-1.217-.053-3.653 0-2.437 0-2.686.053-3.655a5.038 5.038 0 01.311-1.687c.305-.79.93-1.41 1.719-1.712a5.01 5.01 0 011.669-.311c.95-.043 1.218-.055 3.655-.055s2.687 0 3.654.055a4.96 4.96 0 011.67.31 2.99 2.99 0 011.712 1.713 5.06 5.06 0 01.311 1.669c.043.95.054 1.218.054 3.655 0 2.436 0 2.698-.043 3.654h-.011v-.001z"/></symbol><symbol viewBox="0 0 24 24" id="list" xmlns="http://www.w3.org/2000/svg"><path d="M4 5h16v2H4zm0 6h16v2H4zm0 6h16v2H4z"/></symbol><symbol viewBox="0 0 32 32" id="mail" xmlns="http://www.w3.org/2000/svg"><path d="M4.391 27.054H27.58a3.41 3.41 0 003.405-3.406V7.913a3.41 3.41 0 00-3.405-3.406H4.39A3.41 3.41 0 00.985 7.913v15.735a3.41 3.41 0 003.406 3.406zm0-1.015a2.375 2.375 0 01-1.448-.49l6.935-7.093a.507.507 0 10-.726-.709l-6.87 7.027A2.38 2.38 0 012 23.648V9.03l11.789 9.982a3.395 3.395 0 004.403-.002l11.779-9.99v14.627c0 .395-.098.783-.285 1.13l-6.91-7.032a.508.508 0 00-.724.711l6.973 7.095a2.376 2.376 0 01-1.445.487H4.39zm0-20.517H27.58A2.394 2.394 0 0129.96 7.7L17.537 18.238c-.89.76-2.2.76-3.092 0L2.01 7.71a2.394 2.394 0 012.382-2.188z"/></symbol><symbol viewBox="0 0 16 16" id="messenger" xmlns="http://www.w3.org/2000/svg"><g clip-path="url(#aya)"><path d="M13.333 0H2.667A2.667 2.667 0 000 2.667v8a2.667 2.667 0 002.667 2.666H4.6l2.967 2.509a.667.667 0 00.862 0l2.971-2.509h1.933A2.667 2.667 0 0016 10.667v-8A2.667 2.667 0 0013.333 0zM4.667 3.333H8a.667.667 0 010 1.334H4.667a.667.667 0 010-1.334zM11.333 10H4.667a.667.667 0 010-1.333h6.666a.667.667 0 110 1.333zm0-2.667H4.667a.667.667 0 110-1.333h6.666a.667.667 0 110 1.333z"/></g><defs><clipPath id="aya"><path d="M0 0h16v16H0z"/></clipPath></defs></symbol><symbol viewBox="0 0 24 24" id="ok" xmlns="http://www.w3.org/2000/svg"><g clip-path="url(#aza)"><path d="M12.01 9.945a2.054 2.054 0 002.055-2.073A2.058 2.058 0 0012 5.81a2.062 2.062 0 00-2.07 2.089 2.059 2.059 0 002.08 2.047z"/><path d="M12 0C5.373 0 0 5.373 0 12s5.373 12 12 12 12-5.373 12-12S18.627 0 12 0zm.017 3.65c2.338.006 4.214 1.918 4.202 4.28-.012 2.31-1.919 4.18-4.252 4.173-2.31-.008-4.204-1.923-4.19-4.236a4.233 4.233 0 014.24-4.218zm4.734 10.113a5.081 5.081 0 01-1.83 1.183c-.653.253-1.368.38-2.077.465.107.117.158.174.225.24.961.967 1.927 1.929 2.885 2.898.327.33.395.74.215 1.124-.196.42-.636.696-1.068.666-.274-.019-.487-.154-.676-.345-.726-.73-1.466-1.448-2.176-2.192-.208-.216-.307-.175-.49.013-.73.752-1.472 1.492-2.218 2.228-.335.33-.734.39-1.122.201-.414-.2-.676-.622-.656-1.046.014-.287.155-.506.352-.702.952-.95 1.9-1.903 2.85-2.855.063-.063.121-.13.213-.229-1.295-.135-2.462-.453-3.462-1.235-.124-.097-.252-.191-.365-.3-.438-.42-.481-.902-.136-1.397.297-.424.794-.538 1.31-.294.1.047.196.106.287.17 1.863 1.28 4.422 1.314 6.292.056a1.73 1.73 0 01.613-.316.961.961 0 011.1.44c.275.446.271.88-.066 1.227z"/></g><defs><clipPath id="aza"><path d="M0 0h24v24H0z"/></clipPath></defs></symbol><symbol viewBox="0 0 16 16" id="pencil" xmlns="http://www.w3.org/2000/svg"><path d="M3.514 10.857c-.329.33-.514.776-.514 1.242V13h.901c.466 0 .912-.185 1.242-.514L11 6.628 9.372 5l-5.858 5.857zm9.197-7.568a.985.985 0 00-1.394 0L10 4.606 11.393 6l1.318-1.317a.985.985 0 000-1.394z"/></symbol><symbol viewBox="0 0 16 17" id="pin" xmlns="http://www.w3.org/2000/svg"><g clip-path="url(#bba)"><path d="M8 .5C4.692.5 2 3.21 2 6.543c0 4.736 5.436 9.625 5.667 9.83a.5.5 0 00.666.001C8.564 16.168 14 11.279 14 6.544 14 3.21 11.308.5 8 .5zm0 9.333A3.337 3.337 0 014.667 6.5 3.337 3.337 0 018 3.167 3.337 3.337 0 0111.333 6.5 3.337 3.337 0 018 9.833z"/></g><defs><clipPath id="bba"><path transform="translate(0 .5)" d="M0 0h16v16H0z"/></clipPath></defs></symbol><symbol viewBox="0 0 24 25" id="plus" xmlns="http://www.w3.org/2000/svg"><g clip-path="url(#bca)"><path d="M12 5.833A6.67 6.67 0 005.335 12.5a6.67 6.67 0 006.667 6.667 6.669 6.669 0 006.666-6.667 6.669 6.669 0 00-6.666-6.667zm3.334 7.334h-2.667v2.666h-1.333v-2.666H8.667v-1.334h2.667V9.167h1.333v2.666h2.667v1.334z"/></g><defs><clipPath id="bca"><path transform="translate(4 4.5)" d="M0 0h16v16H0z"/></clipPath></defs></symbol><symbol viewBox="0 0 16 16" id="search" xmlns="http://www.w3.org/2000/svg"><g clip-path="url(#bda)"><path d="M15.14 14.2l-2.667-2.667A6.667 6.667 0 107.333 14a6.587 6.587 0 004.227-1.52l2.633 2.667.947-.947zm-7.807-1.533A5.333 5.333 0 117.333 2a5.333 5.333 0 010 10.666z"/></g><defs><clipPath id="bda"><path d="M0 0h16v16H0z"/></clipPath></defs></symbol><symbol viewBox="0 0 24 24" id="star-filled" xmlns="http://www.w3.org/2000/svg"><path d="M11.049 2.927c.3-.921 1.603-.921 1.902 0l1.519 4.674a1 1 0 00.95.69h4.915c.969 0 1.371 1.24.588 1.81l-3.976 2.888a1 1 0 00-.363 1.118l1.518 4.674c.3.922-.755 1.688-1.538 1.118l-3.976-2.888a1 1 0 00-1.176 0l-3.976 2.888c-.783.57-1.838-.197-1.538-1.118l1.518-4.674a1 1 0 00-.363-1.118l-3.976-2.888c-.783-.57-.38-1.81.588-1.81h4.914a1 1 0 00.951-.69l1.519-4.674z"/></symbol><symbol viewBox="0 0 24 24" id="star-half-filled" xmlns="http://www.w3.org/2000/svg"><path d="M11.049 2.927c.3-.921 1.603-.921 1.902 0l1.519 4.674a1 1 0 00.95.69h4.915c.969 0 1.371 1.24.588 1.81l-3.976 2.888a1 1 0 00-.363 1.118l1.518 4.674c.3.922-.755 1.688-1.538 1.118l-3.976-2.888a1 1 0 00-1.176 0l-3.976 2.888c-.783.57-1.838-.197-1.538-1.118l1.518-4.674a1 1 0 00-.363-1.118l-3.976-2.888c-.783-.57-.38-1.81.588-1.81h4.914a1 1 0 00.951-.69l1.519-4.674z"/><path fill-rule="evenodd" clip-rule="evenodd" d="M14.694 8.292L12.95 2.927c-.3-.921-1.603-.921-1.902 0l-1.52 4.674a1 1 0 01-.95.69H3.665c-.97 0-1.372 1.24-.588 1.81l3.976 2.888a1 1 0 01.363 1.118l-1.519 4.674c-.3.922.755 1.688 1.54 1.118l3.975-2.888a1 1 0 011.175 0l2.107 1.53V8.291z"/></symbol><symbol viewBox="0 0 32 32" id="telegram" xmlns="http://www.w3.org/2000/svg"><path d="M30.614 1.386a1.313 1.313 0 00-1.342-.32l-.077.025L2.512 9.809a2.2 2.2 0 00-.87 3.642l4.083 4.083c.589.59.794 1.447.536 2.24l-2.09 6.392a1.316 1.316 0 001.252 1.727c.138 0 .277-.021.412-.065l6.392-2.089a2.187 2.187 0 012.237.537c.002-.001 4.084 4.081 4.084 4.081a2.19 2.19 0 001.554.643 2.19 2.19 0 002.088-1.513c.01-.027.018-.053.025-.076l8.72-26.684c.154-.475.03-.989-.321-1.34zM7.096 20.046c.106-.325.156-.658.153-.988l.36.36a2.197 2.197 0 002.43.462l.611-.253c.405-.168.78-.116 1.073.028L5.04 26.338l2.056-6.292zm4.858 4.858L5.662 26.96l6.683-6.684c.143.294.195.67.028 1.074l-.253.611a2.197 2.197 0 00.462 2.43l.36.36a3.096 3.096 0 00-.988.153zM30.099 2.456L21.356 29.21l-.001.003a1.32 1.32 0 01-2.185.521l-5.967-5.966a1.317 1.317 0 01-.048-1.813L24.446 9.414a1.317 1.317 0 00-1.86-1.86l-5.634 5.073a.44.44 0 00.588.653l5.634-5.073a.439.439 0 01.619.62l-10.47 11.628a2.186 2.186 0 00-.614-1.164 2.187 2.187 0 00-1.164-.614l4.705-4.236a.44.44 0 00-.588-.653l-5.618 5.057a1.317 1.317 0 01-1.813-.048L2.264 12.83a1.32 1.32 0 01.521-2.185l26.756-8.742.004-.001a.438.438 0 01.554.554z"/></symbol><symbol viewBox="0 0 40 40" id="telescope" xmlns="http://www.w3.org/2000/svg"><path fill-rule="evenodd" clip-rule="evenodd" d="M2.5 38.125h34.991c.346 0 .625-.28.625-.625V26.234a.624.624 0 00-.211-.468l-4.78-4.214v-5.668a10.878 10.878 0 00-.704-3.85l.758-.534c.086.197.158.387.216.566a.624.624 0 001.001.284l3.29-2.812c.2-.171.27-.449.179-.695-1.124-2.995-2.858-5.388-5.565-6.89a.625.625 0 00-.711.074L28.342 4.83a.625.625 0 00.113 1.024c.138.074.278.16.42.256l-.607.606c-2.06-1.468-4.634-2.341-7.427-2.341H19.16c-6.796 0-12.284 5.165-12.284 11.509v5.684l-4.788 4.198a.626.626 0 00-.212.468V37.5c0 .345.28.625.625.625zm34.366-11.608v10.358h-3.741V23.219l3.741 3.298zM25 36.875h6.875V25.358H8.125v11.517H15V27.5c0-.345.28-.625.625-.625h8.75c.345 0 .625.28.625.625v9.375zm-18.125 0V23.217l-3.75 3.3v10.358h3.75zm16.875 0h-7.5v-8.75h7.5v8.75zm-5.625-5.625v2.813a.625.625 0 001.25 0V31.25a.625.625 0 00-1.25 0zm2.5 0v2.813a.625.625 0 001.25 0V31.25a.625.625 0 00-1.25 0zm-12.5-8.79v1.648h23.75V22.46H8.125zm23.75-1.25v-5.326a9.645 9.645 0 00-.514-3.106l-2.585 1.816c.547 1.466.76 3.198.597 5.165a.626.626 0 01-1.246-.103c.398-4.785-1.703-8.012-5.594-9.006l-.016-.004a7.196 7.196 0 00-2.031-.221.625.625 0 01-.043-1.25 8.46 8.46 0 012.384.26l.015.004a9.83 9.83 0 011.967.725l2.56-2.551c-1.83-1.251-4.087-1.988-6.528-1.988H19.16c-6.083 0-11.034 4.58-11.034 10.259v5.325h23.75zM29.853 6.9l-3.938 3.926a7.798 7.798 0 012.331 2.612l4.357-3.062c-.71-1.212-1.73-2.525-2.75-3.476zm2.215-3.637c2.109 1.293 3.51 3.234 4.468 5.612l-2.29 1.958c-.884-1.893-2.77-4.345-4.457-5.602l2.279-1.968z"/></symbol><symbol viewBox="0 0 24 24" id="tg" xmlns="http://www.w3.org/2000/svg"><path fill-rule="evenodd" clip-rule="evenodd" d="M12 24c6.627 0 12-5.373 12-12S18.627 0 12 0 0 5.373 0 12s5.373 12 12 12zM7.472 13.049l-3.226-1.204a.38.38 0 01-.003-.712l13.239-5.107a.38.38 0 01.509.432l-2.376 11.429a.38.38 0 01-.596.23l-3.243-2.355a.536.536 0 00-.654.018l-1.798 1.466a.38.38 0 01-.603-.182L7.472 13.05zm7.352-4.524L8.52 12.408a.635.635 0 00-.278.714l.682 2.395c.048.17.295.152.318-.023l.177-1.313c.034-.248.152-.475.335-.646L14.957 8.7c.097-.09-.02-.244-.133-.174z"/></symbol><symbol viewBox="0 0 40 40" id="travelMap" xmlns="http://www.w3.org/2000/svg"><g clip-path="url(#bja)"><path d="M39.31 38.47l-9.375-18.75a.626.626 0 00-.56-.345h-6.183l.08-.34a6.263 6.263 0 004.229-5.91 6.257 6.257 0 00-6.25-6.25 6.257 6.257 0 00-6.25 6.25 6.263 6.263 0 004.229 5.91l.079.34h-8.684a.626.626 0 00-.559.346L.691 38.47a.624.624 0 00.56.904h37.5a.627.627 0 00.559-.904zm-20.376-3.028l2.683 2.683h-1.983l-4.817-4.817a.624.624 0 00-.883 0l-4.817 4.817H7.134l5.808-5.808a.624.624 0 000-.884l-4.89-4.89.661-1.322 2.72 2.72a.623.623 0 00.884 0l3.125-3.124a.624.624 0 00.184-.442v-3.75h1.25v4.741l-3.567 3.567a.624.624 0 000 .884l3.75 3.75a.623.623 0 00.883 0l5.442-5.442h9.355l.625 1.25h-8.988a.622.622 0 00-.442.183l-5 5a.624.624 0 000 .884zm-1.067 2.683h-6.983l3.492-3.491 3.49 3.491zm-1.617-25c0-2.757 2.244-5 5-5 2.757 0 5 2.243 5 5a5.01 5.01 0 01-3.673 4.816.626.626 0 00-.443.462l-.884 3.823-.883-3.823a.625.625 0 00-.443-.462 5.01 5.01 0 01-3.674-4.816zm4.391 12.016a.626.626 0 001.219 0l1.044-4.516h6.085l3.125 6.25h-8.988a.622.622 0 00-.442.183L17.5 32.241l-2.866-2.866 3.308-3.308a.624.624 0 00.183-.442v-5h1.472l1.044 4.516zm-9.63-4.516h3.365v3.491l-2.5 2.5-2.574-2.573 1.71-3.418zm-3.547 7.097l4.153 4.153-6.25 6.25H2.262l5.202-10.403zm15.92 10.403L20.26 35l4.375-4.375h9.355l2.5 5h-3.03l-2.314-3.472a.623.623 0 00-.961-.095L29 33.241l-.957-1.677c-.222-.389-.863-.389-1.085 0l-2.32 4.061h-1.513v1.25h13.99l.624 1.25H23.384zm5.54-2.5h-2.847l1.423-2.49 1.424 2.49zm1.439 0l-.72-1.26.886-.884 1.429 2.144h-1.595z"/><path d="M23.75 13.125H25a3.754 3.754 0 00-3.75-3.75v1.25c1.379 0 2.5 1.121 2.5 2.5zm-1 2l.75 1a3.76 3.76 0 001.188-1.5l-1.145-.5c-.172.394-.446.74-.793 1zM2.5 9.375a.626.626 0 00-.52.278L.73 11.528a.625.625 0 000 .693l1.25 1.875a.625.625 0 00.52.279h3.125V20c0 .345.28.625.625.625h2.5c.346 0 .625-.28.625-.625v-5.625h4.375a.625.625 0 00.52-.971l-1.019-1.529 1.019-1.528a.625.625 0 00-.52-.972H9.375v-1.25H12.5a.626.626 0 00.52-.278l1.25-1.875a.624.624 0 000-.693l-1.25-1.875a.625.625 0 00-.52-.279H9.375V1.25A.625.625 0 008.75.625h-2.5a.625.625 0 00-.625.625v1.875H1.25a.625.625 0 00-.52.971l1.019 1.529L.73 7.153a.625.625 0 00.52.972h4.375v1.25H2.5zm5.625 10h-1.25v-5h1.25v5zm3.855-7.153l.602.903H2.835l-.833-1.25.833-1.25h9.748l-.602.903a.626.626 0 000 .694zM6.875 1.875h1.25v1.25h-1.25v-1.25zM3.02 5.278l-.603-.903h9.749l.833 1.25-.833 1.25H2.418l.602-.903a.625.625 0 000-.694zm3.855 2.847h1.25v1.25h-1.25v-1.25z"/><path d="M3.125 11.25h1.25v1.25h-1.25v-1.25zm2.5 0h1.25v1.25h-1.25v-1.25zm5-6.25h1.25v1.25h-1.25V5zm-2.5 0h1.25v1.25h-1.25V5z"/></g><defs><clipPath id="bja"><path d="M0 0h40v40H0z"/></clipPath></defs></symbol><symbol viewBox="0 0 16 16" id="viber" xmlns="http://www.w3.org/2000/svg"><path d="M8 1.335c-1.071.013-3.374.19-4.662 1.37-.958.948-1.292 2.35-1.331 4.084-.033 1.728-.072 4.973 3.058 5.856v1.346s-.02.538.337.648c.438.14.688-.275 1.105-.72l.778-.879c2.142.178 3.782-.232 3.97-.293.435-.139 2.883-.451 3.283-3.696.41-3.351-.2-5.463-1.301-6.418h-.007c-.332-.306-1.668-1.279-4.652-1.29 0 0-.222-.014-.578-.008zm.037.942a7.02 7.02 0 01.488.011c2.527.007 3.732.767 4.017 1.023.927.794 1.405 2.697 1.055 5.495-.332 2.713-2.317 2.885-2.685 3.002-.156.05-1.6.406-3.42.289 0 0-1.356 1.634-1.78 2.055-.067.074-.146.095-.196.085-.071-.018-.093-.107-.089-.229l.013-2.233c-2.655-.733-2.498-3.5-2.47-4.946.033-1.446.304-2.628 1.113-3.43 1.088-.982 3.043-1.115 3.953-1.122zm.2 1.446a.166.166 0 100 .332 3.136 3.136 0 012.242.883c.606.588.9 1.378.912 2.411 0 .092.074.167.167.167V7.51a.167.167 0 00.168-.165 3.588 3.588 0 00-1.009-2.646c-.66-.645-1.496-.977-2.48-.977zm-2.198.382a.523.523 0 00-.342.067H5.69a2.61 2.61 0 00-.637.523 1.003 1.003 0 00-.256.525.71.71 0 00.026.302l.01.006c.172.504.396.988.67 1.444a8.48 8.48 0 001.29 1.762l.015.022.024.017.015.018.017.015c.532.505 1.127.94 1.769 1.295.734.4 1.18.588 1.447.667v.004c.078.024.15.034.221.034.228-.016.444-.109.613-.262a2.53 2.53 0 00.517-.638v-.004c.128-.241.085-.469-.1-.623-.37-.323-.77-.61-1.195-.857-.285-.155-.574-.061-.69.095l-.25.315c-.129.156-.361.134-.361.134l-.007.004C7.093 8.527 6.63 6.772 6.63 6.772s-.022-.239.139-.36l.312-.252c.15-.122.254-.41.094-.695a7.498 7.498 0 00-.856-1.194.475.475 0 00-.28-.167zm2.486.495c-.221 0-.221.334.003.334A2.098 2.098 0 0110 5.572 1.94 1.94 0 0110.5 7a.168.168 0 00.167.165l.007.009a.169.169 0 00.167-.167c.015-.662-.191-1.218-.595-1.663C9.84 4.9 9.273 4.65 8.549 4.6h-.024zm.274.898c-.228-.006-.236.335-.01.341.55.029.816.306.851.877a.166.166 0 00.165.163h.007a.168.168 0 00.16-.178c-.039-.744-.445-1.164-1.166-1.202H8.8z"/></symbol><symbol viewBox="0 0 24 24" id="vk" xmlns="http://www.w3.org/2000/svg"><path d="M12.004 0a12 12 0 10-.008 24 12 12 0 00.008-24zm6.058 16.59h-1.48c-.565 0-.729-.44-1.734-1.426-.88-.834-1.258-.943-1.477-.943-.471 0-.39.156-.39 1.804 0 .358-.116.565-1.059.565-1.558 0-3.288-.935-4.516-2.658C5.572 11.404 5.07 9.491 5.07 9.105c0-.214.086-.39.506-.39h1.48c.39 0 .523.16.671.566.725 2.072 1.948 3.896 2.447 3.896.19 0 .272-.086.272-.554V10.48c-.054-.985-.588-1.067-.588-1.418a.355.355 0 01.39-.33h2.337c.312 0 .421.163.421.533v2.88c0 .307.14.416.234.416.187 0 .347-.109.69-.448a12.045 12.045 0 001.82-2.973.635.635 0 01.646-.39h1.453c.448 0 .542.227.448.534-.187.846-1.99 3.343-1.995 3.347-.155.246-.218.39 0 .647.086.117 1.987 1.89 2.268 2.75.136.355-.078.562-.499.562h-.008z"/></symbol><symbol viewBox="0 0 16 16" id="whatsapp" xmlns="http://www.w3.org/2000/svg"><path fill-rule="evenodd" clip-rule="evenodd" d="M12.269 3.755A5.947 5.947 0 008.035 2 5.994 5.994 0 002.05 7.985a5.98 5.98 0 00.799 2.992L2 14.077l3.173-.832c.877.477 1.86.728 2.86.728h.002a5.993 5.993 0 005.533-8.276 5.953 5.953 0 00-1.3-1.942zm-4.234 9.208h-.002c-.89 0-1.765-.24-2.532-.694l-.181-.108-1.883.494.502-1.835-.118-.188a4.965 4.965 0 01-.76-2.647 4.982 4.982 0 016.88-4.597c.604.25 1.152.618 1.613 1.081a4.946 4.946 0 011.455 3.52 4.982 4.982 0 01-4.974 4.974zm2.729-3.726c-.15-.075-.885-.436-1.022-.486-.137-.05-.236-.075-.336.074-.1.15-.387.486-.474.586-.087.1-.175.112-.324.038-.15-.075-.631-.233-1.203-.742a4.505 4.505 0 01-.832-1.036c-.087-.15-.009-.231.066-.306.068-.066.15-.174.224-.262.075-.087.1-.149.15-.249.05-.1.025-.187-.013-.262-.037-.075-.337-.811-.461-1.11-.121-.29-.244-.252-.336-.256a6.418 6.418 0 00-.286-.005.55.55 0 00-.4.186c-.137.15-.523.512-.523 1.248s.536 1.447.61 1.547c.075.1 1.055 1.61 2.555 2.258.358.154.636.246.853.315.358.114.684.098.942.06.287-.043.885-.362 1.01-.711.124-.35.124-.649.087-.711-.038-.063-.138-.101-.287-.176z"/></symbol><symbol viewBox="0 0 24 24" id="youtube" xmlns="http://www.w3.org/2000/svg"><g clip-path="url(#bna)"><path d="M10.336 13.936l3.328-1.931-3.328-1.94v3.87z"/><path d="M12 0a12 12 0 100 24 12 12 0 000-24zm6.316 14.124a2.389 2.389 0 01-2.39 2.39H8.074a2.388 2.388 0 01-2.389-2.39V9.876a2.389 2.389 0 012.39-2.39h7.853a2.389 2.389 0 012.389 2.39v4.248z"/></g><defs><clipPath id="bna"><path d="M0 0h24v24H0z"/></clipPath></defs></symbol></svg>