<svg width="61" height="48" viewBox="0 0 61 48" fill="none" xmlns="http://www.w3.org/2000/svg">
<g clip-path="url(#clip0_2891_13029)">
<path d="M36.5741 -3.60192L30.7087 5.698L27.3599 8.32238C24.7587 10.3628 22.8733 13.1755 21.9747 16.3567L21.1586 19.2488L20.7747 28.122L27.1501 32.9778L28.1712 37.7959C28.272 38.2732 28.2458 38.7688 28.0953 39.2323L26.7891 43.248C26.702 43.5152 26.6772 43.789 26.7062 44.0523C26.7358 44.3212 26.8226 44.5805 26.9579 44.812C27.1681 45.1752 27.4998 45.4714 27.9188 45.6347C28.8046 45.9796 29.8084 45.6261 30.2834 44.802L32.9743 40.1288C33.0232 40.0438 33.0638 39.9554 33.0975 39.8644L33.1255 39.8747L32.0794 42.7843C31.7055 43.8234 32.2725 44.9649 33.3268 45.2947C33.589 45.3767 33.8581 45.3997 34.117 45.3712C34.7511 45.3013 35.3308 44.9205 35.6356 44.3213L37.1786 41.2865C37.2027 41.22 37.2301 41.1543 37.2623 41.0902L38.3919 38.8176C38.3611 38.9341 38.3175 39.0465 38.2632 39.1543L37.1786 41.2865C36.8805 42.119 37.2475 43.0609 38.06 43.463C38.3739 43.6189 38.7125 43.6723 39.0367 43.6366C39.5845 43.5763 40.0942 43.2614 40.3838 42.7491L42.2902 39.3829L41.9098 40.0991C41.7317 40.4346 41.668 40.8022 41.7069 41.1552C41.7679 41.7096 42.0814 42.2273 42.5952 42.5302C43.4444 43.0303 44.5365 42.7667 45.0643 41.9358L46.2451 40.0764C46.5363 39.6187 46.6917 39.0875 46.6947 38.5451L46.7121 34.8987L46.8864 18.9137L46.6126 15.6644L46.1293 11.0113C46.1094 10.8208 46.1555 10.6288 46.2576 10.4674L54.4182 -2.38375C54.7551 -2.9144 54.3859 -3.60993 53.7576 -3.62829L37.5081 -4.09976C37.1306 -4.11061 36.7755 -3.9214 36.5741 -3.60192Z" fill="#FFE0D1"/>
<path d="M37.5079 -4.10006C37.1305 -4.11103 36.7752 -3.92169 36.5738 -3.60243L30.7085 5.69749L27.3596 8.32187C24.7585 10.3623 22.873 13.175 21.9744 16.3562L21.5632 17.8135L25.4464 17.3859L25.5718 16.937C26.4926 13.6416 28.4285 10.7288 31.1006 8.61708L34.5409 5.90071L40.5623 -3.73012C40.6292 -3.83702 40.7138 -3.92815 40.8092 -4.00435L37.5079 -4.10006Z" fill="#FFD1C2"/>
<path d="M33.2344 32.4744L33.2017 39.288C33.1999 39.4853 33.1654 39.6806 33.0971 39.8639L33.1251 39.8743L32.079 42.7838C31.7051 43.8229 32.2721 44.9645 33.3265 45.2942C33.5886 45.3762 33.8577 45.3992 34.1167 45.3707C34.2941 45.3512 34.4662 45.3078 34.6302 45.2416C33.8861 44.7658 33.5362 43.8218 33.8502 42.9495L34.8963 40.0399L34.8682 40.0296C34.9366 39.8462 34.971 39.6509 34.9729 39.4536L34.9987 34.0627C35.0032 33.1125 34.1789 32.3704 33.2344 32.4744Z" fill="#FFD1C2"/>
<path d="M38.4446 32.105L38.4519 38.3487C38.4516 38.5089 38.4299 38.6681 38.3874 38.8206C38.3566 38.9371 38.3129 39.0495 38.2587 39.1574L37.1741 41.2895C36.876 42.122 37.2429 43.0639 38.0555 43.466C38.3898 43.632 38.7527 43.6791 39.0958 43.6289C39.0962 43.6271 39.0953 43.6307 39.0958 43.6289C38.5886 43.1555 38.3973 42.4153 38.6371 41.7454L39.7217 39.6132C39.7758 39.5054 39.8196 39.393 39.8504 39.2765C39.8929 39.124 39.9146 38.9648 39.9149 38.8046L39.9086 33.4153C39.9076 32.6298 39.2252 32.0191 38.4446 32.105Z" fill="#FFD1C2"/>
<path d="M42.4519 31.6637L42.4659 34.7588L42.4234 38.8897C42.4211 39.0624 42.3748 39.2322 42.2895 39.3826L41.9092 40.0988C41.731 40.4343 41.6673 40.8019 41.7062 41.1549C41.7672 41.7093 42.0807 42.227 42.5945 42.5299C42.9559 42.7428 43.3601 42.8175 43.7474 42.7688C43.3941 42.4625 43.1775 42.0381 43.128 41.5889C43.0891 41.2359 43.1528 40.8682 43.3309 40.5327L43.7113 39.8166C43.7966 39.666 43.8429 39.4964 43.8452 39.3236L43.8877 35.1928L43.8775 32.9353C43.874 32.1722 43.2102 31.5802 42.4519 31.6637Z" fill="#FFD1C2"/>
<path d="M35.5561 19.2401C35.6276 18.8073 35.6398 18.3697 35.5924 17.9394C35.3162 15.431 33.1245 13.5774 30.6038 13.7195L25.7969 13.9878C25.6781 13.9944 25.5579 14.0044 25.4396 14.0174C24.3345 14.1391 23.2678 14.5458 22.3575 15.1807C22.2148 15.5663 22.0869 15.9585 21.9745 16.3565L21.1584 19.2486L23.1554 17.3893C23.9114 16.6854 24.8899 16.2685 25.9211 16.2109L30.7278 15.9427C32.1036 15.8651 33.237 16.8917 33.3792 18.1831C33.4039 18.4078 33.3983 18.6413 33.3593 18.8775C33.1904 19.8963 32.4174 20.7083 31.4101 20.9289L27.2522 21.8403L26.2986 27.9497C26.2391 28.3348 26.2497 28.7268 26.3298 29.1077L28.1712 37.7956C28.2719 38.2729 28.2458 38.7686 28.0952 39.232L26.789 43.2477C26.7019 43.5149 26.6772 43.7887 26.7062 44.052C26.7358 44.3209 26.8226 44.5802 26.9579 44.8117C27.1681 45.1749 27.4997 45.4712 27.9187 45.6344C28.5833 45.8931 29.3142 45.7587 29.8384 45.3276C29.2726 44.3594 29.1473 43.1956 29.4942 42.1293L30.2129 39.9198C30.4834 39.0868 30.5307 38.1932 30.3493 37.3339L28.5087 28.6494C28.4838 28.5306 28.4804 28.4095 28.4985 28.293L29.2171 23.6889L31.8866 23.1037C33.7959 22.6855 35.2362 21.1694 35.5561 19.2401Z" fill="#FFD1C2"/>
<path d="M33.3791 18.1831C33.4038 18.4078 33.3982 18.6413 33.3592 18.8775C33.1903 19.8963 32.4173 20.7083 31.4101 20.9289L27.2521 21.8403L26.2985 27.9497C26.239 28.3348 26.2496 28.7268 26.3297 29.1077L28.1711 37.7956C28.2718 38.2729 28.2457 38.7686 28.0952 39.232L26.7889 43.2477C26.7019 43.5149 26.6771 43.7887 26.7061 44.052C26.7357 44.3209 26.8225 44.5802 26.9578 44.8117L25.1187 45.6862C24.9963 45.7445 24.8923 45.8366 24.8197 45.9509L20.6823 52.4657C20.2835 53.0936 19.5075 53.368 18.8028 53.1302L6.3531 48.9305C5.82737 48.7531 5.60689 48.1297 5.90438 47.6613L14.3723 34.3264L15.3286 27.8347C15.6782 25.4655 16.8226 23.2864 18.575 21.6554L21.1582 19.2486L23.1552 17.3891C23.9112 16.6853 24.8897 16.2684 25.9209 16.2109L30.7276 15.9426C32.1034 15.8651 33.2369 16.8916 33.3791 18.1831Z" fill="#FFE6C6"/>
<path d="M8.66461 49.4661L17.1327 36.1313L18.089 29.6396C18.4385 27.2704 19.583 25.0913 21.3354 23.4604L23.9185 21.0536L25.9155 19.1941C26.6714 18.4902 27.6499 18.0734 28.6812 18.0159L33.2946 17.7591C32.9786 16.6756 31.9484 15.874 30.7276 15.9427L25.921 16.211C24.8897 16.2685 23.9111 16.6854 23.1553 17.3893L21.1583 19.2487L18.5751 21.6555C16.8227 23.2866 15.6782 25.4656 15.3287 27.8349L14.3724 34.3264L5.9044 47.6613C5.6069 48.1297 5.82728 48.7531 6.35311 48.9304L8.56851 49.6778C8.59056 49.6052 8.62151 49.5339 8.66461 49.4661Z" fill="#F8D3AA"/>
<path d="M46.7122 34.8986L46.8864 18.9135L46.6126 15.6642L46.44 14.0022L44.7886 14.1093C44.7275 14.1132 44.6669 14.1185 44.6068 14.1252C42.4654 14.3609 40.8974 16.2303 41.0367 18.3805L41.0517 18.6115C41.0956 19.2903 41.3059 19.9322 41.6589 20.492C41.0372 21.2419 40.6919 22.2218 40.7599 23.2699L40.7743 23.4939C40.8178 24.1647 41.0276 24.7858 41.3603 25.32C40.7547 26.066 40.4193 27.0332 40.4862 28.0673L40.5008 28.2903C40.546 28.9878 40.7703 29.6455 41.1464 30.2128C40.5496 30.9501 40.2084 31.8967 40.2506 32.9075C40.2961 33.9984 40.7684 35.0013 41.5806 35.7314C42.3926 36.4614 43.4399 36.8245 44.5296 36.7538L46.2891 36.6399C46.3503 36.6359 46.4106 36.6305 46.4709 36.6239C46.5494 36.6153 46.6268 36.6037 46.704 36.5907L46.7122 34.8986Z" fill="#FFD1C2"/>
<path d="M47.0462 20.5781L45.215 20.6967C43.9197 20.7806 42.8016 19.7986 42.7177 18.5033L42.7027 18.273C42.6187 16.9777 43.6007 15.8595 44.896 15.7756L46.7272 15.657C48.0225 15.573 49.1406 16.555 49.2246 17.8503L49.2396 18.0807C49.3235 19.376 48.3415 20.4941 47.0462 20.5781Z" fill="#FFE6C6"/>
<path d="M46.8351 25.3856L44.8636 25.5134C43.6071 25.5949 42.5224 24.6421 42.4409 23.3856L42.4264 23.1621C42.3449 21.9056 43.2976 20.8209 44.5541 20.7394L46.5256 20.6116C47.7821 20.5301 48.8668 21.4828 48.9483 22.7394L48.9628 22.9629C49.0441 24.2195 48.0916 25.3041 46.8351 25.3856Z" fill="#FFE6C6"/>
<path d="M46.6511 30.2978L44.4573 30.44C43.2008 30.5215 42.1161 29.5688 42.0346 28.3122L42.0063 27.8754C41.9248 26.6189 42.8775 25.5342 44.1341 25.4527L46.3278 25.3105C47.5843 25.229 48.669 26.1817 48.7505 27.4382L48.7788 27.8751C48.8602 29.1318 47.9076 30.2164 46.6511 30.2978Z" fill="#FFE6C6"/>
<path d="M46.2585 34.8123L44.4989 34.9263C43.1812 35.0118 42.0514 33.9961 41.9965 32.6768C41.9432 31.3998 42.9193 30.314 44.1947 30.2313L45.9543 30.1173C47.272 30.0319 48.4018 31.0475 48.4568 32.3668C48.5099 33.6438 47.5339 34.7297 46.2585 34.8123Z" fill="#FFE6C6"/>
<path d="M47.3637 19.3012L45.5325 19.4198C44.2372 19.5038 43.1191 18.5217 43.0351 17.2264L43.0202 16.996C43.0187 16.9751 43.0202 16.9533 43.0193 16.9326C42.79 17.3237 42.6709 17.7867 42.7025 18.2731L42.7175 18.5034C42.8015 19.7987 43.9196 20.7806 45.2149 20.6968L47.0461 20.5782C48.3205 20.4956 49.2912 19.4128 49.2422 18.1442C48.861 18.7944 48.1726 19.2487 47.3637 19.3012Z" fill="#F8D3AA"/>
<path d="M47.1524 24.1087L45.181 24.2365C43.9245 24.318 42.8398 23.3652 42.7583 22.1087L42.7437 21.8852C42.7429 21.8727 42.7433 21.8589 42.7426 21.8465C42.5141 22.2292 42.3951 22.6838 42.426 23.1622L42.4406 23.3857C42.5221 24.6423 43.6067 25.5949 44.8633 25.5135L46.8347 25.3857C48.0788 25.3051 49.025 24.2414 48.9646 23.0007C48.5932 23.6232 47.9306 24.0583 47.1524 24.1087Z" fill="#F8D3AA"/>
<path d="M46.9683 29.0208L44.7745 29.1631C43.518 29.2446 42.4333 28.2918 42.3518 27.0353L42.3235 26.5985C42.3227 26.586 42.3233 26.5728 42.3226 26.5603C42.0942 26.943 41.9748 27.3971 42.0059 27.8756L42.0342 28.3124C42.1157 29.569 43.2004 30.5216 44.4569 30.4402L46.6507 30.298C47.8948 30.2173 48.841 29.1536 48.7805 27.9129C48.4089 28.5353 47.7465 28.9704 46.9683 29.0208Z" fill="#F8D3AA"/>
<path d="M46.5753 33.5356L44.8157 33.6496C43.498 33.7351 42.3683 32.7194 42.3132 31.4002C42.3132 31.3994 42.312 31.3939 42.3127 31.3959C42.0942 31.7711 41.9763 32.212 41.9956 32.6773C42.0507 33.9965 43.1804 35.0123 44.4981 34.9268L46.2577 34.8127C47.5323 34.7301 48.5077 33.6456 48.4559 32.3697C48.0746 33.0243 47.3861 33.4831 46.5753 33.5356Z" fill="#F8D3AA"/>
</g>
<defs>
<clipPath id="clip0_2891_13029">
<rect width="55" height="55" fill="white" transform="translate(0 0.0195312) rotate(-6.28325)"/>
</clipPath>
</defs>
</svg>
