<svg width="18" height="18" viewBox="0 0 18 18" fill="none" xmlns="http://www.w3.org/2000/svg">
<path d="M9.00029 8.83232C10.7015 8.83232 12.0807 7.15721 12.0807 5.09093C12.0807 3.02459 11.6278 1.34949 9.00029 1.34949C6.37272 1.34949 5.91992 3.02459 5.91992 5.09093C5.91997 7.15721 7.29913 8.83232 9.00029 8.83232Z" fill="#1972DB"/>
<path d="M14.811 14.3939C14.754 10.7943 14.2839 9.76861 10.6864 9.11932C10.6864 9.11932 10.18 9.76458 8.99965 9.76458C7.81935 9.76458 7.31295 9.11932 7.31295 9.11932C3.75475 9.76147 3.25596 10.772 3.1904 14.2769C3.18507 14.5631 3.18261 14.5782 3.18164 14.5449C3.18183 14.6072 3.1821 14.7223 3.1821 14.9231C3.1821 14.9231 4.0386 16.6497 8.99969 16.6497C13.9608 16.6497 14.8174 14.9231 14.8174 14.9231C14.8174 14.7941 14.8175 14.7044 14.8176 14.6434C14.8166 14.6639 14.8146 14.6241 14.811 14.3939Z" fill="#1972DB"/>
<path d="M13.2743 8.16385C14.656 8.16385 15.7761 6.80338 15.7761 5.12516C15.7761 3.4469 15.4083 2.08643 13.2743 2.08643C12.9153 2.08643 12.6064 2.12505 12.3407 2.19714C12.8336 3.1058 12.9012 4.20946 12.9012 5.09044C12.9012 6.08792 12.6308 7.04025 12.1328 7.82878C12.4751 8.04252 12.8629 8.16385 13.2743 8.16385Z" fill="#1972DB"/>
<path d="M17.994 12.6817C17.9476 9.75821 17.5659 8.92518 14.6441 8.39783C14.6441 8.39783 14.2327 8.92193 13.2741 8.92193C13.2345 8.92193 13.196 8.92073 13.1582 8.91901C13.7673 9.19363 14.3214 9.576 14.7295 10.1355C15.4349 11.1028 15.5971 12.4022 15.6305 14.3112C17.5963 13.9228 17.9991 13.1116 17.9991 13.1116C17.9991 13.0059 17.9991 12.9334 17.9993 12.8838C17.9985 12.9013 17.9969 12.87 17.994 12.6817Z" fill="#1972DB"/>
<path d="M4.72435 8.16393C5.13575 8.16393 5.52349 8.0426 5.8659 7.8289C5.36794 7.04038 5.09754 6.08805 5.09754 5.09056C5.09754 4.20954 5.16509 3.10587 5.6579 2.19727C5.39223 2.12517 5.0834 2.08655 4.72435 2.08655C2.59033 2.08655 2.22266 3.44702 2.22266 5.12529C2.22266 6.80345 3.34273 8.16393 4.72435 8.16393Z" fill="#1972DB"/>
<path d="M4.84102 8.91889C4.80328 8.92061 4.76485 8.92181 4.72511 8.92181C3.76648 8.92181 3.35518 8.39771 3.35518 8.39771C0.433463 8.92506 0.0516038 9.75804 0.00533193 12.6816C0.00231823 12.8699 0.000788199 12.9011 0 12.8837C9.27293e-05 12.9332 0.000185459 13.0057 0.000185459 13.1115C0.000185459 13.1115 0.403094 13.9226 2.36868 14.3111C2.40229 12.4021 2.56438 11.1027 3.26991 10.1354C3.67792 9.57592 4.23193 9.19351 4.84102 8.91889Z" fill="#1972DB"/>
</svg>
