<svg width="18" height="19" viewBox="0 0 18 19" fill="none" xmlns="http://www.w3.org/2000/svg">
<g clip-path="url(#clip0_2764_11534)">
<path d="M9.00087 9.30318C11.0022 9.30318 12.6247 7.33254 12.6247 4.90162C12.6247 2.47064 12.092 0.5 9.00087 0.5C5.90975 0.5 5.37695 2.47064 5.37695 4.90162C5.37695 7.33254 6.99947 9.30318 9.00087 9.30318Z" fill="#1972DB"/>
<path d="M15.8438 16.1393C15.8456 16.0987 15.8444 15.8578 15.8438 16.1393V16.1393Z" fill="#1972DB"/>
<path d="M15.8357 15.8458C15.7686 11.6111 15.2155 10.4044 10.9833 9.64056C10.9833 9.64056 10.3875 10.3997 8.99898 10.3997C7.61041 10.3997 7.01455 9.64056 7.01455 9.64056C2.82853 10.3961 2.24183 11.5848 2.16469 15.7082C2.15836 16.0449 2.15543 16.0626 2.1543 16.0235C2.15455 16.0968 2.15486 16.2322 2.15486 16.4684C2.15486 16.4684 3.16245 18.4997 8.99898 18.4997C14.8354 18.4997 15.8431 16.4684 15.8431 16.4684C15.8431 16.3167 15.8432 16.2111 15.8434 16.1394C15.8422 16.1635 15.84 16.1167 15.8357 15.8458Z" fill="#1972DB"/>
</g>
<defs>
<clipPath id="clip0_2764_11534">
<rect width="18" height="18" fill="white" transform="translate(0 0.5)"/>
</clipPath>
</defs>
</svg>
