<?xml version="1.0" encoding="utf-8"?><svg xmlns="http://www.w3.org/2000/svg" xmlns:xlink="http://www.w3.org/1999/xlink"><symbol viewBox="0 0 16 16" id="arrow-left" xmlns="http://www.w3.org/2000/svg"><path d="M8 0l1.41 1.41L3.83 7H16v2H3.83l5.58 5.59L8 16 0 8l8-8z"/></symbol><symbol viewBox="0 0 16 16" id="arrow-right" xmlns="http://www.w3.org/2000/svg"><path d="M8 0L6.59 1.41 12.17 7H0v2h12.17l-5.58 5.59L8 16l8-8-8-8z"/></symbol><symbol viewBox="0 0 22 24" id="basket" xmlns="http://www.w3.org/2000/svg"><g clip-path="url(#ca)"><path d="M10.363 18.443a2.046 2.046 0 00-2.045 2.042 2.046 2.046 0 004.09 0 2.046 2.046 0 00-2.045-2.042zm6.134 0a2.046 2.046 0 00-2.045 2.042 2.046 2.046 0 004.089 0 2.046 2.046 0 00-2.044-2.042zm3.978-8.199L7.413 6.891a.614.614 0 00-.75.73L8.67 16.4h-.786L5.482 5.895a.613.613 0 00-.474-.464l-4.27-.882A.614.614 0 00.489 5.75l3.885.802L6.797 17.15a.613.613 0 00.598.477h12.07a.615.615 0 00.607-.53l.858-6.175a.613.613 0 00-.455-.678zm-8.14 3.91a.613.613 0 01-1.227 0v-2.696a.613.613 0 011.227 0v2.696zm2.625 0a.613.613 0 01-1.227 0v-1.88a.613.613 0 011.227 0v1.88zm2.625 0a.613.613 0 01-1.227 0v-1.226a.613.613 0 011.227 0v1.226z"/></g><path fill-rule="evenodd" clip-rule="evenodd" d="M16.268 4.568a2.996 2.996 0 00-1.693-.523c-.627 0-1.21.193-1.693.523-.28-.843-.492-1.752-.492-2.383C12.39.98 13.37 0 14.575 0s2.185.98 2.185 2.185c0 .631-.212 1.54-.492 2.383zm-4.722 2.274l.024.006v-.011l-.024.005zm4.972 1.217c-1.333-.33-2.766-.681-4.129-1.013a2.185 2.185 0 114.129 1.013zm4.436 1.103c-.866-.217-2.155-.538-3.618-.9a2.995 2.995 0 00.243-1.425c.87.18 1.762.45 2.308.765.596.344.969.928 1.067 1.56zM9.869 6.439c-.36-.086-.706-.167-1.03-.243a2.19 2.19 0 01-.376-2.667 2.188 2.188 0 013.147-.7c.098.738.338 1.599.61 2.353a3.01 3.01 0 00-.449.774c-.628.113-1.305.278-1.902.483zm10.124.075a3.43 3.43 0 01-.217.114c-.696-.295-1.587-.526-2.397-.672a3.01 3.01 0 00-.449-.774c.262-.727.494-1.553.599-2.273.095-.067.189-.128.278-.18a2.188 2.188 0 012.986.8 2.188 2.188 0 01-.8 2.985z"/><defs><clipPath id="ca"><path transform="translate(0 3.064)" d="M0 0h20.936v20.936H0z"/></clipPath></defs></symbol><symbol viewBox="0 0 344.96 344.96" id="check" xmlns="http://www.w3.org/2000/svg"><g data-name="Слой 2"><path class="dcls-1" d="M321.85 86.24l-40-23.11-23.1-40H212.5L172.48 0l-40 23.11H86.24l-23.11 40-40 23.1v46.21L0 172.48l23.11 40v46.21l40 23.11 23.11 40h46.21l40 23.1 40-23.11h46.21l23.11-40 40-23.11V212.5l23.11-40-23.11-40V86.24zM156.91 243.07a16.79 16.79 0 01-23.34 0l-50.45-50.44a16.19 16.19 0 010-22.89l13.35-13.35a16.19 16.19 0 0122.89 0l25.87 25.87 80.34-80.35a16.19 16.19 0 0122.89 0l13.35 13.35a16.19 16.19 0 010 22.89z" data-name="Capa 1"/></g></symbol><symbol viewBox="0 0 24 24" id="fb" xmlns="http://www.w3.org/2000/svg"><path d="M13.397 20.997v-8.196h2.765l.411-3.209h-3.176V7.548c0-.926.258-1.56 1.587-1.56h1.684v-2.86A22.108 22.108 0 0014.201 3c-2.444 0-4.122 1.492-4.122 4.231v2.355H7.332v3.21h2.753v8.201h3.312z"/></symbol><symbol viewBox="0 0 24 24" id="headerBlock-icon-1" xmlns="http://www.w3.org/2000/svg"><g clip-path="url(#fa)"><path d="M12.32 23.2a.472.472 0 00-.664 0 .472.472 0 000 .663.472.472 0 00.663 0 .473.473 0 000-.663z"/><path d="M21.495 15.331l-1.564-.373v-.62a3.093 3.093 0 001.446-2.617V9.974a3.097 3.097 0 00-3.093-3.093c-.92 0-1.748.404-2.315 1.044a4.132 4.132 0 00-3.964-2.983 4.132 4.132 0 00-3.967 2.99 3.087 3.087 0 00-2.321-1.051 3.097 3.097 0 00-3.094 3.093v1.747c0 1.1.578 2.068 1.446 2.617v.62l-1.564.373A3.253 3.253 0 000 18.505v3.151c0 .26.21.469.469.469h3.748v1.406c0 .26.21.469.469.469h5.142a.469.469 0 000-.938H7.736V21a.469.469 0 00-.938 0v2.064H5.154v-2.115c0-1.59 1.08-2.96 2.626-3.33l2.306-.552 1.483 3.375a.469.469 0 00.858 0l1.482-3.37 2.299.549a3.412 3.412 0 012.628 3.33v.523a.469.469 0 000 .367v1.223h-1.634V21a.469.469 0 00-.938 0v2.064H13.97a.469.469 0 100 .937h5.336c.259 0 .468-.21.468-.469v-1.406h3.758c.26 0 .469-.21.469-.469v-3.15a3.253 3.253 0 00-2.505-3.175zm-3.212-7.513c1.19 0 2.157.967 2.157 2.156v.163h-1.341a5.791 5.791 0 01-2.885-.77 2.16 2.16 0 012.07-1.549zm-2.156 3.827c.002-.048.003-1.26.003-1.26a6.73 6.73 0 002.97.69h1.34v.646a2.159 2.159 0 01-2.157 2.156 2.159 2.159 0 01-2.156-2.156v-.076zm-7.31-2.578a3.191 3.191 0 013.188-3.187 3.191 3.191 0 013.187 3.187v.061l-1.74-1.022a.469.469 0 00-.596.103 3.54 3.54 0 01-2.72 1.27H8.817v-.412zM3.56 10.09v-.116a2.16 2.16 0 012.157-2.156 2.16 2.16 0 012.069 1.55 5.792 5.792 0 01-2.885.77H3.56v-.048zm0 1.631v-.646h1.341a6.73 6.73 0 002.972-.692v1.338a2.159 2.159 0 01-2.156 2.156 2.159 2.159 0 01-2.157-2.156zm.657 9.227v.24H2.813v-2.083a.469.469 0 00-.938 0v2.082H.937v-2.682c0-1.08.735-2.01 1.786-2.262l1.486-.355.97 2.323a4.352 4.352 0 00-.962 2.737zm1.5-3.881l-.712-1.705.001-.034v-.596a3.092 3.092 0 001.418 0v.566a.447.447 0 00.002.07l-.71 1.699zm1.845-.36a4.413 4.413 0 00-.793.272l.457-1.093 1.486.356c.115.028.227.064.336.108l-1.486.357zm2.326-.977a3.254 3.254 0 00-.958-.4l-1.569-.376v-.614c.39-.246.722-.577.97-.966a4.15 4.15 0 001.557 1.666v.69zm3.28.696l-1.17 2.661-1.172-2.667v-.966a4.11 4.11 0 002.343.004v.968zm-1.163-1.738A3.191 3.191 0 018.817 11.5v-1.084h1.32a4.47 4.47 0 003.167-1.31l1.886 1.108v1.396a3.191 3.191 0 01-3.185 3.078zm2.101.36a4.155 4.155 0 001.57-1.666c.246.386.575.713.963.958v.614l-1.57.376a3.258 3.258 0 00-.963.403v-.684zm2.32 1.66l-1.483-.354c.112-.046.227-.084.345-.112l1.483-.355.458 1.098a4.416 4.416 0 00-.803-.277zm1.147-1.332a.487.487 0 00.003-.052v-.592a3.088 3.088 0 001.418 0v.621l-.715 1.714-.706-1.691zm5.49 5.812h-.938v-2.083a.469.469 0 00-.938 0v2.082h-1.414v-.237c0-1.027-.353-1.98-.958-2.733l.973-2.33 1.49.356a2.318 2.318 0 011.785 2.262v2.683z"/><path d="M10.76 10.977a.472.472 0 00-.664 0 .472.472 0 000 .663.473.473 0 00.663 0 .47.47 0 000-.663zm3.134 0a.472.472 0 00-.663 0 .472.472 0 000 .663.472.472 0 00.663 0 .47.47 0 000-.663zm-.992 1.578a.469.469 0 00-.663 0 .356.356 0 01-.503 0 .469.469 0 00-.663.663c.252.252.583.378.915.378.33 0 .662-.126.914-.378a.469.469 0 000-.663zm6.48-10.024h-.322a.469.469 0 000 .938h.322a.469.469 0 000-.938zm2.275 0h-.322a.469.469 0 100 .938h.322a.469.469 0 000-.938zm-1.299.977a.469.469 0 00-.468.468v.322a.469.469 0 00.937 0v-.322a.469.469 0 00-.469-.468zm0-2.275a.469.469 0 00-.468.469v.322a.469.469 0 00.937 0v-.322a.469.469 0 00-.469-.469zM2.64 2.531h-.322a.469.469 0 000 .938h.321a.469.469 0 000-.938zm2.274 0h-.322a.469.469 0 000 .938h.322a.469.469 0 000-.938zm-1.298.977a.469.469 0 00-.469.468v.322a.469.469 0 10.937 0v-.322a.469.469 0 00-.468-.468zm0-2.275a.469.469 0 00-.469.469v.322a.469.469 0 10.937 0v-.322a.469.469 0 00-.468-.469zM12 1.785a.469.469 0 00-.469.469v1.233a.469.469 0 00.938 0V2.254A.469.469 0 0012 1.785zm.331-1.648a.472.472 0 00-.662 0 .472.472 0 000 .663.472.472 0 00.662 0 .472.472 0 000-.663zM10.357 1.88l-.686-.685a.469.469 0 00-.663.663l.686.685a.467.467 0 00.663 0 .469.469 0 000-.662zm4.635-.711a.469.469 0 00-.663 0l-.71.709a.469.469 0 00.664.663l.709-.71a.469.469 0 000-.662z"/></g><defs><clipPath id="fa"><path d="M0 0h24v24H0z"/></clipPath></defs></symbol><symbol viewBox="0 0 24 24" id="headerBlock-icon-2" xmlns="http://www.w3.org/2000/svg"><path d="M22.577 10.546l-2.716-.607a8.08 8.08 0 00-.844-2.037l1.491-2.355a.461.461 0 00-.063-.573l-1.419-1.419a.462.462 0 00-.573-.063l-2.355 1.494a8.1 8.1 0 00-2.037-.846l-.607-2.717a.461.461 0 00-.45-.361h-2.008a.462.462 0 00-.45.36L9.937 4.14c-.72.19-1.403.474-2.036.846L5.547 3.492a.462.462 0 00-.574.063L3.555 4.974a.462.462 0 00-.064.573l1.492 2.355a8.083 8.083 0 00-.844 2.037l-2.717.607a.462.462 0 00-.36.45v2.008c0 .216.15.403.36.45l2.717.607a8.02 8.02 0 00.843 2.037l-1.49 2.355a.462.462 0 00.063.573l1.418 1.419a.463.463 0 00.574.064l2.355-1.492a8.08 8.08 0 002.037.844l.606 2.716a.463.463 0 00.45.361h2.009c.216 0 .403-.15.45-.36l.607-2.717a8.025 8.025 0 002.037-.844l2.355 1.492c.183.115.42.089.573-.064l1.419-1.419a.461.461 0 00.063-.573l-1.49-2.355a8.084 8.084 0 00.843-2.037l2.716-.607a.462.462 0 00.361-.45v-2.008a.462.462 0 00-.36-.45zm-.562 2.088l-2.635.589a.462.462 0 00-.35.35 7.173 7.173 0 01-.946 2.283.462.462 0 000 .493l1.447 2.286-.896.896-2.286-1.447a.462.462 0 00-.494 0 7.112 7.112 0 01-2.282.946.462.462 0 00-.35.35l-.589 2.635h-1.268l-.589-2.635a.462.462 0 00-.35-.35 7.173 7.173 0 01-2.283-.946.461.461 0 00-.493 0l-2.286 1.447-.896-.896 1.447-2.286a.461.461 0 000-.494 7.11 7.11 0 01-.946-2.282.461.461 0 00-.35-.35l-2.635-.589v-1.268l2.635-.589a.462.462 0 00.35-.35 7.171 7.171 0 01.946-2.283.462.462 0 000-.493L4.469 5.365l.896-.896L7.65 5.92a.461.461 0 00.496 0 7.187 7.187 0 012.283-.95.462.462 0 00.348-.35l.589-2.635h1.268l.589 2.635c.039.174.174.31.348.35.82.186 1.588.506 2.283.95a.461.461 0 00.496 0l2.285-1.45.896.895-1.447 2.286a.461.461 0 000 .493c.448.71.767 1.477.945 2.283a.462.462 0 00.35.35l2.636.589v1.268z"/><path d="M12.006 6.297a5.715 5.715 0 00-5.709 5.709c0 3.141 2.561 5.697 5.709 5.697a5.703 5.703 0 005.697-5.697c0-3.148-2.556-5.709-5.697-5.709zm0 10.482c-2.639 0-4.786-2.141-4.786-4.773a4.79 4.79 0 014.786-4.785 4.78 4.78 0 010 9.559zM2.307 6.923a.462.462 0 100-.923.462.462 0 000 .923zM5.538 2.77a.462.462 0 100-.924.462.462 0 000 .923zm9.692.46a.462.462 0 100-.922.462.462 0 000 .923zM8.77 21.692a.462.462 0 100-.923.462.462 0 000 .923zm12.46-.462a.462.462 0 100-.922.462.462 0 000 .923zM2.307 17.077a.462.462 0 100-.923.462.462 0 000 .923z"/><path d="M13.153 10.742v-1.05h.231a.462.462 0 100-.923h-2.769a.462.462 0 000 .923h.23v1.05c-1.78 2.878-1.68 2.708-1.702 2.755a1.218 1.218 0 001.104 1.734h3.506c.892 0 1.48-.927 1.104-1.734-.008-.016.078.123-1.704-2.755zm.6 3.566h-3.506a.295.295 0 01-.276-.4l1.729-2.791a.462.462 0 00.069-.243V9.692h.461v1.182c0 .086.024.17.07.243l1.729 2.79a.295.295 0 01-.276.4zM2.307 19.846a1.386 1.386 0 101.385 1.385c0-.764-.621-1.385-1.385-1.385zm0 1.846a.462.462 0 11.002-.924.462.462 0 01-.002.924zm18.231-18a1.155 1.155 0 000-2.308 1.155 1.155 0 000 2.308zm0-1.384a.231.231 0 110 .462.231.231 0 010-.462z"/></symbol><symbol viewBox="0 0 24 24" id="instagram" xmlns="http://www.w3.org/2000/svg"><path d="M11.999 7.377a4.624 4.624 0 100 9.248 4.624 4.624 0 000-9.248zm0 7.627a3.004 3.004 0 110-6.008 3.004 3.004 0 010 6.008zm4.807-6.719a1.078 1.078 0 100-2.156 1.078 1.078 0 000 2.156z"/><path d="M20.533 6.11A4.605 4.605 0 0017.9 3.48a6.607 6.607 0 00-2.186-.42c-.963-.042-1.268-.054-3.71-.054s-2.755 0-3.71.054a6.554 6.554 0 00-2.184.42 4.6 4.6 0 00-2.633 2.63 6.585 6.585 0 00-.419 2.186c-.043.962-.056 1.267-.056 3.71 0 2.442 0 2.753.056 3.71.015.748.156 1.486.419 2.187a4.61 4.61 0 002.634 2.632 6.583 6.583 0 002.185.45c.963.042 1.268.055 3.71.055s2.755 0 3.71-.055a6.616 6.616 0 002.186-.42 4.613 4.613 0 002.633-2.632c.263-.7.404-1.438.419-2.186.043-.962.056-1.267.056-3.71s0-2.753-.056-3.71a6.583 6.583 0 00-.421-2.217zm-1.218 9.533a5.046 5.046 0 01-.311 1.688 2.987 2.987 0 01-1.712 1.71c-.535.2-1.1.305-1.67.312-.95.044-1.218.055-3.654.055-2.438 0-2.687 0-3.655-.055a4.961 4.961 0 01-1.67-.311 2.984 2.984 0 01-1.718-1.711 5.08 5.08 0 01-.311-1.67c-.043-.95-.053-1.217-.053-3.653 0-2.437 0-2.686.053-3.655a5.038 5.038 0 01.311-1.687c.305-.79.93-1.41 1.719-1.712a5.01 5.01 0 011.669-.311c.95-.043 1.218-.055 3.655-.055s2.687 0 3.654.055a4.96 4.96 0 011.67.31 2.99 2.99 0 011.712 1.713 5.06 5.06 0 01.311 1.669c.043.95.054 1.218.054 3.655 0 2.436 0 2.698-.043 3.654h-.011v-.001z"/></symbol><symbol viewBox="0 0 16 16" id="search" xmlns="http://www.w3.org/2000/svg"><g clip-path="url(#ia)"><path d="M15.14 14.2l-2.667-2.667A6.667 6.667 0 107.333 14a6.587 6.587 0 004.227-1.52l2.633 2.667.947-.947zm-7.807-1.533A5.333 5.333 0 117.333 2a5.333 5.333 0 010 10.666z"/></g><defs><clipPath id="ia"><path d="M0 0h16v16H0z"/></clipPath></defs></symbol><symbol viewBox="0 0 16 16" id="telegram" xmlns="http://www.w3.org/2000/svg"><path d="M14.629 3.698l-2.012 9.618c-.152.679-.548.848-1.11.528l-3.066-2.29-1.48 1.442c-.163.166-.3.305-.616.305l.22-3.165 5.683-5.204c.247-.223-.054-.347-.384-.123L4.839 9.29l-3.024-.959c-.658-.208-.67-.667.137-.986L13.78 2.727c.548-.208 1.027.124.849.971z"/></symbol><symbol viewBox="0 0 16 16" id="viber" xmlns="http://www.w3.org/2000/svg"><path d="M8 1.335c-1.071.013-3.374.19-4.662 1.37-.958.948-1.292 2.35-1.331 4.084-.033 1.728-.072 4.973 3.058 5.856v1.346s-.02.538.337.648c.438.14.688-.275 1.105-.72l.778-.879c2.142.178 3.782-.232 3.97-.293.435-.139 2.883-.451 3.283-3.696.41-3.351-.2-5.463-1.301-6.418h-.007c-.332-.306-1.668-1.279-4.652-1.29 0 0-.222-.014-.578-.008zm.037.942a7.02 7.02 0 01.488.011c2.527.007 3.732.767 4.017 1.023.927.794 1.405 2.697 1.055 5.495-.332 2.713-2.317 2.885-2.685 3.002-.156.05-1.6.406-3.42.289 0 0-1.356 1.634-1.78 2.055-.067.074-.146.095-.196.085-.071-.018-.093-.107-.089-.229l.013-2.233c-2.655-.733-2.498-3.5-2.47-4.946.033-1.446.304-2.628 1.113-3.43 1.088-.982 3.043-1.115 3.953-1.122zm.2 1.446a.166.166 0 100 .332 3.136 3.136 0 012.242.883c.606.588.9 1.378.912 2.411 0 .092.074.167.167.167V7.51a.167.167 0 00.168-.165 3.588 3.588 0 00-1.009-2.646c-.66-.645-1.496-.977-2.48-.977zm-2.198.382a.523.523 0 00-.342.067H5.69a2.61 2.61 0 00-.637.523 1.003 1.003 0 00-.256.525.71.71 0 00.026.302l.01.006c.172.504.396.988.67 1.444a8.48 8.48 0 001.29 1.762l.015.022.024.017.015.018.017.015c.532.505 1.127.94 1.769 1.295.734.4 1.18.588 1.447.667v.004c.078.024.15.034.221.034.228-.016.444-.109.613-.262a2.53 2.53 0 00.517-.638v-.004c.128-.241.085-.469-.1-.623-.37-.323-.77-.61-1.195-.857-.285-.155-.574-.061-.69.095l-.25.315c-.129.156-.361.134-.361.134l-.007.004C7.093 8.527 6.63 6.772 6.63 6.772s-.022-.239.139-.36l.312-.252c.15-.122.254-.41.094-.695a7.498 7.498 0 00-.856-1.194.475.475 0 00-.28-.167zm2.486.495c-.221 0-.221.334.003.334A2.098 2.098 0 0110 5.572 1.94 1.94 0 0110.5 7a.168.168 0 00.167.165l.007.009a.169.169 0 00.167-.167c.015-.662-.191-1.218-.595-1.663C9.84 4.9 9.273 4.65 8.549 4.6h-.024zm.274.898c-.228-.006-.236.335-.01.341.55.029.816.306.851.877a.166.166 0 00.165.163h.007a.168.168 0 00.16-.178c-.039-.744-.445-1.164-1.166-1.202H8.8z"/></symbol><symbol viewBox="0 0 24 24" id="vk" xmlns="http://www.w3.org/2000/svg"><path d="M21.579 6.855c.14-.465 0-.806-.662-.806h-2.193c-.558 0-.813.295-.953.619 0 0-1.115 2.719-2.695 4.482-.51.513-.743.675-1.021.675-.139 0-.341-.162-.341-.627V6.855c0-.558-.161-.806-.626-.806H9.642c-.348 0-.558.258-.558.504 0 .528.79.65.871 2.138v3.228c0 .707-.127.836-.407.836-.743 0-2.551-2.73-3.624-5.853-.209-.607-.42-.852-.98-.852H2.752c-.627 0-.752.295-.752.619 0 .582.743 3.462 3.461 7.27 1.812 2.602 4.363 4.012 6.687 4.012 1.393 0 1.565-.313 1.565-.853v-1.966c0-.626.133-.752.574-.752.324 0 .882.164 2.183 1.417 1.486 1.486 1.732 2.153 2.567 2.153h2.192c.626 0 .939-.313.759-.931-.197-.615-.907-1.51-1.849-2.57-.512-.603-1.277-1.253-1.51-1.578-.325-.42-.231-.604 0-.976.001 0 2.672-3.761 2.95-5.04z"/></symbol><symbol viewBox="0 0 16 16" id="whatsapp" xmlns="http://www.w3.org/2000/svg"><path fill-rule="evenodd" clip-rule="evenodd" d="M12.269 3.755A5.947 5.947 0 008.035 2 5.994 5.994 0 002.05 7.985a5.98 5.98 0 00.799 2.992L2 14.077l3.173-.832c.877.477 1.86.728 2.86.728h.002a5.993 5.993 0 005.533-8.276 5.953 5.953 0 00-1.3-1.942zm-4.234 9.208h-.002c-.89 0-1.765-.24-2.532-.694l-.181-.108-1.883.494.502-1.835-.118-.188a4.965 4.965 0 01-.76-2.647 4.982 4.982 0 016.88-4.597c.604.25 1.152.618 1.613 1.081a4.946 4.946 0 011.455 3.52 4.982 4.982 0 01-4.974 4.974zm2.729-3.726c-.15-.075-.885-.436-1.022-.486-.137-.05-.236-.075-.336.074-.1.15-.387.486-.474.586-.087.1-.175.112-.324.038-.15-.075-.631-.233-1.203-.742a4.505 4.505 0 01-.832-1.036c-.087-.15-.009-.231.066-.306.068-.066.15-.174.224-.262.075-.087.1-.149.15-.249.05-.1.025-.187-.013-.262-.037-.075-.337-.811-.461-1.11-.121-.29-.244-.252-.336-.256a6.418 6.418 0 00-.286-.005.55.55 0 00-.4.186c-.137.15-.523.512-.523 1.248s.536 1.447.61 1.547c.075.1 1.055 1.61 2.555 2.258.358.154.636.246.853.315.358.114.684.098.942.06.287-.043.885-.362 1.01-.711.124-.35.124-.649.087-.711-.038-.063-.138-.101-.287-.176z"/></symbol></svg>