<svg width="1171" height="611" viewBox="0 0 1171 611" fill="none" xmlns="http://www.w3.org/2000/svg">
<g clip-path="url(#clip0_1_2)">
<path d="M32.8 367.2L23.4 354.8L28.9 339.1L24.2 335.1L20.7 337.6L6.9 328.2L4.7 331.8L5.2 342.7L0 348.2L1.5 356.8L10.7 356.3L20.5 368.6L27.8 372.9L28.2 372.4L32.8 367.2ZM1171 231.5L1169.6 231.2L1167.1 230.6H1166.9L1166.7 230.7L1160.5 233.1L1159.5 233.5L1160.3 234.3L1163.3 237.3L1163.8 237.8L1164.3 237.4L1170.1 232.6L1171 231.5ZM431.6 203.9L430.9 204.1L425.5 205.4L425 205.5L424.9 206L424 211.2V211.4L424.1 211.6L427.5 217.2L427.7 217.6H428.2L432.4 217.2L433 217.1V216.5L433.2 210.7V210.6V210.5L431.6 204.7V203.9ZM413.8 172.8L414 178.7L410.2 182.5L409.9 182.9L410.1 183.3L413.2 190.3L413.4 190.7H413.8L416.8 191.1L417 193.7V194.2L417.5 194.3L421.4 195.2L424 196.5L424.9 197L425 196L426.8 179L428.1 172.7L433.4 166.9L440 164.7L440.2 164.6L440.3 164.4L443 160.6L443.2 160.3L443.1 160L442.2 157.2L445.4 159.3L445.6 159.4H445.8L450.3 158.9H450.8L451.9 155.6L454.3 155.8L455 155.9V155.2L455.2 152.8L457.9 153.8L458.7 154.1L458.9 153.3L459.3 151.3L461 153.2L461.6 153.8L462.1 153.1L464.1 150.4L464.2 150.2V150L464.7 147.1L467.6 149.1L468.1 149.4L468.5 149L470.7 147L475.5 148L475.9 148.1L476.2 147.8L480.2 143.1L512.6 142.4H512.8L512.9 142.3L520.8 138L521.1 137.8V137.5L522 131.7V131.4L521.8 131.2L518.4 127.2L518.1 126.8L517.7 126.9L509.9 128.9L509.6 129L509.4 129.3L508.3 131.8L495.6 130.7L490 126L489.6 125.7L489.2 125.9L484.4 128.6L479.6 126.5L479.2 126.3L478.9 126.5L472.6 130.7H467.1L466.9 130.9L464.7 132.7L461.6 129.4L460.7 128.4L460.4 129.7L458.7 137L455.2 137.2H454.6L454.5 137.8L454.1 140.5L444.7 143.5L441.3 142L440.8 141.8L440.4 142.2L438.2 144.9L437.8 145.4L440.6 148.3L437.4 151.3L431.3 148.8L430.5 148.5L430.3 149.4L429.5 153.7L425.4 153.5H424.7V154.2L424.5 157.6L418.6 160.6L414.9 159.4L414.6 159.3L414.3 159.5L409.8 162.9L409.5 163.1V163.4L409.3 168.3V168.6L409.5 168.8L413.8 172.8ZM511.1 58.1L510.8 57.4L510.1 57.8L506.1 59.9L505.4 60.2L505.8 60.9L508.3 65.2L508.8 66L509.5 65.4L512.5 62.6L512.9 62.3L512.7 61.8L511.1 58.1ZM369.4 194.7L369.6 194.9H370L377.7 195.1H378.2L378.4 194.6L379.3 191.7V191.5V191.4L378.8 187.1V186.9L378.6 186.7L374.5 182.2L374.2 181.9L373.7 182.1L367.8 184.1L367.4 184.2L367.3 184.6L365.8 189.7L365.7 190.1L365.9 190.3L369.4 194.7ZM71.7 181.9L72 182.6L72.7 182.2L80.8 178L81.2 177.8V177.4L81.9 161.9V161.7L81.8 161.5L77.9 155.5L77 154.1L76.6 155.7L75.1 161.8L72.3 160L69.2 151.1L68.9 150.3L68.1 150.8L64.5 153.1L59.5 152.8H58.3L58.8 153.9L71.7 181.9ZM493.7 43.4L493.8 43.6L494 43.8L496.7 45.9L496.9 46.1H497.1L500.7 45.8L502.8 47.5L503.3 47.9L500.3 48.3H500.2H500.1L498.2 49.1L494.3 48L493.5 47.8L493.4 48.6L493.1 51.7V52L493.3 52.2L496.1 55L498.8 58.5L499.5 59.3L500 58.3L500.9 56.7L501 56.5V56.2L500.4 53.5L503.4 52.8L508.1 54.4L508.5 54.5L508.8 54.2L511.9 51.1L512.4 50.6L511.9 50.1L509.1 46.9L509 46.8L508.8 46.7L506.4 45.8L506 45.6L505.7 45.8L503.3 47.6H503.1L503.5 47.1L505 45.3L505.5 44.8L505 44.3L502 41.6L501.7 41.3L501.3 41.4L498.9 42.1L493.5 38.6L492 37.6L492.5 39.3L493.7 43.4ZM409.1 178.7L409.2 180L410.2 179.2L412.7 177.4L413 177.2V172.2L412.5 172.1L409.6 171.4L408.6 171.2L408.7 172.2L409.1 178.7ZM536.5 49.4L536.6 49.5L536.7 49.6L538.2 50.9L538.6 51.3L539 51L541 49.5L541.7 49L541.1 48.4L538.3 45.7L537.9 45.3L537.4 45.7L535.9 46.9L535.4 47.3L535.7 47.8L536.5 49.4ZM512.4 48.1L512.9 48.8L513.5 48.2L515.8 45.9L515.3 45.4L512.3 42.7L511.6 42L511.2 42.9L510.5 44.7L510.4 45.1L510.6 45.4L512.4 48.1ZM522 61.1L522.1 61.2L522.3 61.3L527.9 63.2L528.7 63.5L528.9 62.7L529.6 58.4V58L529.3 57.8L523.6 52.7L523.2 52.3L522.7 52.6L518.2 55.7L517.5 56.2L518 56.8L522 61.1ZM528.8 53.2L528.9 53.5L529.1 53.7L532.1 55.6L532.7 56L533.1 55.4L534.9 52.7L535.1 52.4L534.9 52L533.2 48.7L532.9 48.1L532.2 48.4L528.7 50.2L528.2 50.4L528.3 50.9L528.8 53.2ZM525.6 77.8L525.9 77.4L525.7 77L524.2 74.5L523.7 73.6L523.1 74.4L521.4 76.5L521.1 76.9L521.4 77.4L523 79.8L523.5 80.6L524.1 79.9L525.6 77.8ZM514.7 56.2L514 57.3L513.1 58.8L512.9 59L513 59.3L513.6 61.8L513.8 62.9L514.7 62.2L516.3 61L516.8 60.6L516.6 60.1L515.3 57.3L514.7 56.2ZM515.1 65.7L514.9 65.9L513.3 68.3L512.9 68.8L513.4 69.2L515.8 71.4L516.3 71.9L516.8 71.5L519.3 69.4L518.6 70.2L518.2 70.7L518.7 71.2L520.5 72.7L520.9 73L521.3 72.8L524.4 71.1L524.7 71L524.8 70.7L525.7 67L525.9 66.3L525.2 66.1L522.8 65.5L522.3 65.4L522.1 65.8L520.4 68L520.3 67.8L518.6 65.4L518.4 65L517.9 65.1L515.5 65.7H515.1ZM521.8 198.9L521.3 199L519.1 199.7L518.4 199.9L518.6 200.6L519.4 203.3L519.5 203.8H520L522.7 204.1L523.3 204.2L523.5 203.6L524 201.8L524.1 201.4L523.9 201.1L522.1 199.1L521.8 198.9ZM1145.9 478L1148 474.8L1148.2 474.6L1148.1 474.3L1147.2 470.6L1147.1 470.1H1146.6L1143.8 470H1143L1143.1 470.8L1143.3 473.3L1141.7 474.7L1138.3 478.3L1138.1 478.5V478.8L1138.3 487.3L1139.3 494.2V494.6L1139.6 494.8L1140.9 495.4L1141.8 495.9L1141.9 494.9L1142.4 491L1143.1 485.8L1143.3 481.8L1145.9 478ZM1136.1 499.2L1135.8 499L1135.4 499.2L1132.6 500.5H1132.5L1131 501.7L1130.6 502L1130.8 502.5L1132.1 506.7L1131.6 512.2V512.4L1131.7 512.5L1133 516.3L1133.2 517L1133.9 516.7L1135.3 516.1L1135.7 515.9V515.4L1136.3 505.7L1137.9 503.9L1138 503.7V503.5L1138.3 500.9L1138.4 500.5L1138 500.3L1136.1 499.2ZM1147.9 504.1V504L1147.8 503.9L1146.3 501.7L1145.8 501L1145.2 501.6L1143.7 503.1L1143.5 503.3V503.6L1143.4 506.1V506.3L1143.5 506.5L1144.4 508.6L1144.6 509.2L1145.2 509L1148 508L1148.6 507.8L1148.5 507.2L1147.9 504.1ZM1154.6 452.3V452.1L1154.5 452L1152.2 448.3L1151.7 447.5L1151.1 448.1L1148.4 450.8L1148.2 451V451.3L1148.3 456.9L1148.4 462.8L1148.5 465.5V466.2H1152.5L1152.7 465.7L1155 459.1V459V458.9L1154.6 452.3ZM733.1 520.1L730.4 522.6L730.3 522.7V522.8L729.4 524.4L729.2 524.6L729.3 524.9L730.2 527.8L729.2 530.5L726.5 531.2L726 531.3V531.8L725.8 535L722.2 540.9L716.8 542.6H716.6L716.5 542.8L713 547.6L709 547.3L708.4 547.2L708.3 547.9L707.2 554.1L704.2 557.5L694.3 561.9H694.2H687.8L686.7 559.4L689.3 557.9L693.3 557.3H693.5L693.6 557.2L701.7 551.6L701.8 551.5L701.9 551.4L704.8 547L710.8 541.6L711 541.5V541.3L712.3 537.3L715.8 531.3L720.1 524.7V524.6L723.8 514.4L724.1 513.4L726.3 506.9L726.9 505.2L727.3 504V503.9L728.8 494.2L731.2 490L734 490.3L734.5 493.7L733 502.4V502.5L733.6 511V511.1L734.9 515.6L733.1 520.1ZM236.8 197.8L233.5 201L227.8 207.5L227.7 207.6V207.8L226.2 213.3L226.1 213.7L223.6 216L218.6 215.8L216.7 213.8H218.3H218.5L218.7 213.6L221.3 211.5L221.5 211.7L221.7 211.2L221.9 211L221.8 210.9L222 210.5L222.7 208.5V208.3V208.1L222.2 202.3L224.3 198.2L232 190L236.2 191L237.5 193.4L236.8 197.8ZM206.1 183.8L204.1 186.1L203.9 186.3V186.6L204.1 191.2L203.5 195.2L200.5 197.4L200.4 197.5L200.3 197.7L199.5 199.9L193.7 200L191.4 196.5L191.2 196.2H185.3L184 194.6L193.6 183L193.8 182.8V182.5L193.5 176.6H193.6L198.1 175.7L203.9 176.5L206.1 179.7V183.8ZM1146.9 352.5L1146.8 351L1145.3 331.8V331.7L1143.2 322.9L1143.1 322.7L1143 322.5L1136.9 316.4L1137.4 307.6L1140.4 305.1L1140.9 304.6L1140.4 304.1L1129.7 291.6L1129.9 283.4L1134.3 278.6L1134.5 278.3L1134.4 277.9L1133.3 272.9L1133.2 272.5L1132.8 272.4L1123.9 269.8L1115 254L1116.2 253.2L1118.7 256.7L1119.1 257.2L1119.7 256.9L1124.3 254L1125.1 253.5L1124.4 252.9L1117.3 246.2L1116.9 245.9L1116.5 246.1L1113 248L1107.3 244.3L1107.2 244.2L1107.1 244L1104.3 237.2L1104.1 236.8H1096.7L1096.6 237.4L1095.9 241.1L1092.9 240.8L1080.1 215.3L1080.8 207.8L1085.5 206.8L1086.2 206.6L1086 205.9L1082.7 192.6L1089.3 197.8L1090.4 198.7V197.2L1090.6 179.1L1096.7 172.8L1106.2 172.6H1107.2L1106.8 171.6L1101.3 158.1L1098.6 128.9V128.3V128.2L1096.7 107.4V107L1096.4 106.8L1091.6 104.1L1104.3 95.4L1104.7 95.1L1104.6 94.6L1102.7 88.3L1102.5 87.8H1102L1076.7 85.7H1076.3L1076.1 86L1073.2 89.7L1066.6 90.3H1066.1L1066 91L1065.3 95.7L1061.1 95.4V89.1L1066.9 87.1L1067.2 87L1067.3 86.8L1069.8 81.6L1069.9 81.4V81.2L1068.6 67.6V67.2L1068.2 67L1065.7 66L1065.4 65.9L1065.1 66.1L1063.1 67.4L1062.9 63.7V62.7L1061.9 63L1056.5 65.1L1053 61.1L1054.2 55.2L1058.2 58.8L1058.7 59.2L1059.2 58.8L1061.6 56.9L1065.4 61L1066.2 61.8L1066.7 60.8L1069.2 55.1L1069.3 54.9V54.7L1068.8 48.2L1072.9 44.8L1080.6 45.5H1080.9L1081.1 45.4L1094.5 35.2L1095.1 34.8L1094.6 34.2L1092.6 31.8L1097.5 32.5L1098.3 32.6V31.7L1098.1 25.2V24.4L1097.3 24.5L1090.6 25.7L1088.7 21.6L1088.6 21.3L1088.2 21.2L1079.6 19.5L1082.7 15.6L1083.2 15L1082.6 14.6L1078.4 11.5L1082.2 8.8L1082.8 8.4L1082.3 7.8L1076.6 0.300003L1076.2 -0.199997L1075.7 0.100003L1059.4 9.7L1059.1 9.9V10.3L1058.2 18L1053.9 23.6L1053.3 24.3L1054.2 24.6L1063.6 28.4L1059.4 30.3L1042 25.6L1041.7 25.5L1041.5 25.7L1021 39.3L990.4 56L990.2 56.1L990.1 56.2L981.9 69.7L981.8 69.9V70.2L982.5 73.6L977.5 75H977.3L977.2 75.1L969.4 82.2L968.9 82.7L969.3 83.2L974.8 90.1L975.1 90.5L975.6 90.4L980.3 88.9L987.1 92.7L986.4 99.2L980.1 99.9H979.9L979.8 100L975.6 102.5L966.2 96.6L965.1 95.9V109.3L955.4 116.5L955.2 116.6V116.7L951.4 124L951.1 124.6V124.7L951 124.8L949.2 128.4L939.3 134L932 127.1L931.8 126.9H931.6L923.9 126.1H923.7L923.5 126.2L912.6 133.3H912.5L912.4 133.4L905 142.6L904.9 142.7V142.8L902.3 151.8L898 153.1L892.1 150.2L891.9 150.1H891.7L885.7 150.7H885.4L885.2 150.9L882.6 154.4L880.5 152.6L880 152.1L879.5 152.6L877.5 154.8L875.5 152.9L880.5 147.9L879 147.8L868.6 147H868.3L868.1 147.2L862.1 152.4L861.8 152.7L861.9 153.1L865 163.8L860.6 168V160.3H855.6L855.4 160.5L852.3 163.3L851.7 160.5L857.4 155.4L858.9 154L856.9 154.1L850.6 154.5H850.5H850.3L831.5 164.1L830.7 164.5L831.3 165.2L834.5 169.1L829.6 173.8L829.2 174.2L829.4 174.7L831.5 178.5L831.8 179.1L832.4 178.8L835.3 177.4L835.6 181.9V182.1L835.7 182.3L839.6 186.8L833.6 188.3L833.3 188.4L833.2 188.6L831.1 191.5L830.9 191.8L831.1 192.2L832.7 195.9L828 196.7L820.5 194.5L819.8 194.3L819.6 195L817.5 203L805.1 200.8L804.3 200.7V219.9L796.1 218.6L782 206.8L786.5 203.7L787 203.3L786.6 202.7L778 189.9L777.9 189.7L777.7 189.6L772.1 186.9L771.9 186.8L771.6 186.9L763.4 189.7L754.2 186.1L753.3 185.8L753.2 186.8L751.9 201L735.6 208L729.8 204.1L730.6 201.1L730.8 200.2H729.8L712.4 200H712.1L711.9 200.3L707.3 206.4L707.2 206.5V206.6L706.9 207.7L706.3 204.7V204.5L706.1 204.3L702.8 201.4L702.3 200.9L701.8 201.4L698.1 205.4L693.3 207.8H693.2L692.9 207.9L692.5 208.1L692.1 208.3L687 210.8H686.9L681.3 215.1L673.6 217.3L673.3 217.4L673.2 217.6L671.5 220.5L671.6 215.9L687.3 199.6H687.4V199.5L696.2 183.5V183.4L700.2 169.2L700.3 168.8L700 168.5L687.8 154.5L687.6 154.3H687.3L675.8 153.9H675.4L675.2 154.2L671.3 159.7L668.2 160.2L671.2 151.5L671.5 150.7L670.6 150.6L662.4 149.6L664.8 146.1L665.2 145.6L664.7 145.2L659 140.4L658.7 140.2L658.3 140.3L653.1 142.2L652.9 142.3L652.8 142.5L644.6 154.7L644.4 155L644.5 155.3L646.2 161.8L638.3 162.3H637.6L637.7 163L637.9 165.3V165.5L638 165.6L640.2 168.9L635.6 167.9L635.2 167.8L634.9 168L631.9 170.8L625.4 169.6L624.6 166.8L624.4 166.3H624L613.7 166.5H613V167.2L613.2 172.5L601.4 174.2H601.2L601.1 174.3L592.8 180.9L586.6 181.1H586.3L586.1 181.3L581.3 185.5L581.1 185.7L581 185.9L578.9 194.5L578.8 194.8L578.9 195L582.5 201.5L577.4 202.7L561.3 200.1L551.9 199.9H551.5L551.3 200.3L548.4 205.5L548.3 205.6V205.8L547.9 219.2V219.5L548.1 219.7L554 225.4L556.4 231H549.7L542.8 218.1L542.6 217.7H542.1L536.9 218H536.6H536L532.2 218.2H531.7L531.5 218.7L529.9 224.5L524.4 219.5L523.5 218.7L523.2 219.8L521.5 225.8L521.4 226.2L521.7 226.5L528.2 233.6L528.4 238L517.7 228.4L517.3 222.1L522.3 216L522.4 215.8V215.6L523.2 205.4L523.3 204.2L522.2 204.7L520.1 205.7L519.8 205.8L519.7 206.1L517.3 212.8L513.7 216L509.8 217.1H509.6L509.4 217.3L505.6 223L505.5 223.2V223.4L505.7 238.3L496.4 252.9L496.3 253.1V253.3L496.9 262.3V263H506.8L514.3 272V280.5L508.9 287L508.6 287.4L508.8 287.8L510.3 290.9L510.4 291.1L510.6 291.2L513.4 292.8L507.6 294.2L505.5 286.5L511.5 276L511.7 275.8L511.6 275.5L508.9 267.4L508.8 267H508.3L498.9 265.6H498.5L498.3 265.8L493.1 270.8L492.9 271V271.3L492.3 282.3L484 290.8L476.3 293.6L476.1 293.7L476 293.8L471 299.1L453.9 288.5V284.6L464.9 289.7L465.2 289.8L465.5 289.7L471.8 287.2H471.9L482.1 280.7L482.3 280.6L482.4 280.4L489.3 266.6L489.4 266.4V266.2L488.3 258.9L499.9 231.3V231.2L501.2 226.4V226.2V226L499.9 220.1L507.3 213.1L507.5 212.9V212.7L509 202.5V202.2L508.8 202L503.6 195.1L508.5 194.5L509.2 194.4L509.1 193.7L508.2 186.3L508.1 185.7H507.5L501.5 185.2H500.8L500.7 185.9L500.3 191.3V191.5L500.4 191.7L501.1 193.4L498.8 192.5L498.4 192.4L498.1 192.6L492.4 197L492.3 197.1L485.4 205.8L480.2 210.8L472.3 212.7H472.1L472 212.8L467.8 216.8L467.3 217.2L467.7 217.7L471.6 222.9L467.4 230.5L461.4 232.3L460.9 232.5V233L460.7 235.9V236.2L460.9 236.4L466.1 241.8L464.4 246.8L464.3 247V247.2L465.3 250.7V250.8L465.4 250.9L467.1 253.5L461.1 259L459.3 256.2L457.4 248.1V248L457.3 247.9L449.8 235.9L449.6 235.6L449.4 235.3L445.8 228.6V228.5H445.7L436.1 218.1L435.9 217.9H427.7L427.6 218.5L426.6 222.7V222.8L426.4 228.8L421.8 231.5L419.2 231L418.7 230.9L418.5 231.3L417 233.5L414.6 231.6L418.2 228.3L418.4 228.1V222.9H417.7L404.3 222.7L397.8 217.8L397.6 217.6H397.3L387.4 218.5L384.7 214.9L389.6 214.4H390L390.2 214L393.5 207.7L393.9 206.9L393 206.7L384.8 204.8L384.4 204.7L384.1 205.1L380.9 208.9L379.5 206.4L379.4 206.1H379.1L358 200.9L357.6 200.8L355.1 203.3L352.5 200.9L352.1 200.5L351.6 200.7L340.9 206.9L335.9 202L337.5 197.5L337.6 197.3L337.5 197.1L336 192.8L341.9 190.8L347.9 195L348.5 195.4L348.9 194.7L351.9 189.7L352 189.5V190L351.8 181V180.8L351.6 180.6L343.2 171.4L342.3 170.4L342 171.6L339.6 180.3L328.3 187.6L328.1 187.8V188.1L327.1 193.6L322.1 198.1L321.8 198.4L321.6 198.6L321.3 198.9L316.2 203.5L314.4 200.2L317.3 199.6L318.3 199.4L317.8 198.6L313 189.6L312.8 189.1L312.3 189.2L305.2 190.3L298.1 187.8H297.9H297.7L288.7 189.1H288.3L288.1 189.5L283.4 201.2L280.7 199.6L275.7 187.9L276.4 178.7L276.5 177.8L275.6 177.9L267.2 178.9H266.7L266.6 179.4L264.3 187.4L264.2 187.8L264.4 188.1L267.7 192.1L265 195.7L260.3 193.1L259.4 187L259.3 186.5V186.2L258.9 183.2L259.4 180.6V180.3L259.2 180.1L257 177L259.1 173.2L266 164.6L271.7 162.8L271.9 162.7L272 162.5L275.5 156.5L275.6 156.4V156.2L276.9 147.6V147.4L277.1 146.6L278.4 138.5L279.6 140.1L278.6 146.7V146.9L278.7 147.1L281.5 153.1L282.2 163.1V163.3L282.3 163.5L286.2 169.5L287.2 175.7V176L287.5 176.2L302.4 185.2L302.6 185.3H302.8L312 183.6H312.3L312.5 183.4L319.4 174L319.5 173.9V173.8L321.4 163.8V163.6V163.5L318.4 151.7L318.8 134.5V134.4V134.3L316.9 128V127.9V127.8L312.2 120.3L312 115L313.2 114.3L315.7 117.8L316.1 118.4L316.7 118L319.6 116.1L320.1 115.7L319.8 115.2L317.1 110L317 109.8L316.8 109.7L306.6 102.8L306.5 102.7H306.3L291.7 101.4H291.5L291.3 101.6L288.4 103.7L281.2 107.9L280.8 108.1L281 114.1L276.3 121.6L266.9 121.8H266.5L266.3 122.1L263.2 126L263 126.3L262.8 126.6L262.7 126.8L254.8 136.8L251 136.6H250.8L250.6 136.8L245.4 140.3L241.8 140.1H241.3L241.1 140.6L239.6 144.4L237.9 147.5L234.5 150L234.8 150.5L236.3 153.3L234.8 154.8L228.1 153.7L227.5 153.6L227.3 154.2L225.4 160.9V161L224.2 170.7L220.5 172.2L201.9 169.7H201.8L193.3 170H193H192.6L186.3 170.2H186H185.9L178 173L177.5 173.2V173.7L177.1 180V180.1V180.2L177.8 182.6L176.6 183.6L175.2 180.1L175 179.7H174.5L171.7 179.5L167.1 175.1L166.7 174.7L166.2 175L160.4 178.7L156.6 179.1L155.8 179.2L152.1 179.6H151.9L151.8 179.7L145.8 184.3L145.7 184.4V184.5L142.5 189L136.2 188.7H135.8L135.6 189.1L131.7 195.5L127.3 196L126.7 196.1V196.7L126.5 201.5L119.7 205.9L119.4 206.1V206.5L119.8 213.2V213.4L119.9 213.6L122.4 216.8L119.5 220.4L119.3 220.7L119.4 221L120.1 224.2L120.2 224.6L120.6 224.7L124.8 225.7L125.6 229.8L124.3 232.2L124.2 232.4L124 232.8L123.9 233.1L123.2 234.2L117.1 237.7L117 238L116.9 238.2L113.6 243.4L110.1 250.5V250.6V250.7L109.7 256.4V256.5V256.6L110.6 259.7L108.4 262.4L108.2 262.6V262.8L108 264.9L103 264.5L99.6 261.3L100 258.2V257.5L99.4 257.4L95.8 256.7L95.2 256.6L95 257.1L93 262.1L85.5 268.5L85.2 268.8V269.2L85.8 273.4L85.9 274.1H86.6L90.3 273.9L93 276.1L94.1 281.2L94.3 281.8L94.9 281.7L98.2 281.3L101.5 281.9V283.8L96.7 290.2L96.4 290.6H96.2H96.1H95.9L92.7 292L92.5 292.1L92.4 292.3L91 295.1L89 295.6L88.5 295.7V296.2L88.3 300V300.4L88.7 300.6L91.6 302.3L90.9 309V309.2L90.8 309.3L88.1 312.8L86.8 314.9L86.6 315.1V315.3L87.2 318.2L87 319L87.3 319.1L89.8 320.3L89.4 324.2V324.6L89.7 324.8L96.7 329.2L96.9 337.3V337.5L97 337.6L102.7 348.5L102.8 348.7L103 349.2L104.5 352.1L104.3 358.6V359.3V359.6V360.8L99.1 360.6H98.7L98.5 360.9L96.4 364.1L93.7 364.5H93.4L93 365L89.5 371.3L84.1 373.3L80 367.2L79.8 367H79.5L69.1 365.7H68.8L68.6 365.9L63.8 370.9L63.2 371.6L63.9 372.1L73.3 377.7L71.5 378.9L66.5 375.9L66.1 375.7L65.7 376L62.7 378.3V378.2L62.6 378.1L62.5 378L55.5 371.6L54.5 370.7L54.4 372.1L53.5 380.3L50.6 378.8L50.4 378.7H50.2L42.9 379.1H42.6L42.4 379.3L40.4 381.9L35.6 373.8L35.1 373L34.5 373.6L30.3 377.4L30.1 377.6V377.9L30.5 384.3L28.6 386.6L28.3 386.9L28.4 387.3L29.4 390.4L29.6 390.5L32.4 392.5L32.2 397V397.1V397.2L33.9 404.8L33.3 411.8L32 423.5V423.8L32.2 424L33.7 426.1L34 426.6L34.5 426.4L37 425.3L38.7 428.1L39 428.6V428.7L43.6 436.4V441.2L43.8 441.4L48.5 446.6L49 447.1L52.9 451.4L53.1 457.3V457.5L53.2 457.7L54.4 459.6L54.5 459.7V459.9L54.8 466.5V466.9L55.2 467.1L62.5 470.6V471.3V471.5V471.8V472.3L62.6 473.7V474L62.9 474.2L64.9 475.7L65.1 475.8V476L66.5 479.6L67 482.3H66.9L64.9 484.3L64.7 484.5V484.8L65.1 490.6V490.8L65.2 491L70.4 498.5L70 506.2L69.1 509.9L69 510.2L69.2 510.5L74 516.5L74.3 516.9L74.8 516.7L77.1 515.7L77.3 515.6L77.4 515.4L78.4 513.7L80.6 514.9H80.7L83.8 515.9L84.1 516L84.4 515.8L88 513.5L88.3 513.3V502.8L90.8 488.7L99.8 480L100 479.8V479.5L100.8 470.3V470.2V470.1L100 466.5L104.1 463.4L104.2 463.3H104.3L110.3 463.4H110.5L110.7 463.3L116.4 460.7L116.5 460.6V460.7L116.7 460.8L122.7 463H122.8H122.9L139 462.6H139.8L139.6 461.8L138.4 456.2L141.7 455.5L142.2 455.4L142.3 454.9L145.3 437.6L145.4 437.3L145.2 437.1L142.5 433.5L142.3 433.3H142.1L138.7 432.5L139.1 430.1L143.9 425.6L144.4 425.2L144 424.7L140 419.2L141.4 418.4L144.2 417.2L144.5 417.1L144.8 417L151.3 414.9L151.7 414.8L151.8 414.4L152.7 409.7L157.9 406.8L163.8 405.3L165.9 404.6V404.7L169.3 407.9L169 411.3L168 414.3L167.9 414.6L168.1 414.8L170.2 418.6L170.5 419.2L171.1 418.9L175.3 417L175.5 416.9L175.6 416.7L177.7 412.6L179.8 410.3L185.4 411.3L185.7 411.4L185.9 411.2L189 408.7L190.8 408.5L192.3 409.7L192.5 409.9H192.7L198.7 409.5H198.8L203.2 408.3L205.7 407.8L205.5 411.8V412V412.2L207.8 417.7L208 418.2L208.6 418.1L211.3 417.6H211.5L211.6 417.5L213.2 416.1L216.4 417.6L216.2 419.7L215.1 422.1L214.9 422.5L215.2 422.8L216.6 424.3L216.7 424.4L216.9 424.5L220.4 425.7L221.9 430.7L223.4 437.2L221.8 441.2L221.7 441.5L223.6 445.2L223.9 445.9L224.6 445.5L228.7 443L230 443.4L231.2 445.9L232.2 450.8V451L232.4 451.2L235.3 453.3L235.7 453.6L236.1 453.3L239.3 451.1L242.2 451.3L247.7 453.8L247.5 456.2V456.4L247.6 456.6L248.9 458.9L249.1 459.1L249.4 459.2L252.5 459.8L252.9 459.9L253.2 459.6L255.2 457.4L257.4 459.6L257.5 459.7L260.5 461.5L259.8 466.4V466.5V466.7L260.6 469.7V469.9L260.7 470.1L264.2 473.9L264.3 474L264.5 474.1L267.4 475.1L267.7 475.2L267.9 475L270.5 473.5L272.2 474L273.8 477.2L273.9 477.4L274.2 477.5L281.3 479.8L281.7 479.9L282 479.7L285.1 477.4L285.2 477.3V477.2L288.3 472.8L288.5 472.5L288.3 472.1L282.8 460.2L282.7 460L284.7 457.4L291.6 456.9H292.2L292.3 456.3L292.8 451.5L295.7 449.9L298.9 450.1L303.1 453.4L303.6 453.8L304.1 453.3L306.8 450.8L307.2 450.4L306.9 449.9L303.7 444.6L302.3 439.7L305.5 436.3L308.2 435.5L312.9 440.5L313.1 440.7H313.4L323.7 441.4H324L324.3 441.5L335 444L341 447.8L341.4 448L341.8 447.7L345 445.1L350 447.7L350.1 447.8H350.2L368.2 451.3H368.4L368.6 451.2L375.2 448.2L375.4 448.1H375.6L380.6 448L384.8 455.1L385 455.4L385.3 455.5L388.9 456H389.3L389.6 456.1L391.9 456.7L392.1 460.9L390.6 462.6L390.3 462.9L390.4 463.3L391.4 466.3L387.8 470.4L387.6 470.6L387.7 471L388.5 474.2L388.6 474.7L389.1 474.8L396.8 476.6L397.1 480.5V481.1H397.7L401.7 481.3L404.5 482L406.9 484.7L403.1 487.9L402.9 488.1V492.4L403.8 492.2L407.9 491L411.5 493L411.7 493.1L412 493L415.5 492.3H415.7L415.8 492.2L418.5 489.9L426.5 488.4H426.9H427.2L435.5 488.6L432.6 491.7L432.2 492.1L432.4 492.6L440.7 506.3L440.8 506.5V506.7L450.1 551.2L450.2 551.9L450.9 551.8L455.9 551.1H456.2L456.4 550.9L459.5 546.4L461.9 547.4L462.8 552.2L462.9 552.5L463.2 552.7L473.7 558.4L474 558.6L474.3 558.5L482.3 555.5L486.2 557.2L489.2 563.5L489.3 563.7V563.9L490 570.5V570.9L490.3 571.1L496.1 574.3L496.3 580.4V580.9L496.8 581L502.7 582.3L505 585.2L505.4 585.7L505.9 585.4L512 582.2L513.1 586.1V586.2V586.3L517.5 592.8L517.7 593H518L524.9 593.8H525.4L525.6 593.3L527.5 589.1L536.2 588.7H536.4L536.6 588.6L542.7 584.1L542.9 583.9L543.1 583.8L567.7 574.6L576 574.1L577.3 576.1L577.5 576.3H577.8L590.5 579.1L591.4 584.6L591.5 585L591.8 585.2L596.8 587.7H596.9H597L611 589.2L616.3 590L619 592.5L619.3 592.8L619.7 592.6L624.1 591.1H624.2L624.3 591L628.3 587.5L628.4 587.4V587.2L631.3 580.1L631.5 579.7L631.3 579.4L626.7 573.9L627.2 565.9L629.8 565.1L630.3 565V564.5L630.5 561.1L633.9 560.9H634.4L635.6 556.4L651.6 562.9L666.1 566.3L669.1 577.8L669.2 578.1L669.5 578.2L680.4 583.9L680.6 584H680.8L688.5 583.8H688.7L688.9 583.7L699.6 577.4L707.8 580H707.9H708L716.4 579.5L718.5 583.1L718.7 583.4H719.1L724.2 583.6H724.8H724.9L727.7 583.7L730.7 589.5L730.9 589.8H731.3L756.4 592.1H756.6L756.8 592L773.5 581.9L778.7 581.7H779.2L779.3 581.2L781 575.8L788.9 568.4L799.8 567.9L803 570.9L803.5 571.4L804 570.9L808.5 566.7L828.5 569.9L829.1 570L829.3 569.5L832.1 561.8L838.8 557.1L839.3 556.8L839.1 556.3L836.3 549.4L839.3 530.7L844.3 525.7L844.6 525.4L844.4 525L841 515.8L840.8 515.4H840.3L834.1 514.7L838.7 506.2L847.7 500L847.9 499.8L848.2 499.6L861 493L870.7 496.4H870.9H871.1L882.8 494.6L900.2 511.8L922.1 534.4L922.4 534.7L922.8 534.5L931.2 531.2L936.3 533.5L936.6 533.7L936.9 533.5L940.5 531.7L947.5 533.9H947.7H947.9L951.8 533.4L957.5 542.4L957.6 542.5L957.7 542.6L963.8 548L964.2 548.3L964.6 548.1L977.6 541.8L977.8 541.7L977.9 541.4L979.6 536.2L989.2 525.5L994.2 523.2L999.1 531.2L997.3 537V537.2L997.4 537.4L1000.5 546.3V546.5V546.7L999.8 569.1V569.3L999.9 569.5L1003.4 575.4L988.8 576.6H988.4L988.2 577L983 588.3L982.8 588.7L983.1 589.1L997.5 603.8L997.8 609.1L997.9 610.6L999 609.6L1006.9 602.1L1020.4 602.3H1020.7L1020.9 602.1L1030.9 594.1L1031 594V593.8L1036.9 581.9L1037 581.8V581.7L1039.9 549.1L1043.9 532.1V532V531.9L1041.2 512V511.7V511.4L1043 488.8V488.6V488.5L1040.5 481.4L1029.4 458.7V458.6H1029.3L1025.8 454.3L1022.6 438.6V438.5L1020.9 434.4L1030.2 439.4L1033.7 448.8V448.9L1033.8 449L1039.3 456.1L1046 466.8L1050.8 474.7L1050.9 474.8L1051 474.9L1056.4 479L1058.1 483.8L1059.6 488.2L1059.7 488.5L1059.9 488.6L1066.5 491.7L1067.4 498.2V498.4L1067.5 498.5L1074.6 507.5L1075.8 508.9L1075.9 507.1L1076.5 499.3V499.2V499.1L1075.7 493.9L1080.5 493.6H1080.7H1080.8L1082.6 492.8L1087.5 495.3L1089.4 496.3L1088.5 494.3L1084.3 485.5L1084.1 485.1H1077.6L1071.3 482.3L1064.1 477.1L1059.3 465L1056.8 457.7L1061.9 454.8L1072.5 454.3L1074.6 454.2L1072.8 453L1048.7 436.7L1031.8 421.5L1024 406.8L1023.9 406.6L1023.8 406.5L1013.1 399.1L1008.2 392.9L1007.9 392.4L1007.4 392.6L1004 394.1L1003.7 394.2L1003.6 394.6L1002.8 398.2L1002.7 398.7L1003.1 399L1009.3 403.3L1012.4 407.9L1011.1 409.6L1008.5 408.9L1007.8 408.7L1007.6 409.4L1006.6 413.8L1006.5 414.2L1006.9 414.5L1012.9 419L1018.2 431.2L1011.2 428.3L1008.7 425.3L1011 420.8L1011.3 420.1L1010.6 419.8L1004.5 417.3H1004.4L991.5 415H991.3L991.1 415.1L981.2 420.3L980.9 420.5L980.8 420.8L977.7 434.5L974.4 430.3L973.8 429.6L973.3 430.3L969.3 435.4L965.7 424.9L965.4 424.1L964.7 424.6L956.5 429.6L950.3 428.6L950.6 422.6L959.8 399.7V399.6V399.5L962.1 376.6L964.8 365.5V365.3V365.1L962.6 356.1L965.6 348.1L965.7 347.9V347.7L964.4 339.2L983.2 320.8L989 321.8L989.7 321.9L989.9 321.3L990.5 319V318.7L990.3 318.5L989 316.4L991.1 315L991.3 314.9L991.7 314.6L996.8 311.2L1000.1 308.4L1004.7 307.3L1005.3 307.2L1005.2 306.5L1003.7 297.3L1011.6 294.8H1011.8L1011.9 294.7L1018.2 289.1L1022.5 289L1018.9 294.2L1018.5 294.7L1019 295.2L1023.2 298.8L1023.7 299.3L1024.1 298.8L1030.3 291.9L1030.4 291.7V291.5L1031.9 281L1037.1 279L1037.3 278.9L1037.4 278.8L1041.8 273L1042.2 272.5L1041.7 272L1037.1 268.5L1036.6 268.1L1036.1 268.6L1032.6 273L1029.2 269.7L1028.1 250.3V250.2V250.1L1024.5 238.5L1025.6 230.2L1032.4 220.5L1036.1 220.3H1036.6L1036.8 219.8L1038.2 215.4L1045.7 225.6L1045.9 225.9H1046.3L1052 224.9L1052.5 224.8L1052.6 224.3L1053 220.1V220V219.9L1051.6 211.2L1050.1 205.1L1053.6 201.8L1054.1 201.3L1053.7 200.8L1044.2 189.4L1046.3 182.4L1053.3 180L1049.5 185.7L1049.3 185.9V186.2L1050.5 191.9V192.1L1050.7 192.3L1058.2 197.5L1058.4 197.6H1058.6L1061.4 197.8L1061.2 202.5V203.1L1061.8 203.2L1064.4 203.8L1061.4 218.5V218.7L1061.5 218.9L1064.9 224.5L1066.1 242.2L1068.8 253.7L1072.3 264.8L1068.4 269.1L1068.1 269.4L1068.2 269.8L1069.4 273.8L1067.3 276.6L1066.9 277.1L1067.3 277.5L1073.1 284.2L1074 294.9V295.1L1074.2 295.3L1082.4 304.5L1082.9 305L1092.1 315.4V315.5H1092.2L1145.1 351L1146.9 352.5ZM1158.9 429.2L1158.8 428.9L1158.5 428.8L1155.5 427.9L1155.1 427.8L1154.8 428.1L1152.5 430.5L1152.2 430.8L1152.4 431.2L1154.2 436.1L1154.4 436.7L1155 436.5L1160.3 435.1L1161.1 434.9L1160.9 434.2L1158.9 429.2ZM1139.1 356.5L1138.5 356.9L1135.3 358.9L1134.9 359.1L1135 359.6L1135.5 361.8V362.1L1135.7 362.2L1138.6 364.1L1139.4 364.6L1139.7 363.8L1141.1 360.3L1141.2 360L1141 359.7L1139.4 357.1L1139.1 356.5ZM1158.8 237.9L1158.6 237.6H1158.3L1152 236.9H1151.9H1151.8L1146 238.3L1145 238.5L1145.5 239.4L1147.7 242.8L1147.9 243L1148.2 243.1L1156.7 244.4H1156.9L1157.1 244.3L1160.6 242.5L1161.3 242.2L1160.9 241.5L1158.8 237.9ZM1093.1 213.6H1093L1090.2 213.2L1089.6 213.1L1089.4 213.7L1087.2 220.4L1087.1 220.8L1087.4 221.1L1095.9 230.6L1097 231.8L1097.1 230.1L1098.3 216.4V215.9L1097.8 215.7L1093.1 213.6ZM693.6 200.1H693.1L690.1 200H689.7L689.5 200.3L687.8 203V203.1V203.2L687.4 204.9L687.3 205.2L687.5 205.4L688.9 207.2L689.3 207.7L689.8 207.4L694.7 204.4L695.2 204.1L695 203.6L693.9 200.6L693.6 200.1ZM270.8 170.9L270.6 170.8L269.1 169.6L268.6 169.2L268.1 169.8L266.9 171.4L266.8 171.5V171.7L266.6 173.3V173.6L266.8 173.8L268.3 175.4L268.7 175.9L269.2 175.6L271.2 174.3L271.6 174L271.5 173.5L270.9 171.2L270.8 170.9ZM1148.1 378.9L1147.2 378.5L1147.1 379.4L1146.6 382.7V382.9L1146.7 383.1L1148.2 386.4L1148.5 387L1149.2 386.7L1153.3 384.8L1153.6 384.7L1153.7 384.4L1154.2 382.2L1154.4 381.6L1153.9 381.4L1148.1 378.9ZM1149.5 372.2V371.7L1148.8 363V362.7L1148.6 362.5L1146.1 360.2L1146 360.1H1145.8L1143.1 359.3L1142.3 359.1L1142.2 360L1141.4 368.9V369.1L1141.6 369.3L1145.1 373.8L1145.4 374.3L1145.9 374.1L1149.1 372.6L1149.5 372.2ZM1155.5 405.4L1155.3 405.1H1154.9L1153.1 404.9L1152.6 404.8L1152.4 405.3L1150.9 408.2L1150.7 408.6L1150.9 408.9L1153.2 412.2L1153.7 412.9L1154.3 412.3L1157.1 409.6L1157.5 409.2L1157.3 408.7L1155.5 405.4ZM1146.6 353.5L1146.1 353.1L1145.6 353.6L1144.3 354.8L1144.1 354.9L1144 355.1L1143.6 357.2L1143.4 357.8L1144 358L1147.2 359.2L1147.6 359.4L1147.9 359L1149.6 357.2L1150.1 356.7L1149.6 356.2L1146.6 353.5ZM1154.3 418.2L1154.1 418.7L1152.7 421.6L1152.5 421.9L1152.7 422.2L1154.2 424.7L1154.5 425.2L1155 425L1157.2 424.2L1157.6 424.1L1157.7 423.6L1158.2 419.5L1158.3 418.9L1157.7 418.8L1154.9 418.1L1154.3 418.2ZM499.9 59.6L499.7 60.3L499.1 62.4L498.9 62.9L499.4 63.2L501.6 64.5L502.6 65.1V63.9L502.8 61.1V60.6L502.3 60.4L500.5 59.8L499.9 59.6ZM663.6 133.6L663.7 134.1L664.2 134.2L669.5 135.4L670.5 135.6L670.4 134.6L670.2 132.6V132.3L669.9 132.1L664.6 128.9L663.8 128.4L663.6 129.3L663.2 130.5V130.7V130.9L663.6 133.6ZM638.4 133.1L638.5 133.4L640 139L640.3 140L641.1 139.3L647.6 134.1L654.4 133.6H654.6L658.5 129.7L658.7 129.5V129.3L659.2 120.7V120.5L659 120.3L655 115.3L654.5 114.7L653.9 115.2L651.1 118L650 116.8L650.2 112V110.8L649.1 111.4L643.4 114.5L643 114.7V115.1L642.2 125.7L638.2 132.9L638.4 133.1ZM697.8 189.5L697.6 190L695.9 194.3L695.7 194.8L696.1 195.1L700.6 198.6L701.2 199.1L701.6 198.4L703.6 195.2L703.7 195.1V195L704.4 192.4L704.5 191.9L704 191.6L701.5 190.1L701.4 190H701.3L698.3 189.5H697.8ZM539.7 62.7L539.2 62.2L537 60.1L536.4 59.6L535.9 60.2L533.7 63L533.2 63.7L534 64.1L536.7 65.4L537.2 65.6L537.6 65.2L539.4 63.1L539.7 62.7ZM617.9 81L619.1 81.2L618.8 80.1L617.1 74.7L616.9 74.2H616.4L611.4 74.3H610.8V74.9L610.3 78.9L610.2 79.6L610.9 79.7L617.9 81ZM784 139.4V139.6L784.1 139.8L788 144.3L788.3 144.7L788.8 144.5L791.2 143.5L791.9 143.2L791.5 142.5L788.6 137.2L788.5 137L788.3 136.9L784 134.3L782.6 133.5L782.9 135.1L784 139.4ZM621.9 156.3L621.4 157.2L620.1 159.8L620.4 160.2L621.7 161.6L622.2 162.1L622.7 161.6L624.4 160.1L624.9 159.6L624.4 159.1L622.5 157.1L621.9 156.3ZM626.5 155L626.9 154.8L628.9 153.6L629.5 153.3L629.2 152.7L627.7 149.7L627.4 149L626.7 149.4L623.3 151.6L622.4 152.1L623.2 152.7L625.9 154.7L626.5 155ZM790.7 135.4V135.6L790.8 135.8L793.8 139.5L794.9 143.7L795 144.1L795.4 144.2L801.7 146H801.8H801.9L807.7 145.5H808.4L808.3 144.8L807.9 139.5L811.2 139.9L811.7 140L811.9 139.6L814.9 134.7L818.3 135.4L818.7 135.5L819 135.2L821.6 132.3L822 131.8L821.5 131.3L818.9 128.7L818.8 128.6H818.6L813.1 127L809.4 122.7L811.5 122.2L814.6 126.9L814.8 127.1H815.1L821.4 128.4L822.2 128.6V127.8L822.4 120.5V120.3L822.3 120.1L820.2 116.6L820 116.3H819.6L812.2 115.8H812L811.8 115.9L808.1 118.5L802.4 117.6L801.7 117.5L801.6 118.3L801.1 122.3V122.6L801.3 122.8L804.4 126L803.3 127.2L798.2 123L798 122.8H797.7L790.9 123.4H790.3V124L789.8 129.5V129.6V129.7L790.7 135.4ZM827.1 119.3L827.3 119.7H827.8L842.3 119.9H842.8L843 119.5L847.2 111.8L847.4 111.5L847.3 111.2L844.6 105.2L844.1 104.2L843.4 105L840.6 108.1L835 107.6H834.5L834.3 108L832.9 110.4H829.4L829.3 111L828.9 113.6L825.7 113.5H824.5L825 114.5L827.1 119.3ZM928.3 126.2L928.7 126.4L929.1 126.2L931.8 124.6L932.3 124.3L932.2 123.8L931.2 120.4L931 119.8L930.4 119.9L927.2 120.5L926.8 120.6L926.7 121L925.7 123.7L925.5 124.2L926 124.5L928.3 126.2ZM978.1 39.9L978.6 40.5L979.1 39.9L980.9 38.1L981.1 37.9V37.7L983.3 26.5L986 21.3L986.2 20.9L985.9 20.5L982.9 16.5L982.7 16.2H982.3L974.8 16.8H974.5L974.3 17.1L969.8 23.9L969.7 24.1V29.8L969.9 30L978.1 39.9ZM822.3 151.7V159.6L823.2 159.4L830.8 157.8H830.9H831L838.1 154.1L838.7 153.8L838.5 153.2L836 147.7L835.9 147.3H835.5L830.9 146.6L827.4 145.8L826.9 145.7L826.7 146.1L824.1 149.9L822.7 151.5L822.3 151.7ZM818.2 144.1L817.7 144.6L815.7 146.5L815.5 146.8L815.6 147.2L816.9 153.2L817 153.8H821.2L821.3 153.2L822 147.9V147.5L821.7 147.3L818.6 144.7L818.2 144.1ZM610.6 103.5L610.7 103.7L610.9 103.9L615.9 107.4L616.2 107.6L616.6 107.4L620.1 105.5L620.3 105.4L620.4 105.1L621.5 101.5L621.7 101L621.8 101.1L622.2 100.9L632 96.4L632.4 96.2V92.5L636 90.5L636.6 90.2L636.3 89.6L634.9 86.6L632.5 79.8L632.4 79.6L632.3 79.5L628 75.7L627.5 75.2L627 75.7L623.3 79.5L619.5 82L619.1 82.3L619.2 82.8L620.1 87.2L616.4 92.2L616.3 92.4V96L616.5 96.2L621.5 100.8L621.1 100.7L613.6 97.8L613.3 97.7L613.1 97.9L610.2 99.4L609.7 99.6L609.8 100.1L610.6 103.5ZM821.6 94.9L822.2 95L822.4 94.4L823.6 91.4L823.8 90.7L823.1 90.5L820.1 89.3L819.4 89.1L819.2 89.8L818.2 93.3L818 94L818.7 94.2L821.6 94.9ZM804.8 159.5L804.2 159.4L796.8 158.4L795.6 158.2L796.1 159.4L797.6 162.8L797.7 163L797.9 163.1L801.3 165.2L801.5 165.4L801.8 165.3L804.7 164.5L805.3 164.3V163.7L805 160L804.8 159.5ZM636.3 100.3L636 102.6L634.8 103L633.3 97.4L633.1 96.6L632.3 97L623.1 101.5L622.9 101.6L622.8 101.8L619.5 110.1V110.2V110.3L619.4 113V113.5L619.9 113.7L623.3 115.2L629.3 120.4L636.1 125.1L636.5 125.3L636.9 125.1L640.3 123.3L640.6 123.1V122.7L641.3 118V117.7L641.1 117.5L638.8 114.8L641.6 110.2L641.7 110V109.8L642.1 104.4V104.1L641.9 103.9L637.7 99.8L636.7 98.8L636.3 100.3ZM546.2 59.1L546.4 59.8L547.1 59.6L549.8 58.6L550.4 58.4L550.2 57.8L549.2 54.3L548.9 53.4L548.1 53.9L545.6 55.5L545.1 55.8L545.3 56.3L546.2 59.1ZM566.9 193.1L566.5 193L564.2 192.4L563.7 192.3L563.4 192.8L561.9 195.5L561.7 196L562.1 196.4L564.8 198.9L565.3 199.4L567.5 197.2L567.8 196.9L567.7 196.5L567 193.7L566.9 193.1ZM566.4 101.4L566.6 101.6H566.9L570.1 101.7H570.9V100.9L570.7 98V97.8L570.6 97.6L568.4 94.6L568.1 94.2L567.6 94.4L564.9 95.6L564.6 95.7L564.5 96.1L564.1 98.3L564 98.7L564.3 98.9L566.4 101.4ZM563 174.5L563.2 174.6L565.1 175.9L565.5 176.1L565.9 175.9L568.7 174.2L569.3 173.8L569 173.2L567.4 170.4L567.2 170.2L567 170.1L564.6 169.4L564.2 169.3L563.9 169.5L561.6 171.5L561.1 172L561.6 172.5L563 174.5ZM539.4 67L539.2 67.5L538.5 69.1L538.4 69.3V69.5L539.1 72.8L539.2 73.3H539.8L546 73.1H546.4L546.6 72.8L549.1 68.6L549.3 68.2L549.1 67.8L547 64.4L546.4 63.5L545.8 64.4L543.4 67.9L539.9 67H539.4ZM534.1 211.6L533.4 212L529.4 214.2L529.2 214.3L529.1 214.5L528 216.6L527.7 217.3L528.4 217.6L531.6 218.8L531.8 218.9H532L535.2 218.3L536 218.1L535.8 217.3L534.4 212.5L534.1 211.6ZM537.8 70.3L537.6 69.7L536.4 66.1L536.3 65.8L536 65.7L531.7 64L531.3 63.8L531 64L527.3 67.1L527.1 67.3V67.6L526.9 70.1V70.4L527.1 70.6L530.2 73.4L530.6 73.7L531 73.5L537.2 70.4L537.8 70.3ZM544.9 207.8L544.5 207.6L542.3 206.4L541.7 206.1L541.4 206.6L538.8 210.5L538.5 210.9L538.8 211.3L542 215.5L542.3 216L542.8 215.8L545.1 214.8L545.6 214.6L545.5 214.1L544.8 208.2L544.9 207.8ZM548.2 181.3L548.1 181.7L547.7 183.7L547.6 184L547.8 184.3L549.5 186.5L550 187.2L550.6 186.6L552.3 184.7L552.6 184.4L552.5 184L551.7 181L551.5 180.2L550.8 180.4L548.5 181.1L548.2 181.3ZM578.8 78.9V79.4L579.3 79.6L582.3 80.5L582.5 80.6H582.7L586 79.7L586.8 79.5L586.5 78.7L584.5 74.4L584.4 74.2L584.3 74.1L581.8 72.1L581.3 71.7L580.8 72.1L579.1 73.8L578.9 74V74.2L578.6 77V77.1L578.8 78.9ZM598.8 148.3V148.6L599.1 148.8L602.6 150.7L603.6 151.2L603.7 150.1L603.9 147.4V147.1L603.7 146.9L601.5 144.3L601 143.8L600.5 144.3L598.8 145.8L598.5 146V146.4L598.8 148.3ZM574.9 188V188.2L575.1 188.3L576.8 189.6L577.4 190.1L577.8 189.5L579.4 187.3L579.8 186.7L579.2 186.3L576.6 184.4L576.2 184.1L575.8 184.4L574.4 185.4L573.9 185.7L574.1 186.2L574.9 188ZM570.3 195.8L569.4 194.8L569 196L568.2 198.7L568.1 199.2L568.5 199.5L570 200.6L570.7 201.1L571.1 200.3L572.1 198.4L572.3 198L572 197.6L570.3 195.8ZM572.2 189.5L572.1 191.7V192.1L572.4 192.3L573.9 193.3L574.5 193.7L574.9 193L575.8 191.3L576.1 190.7L575.6 190.4L573.3 188.9L572.3 188.2L572.2 189.5ZM569 163.6L568.8 164.1L568.1 165.8L568 166.2L568.2 166.5L569.7 168.6L570.2 169.3L570.8 168.7L572.4 167L572.6 166.8V166.6L572.7 164.7V164H572L569.5 163.8L569 163.6Z" fill="#B44444"/>
<path fill-rule="evenodd" clip-rule="evenodd" d="M951 125.3L949 129.1L938.4 135.1L930.7 127.8L923 127L912.1 134.1L904.6 143.3L901.9 152.7L896.9 154.2L890.7 151.1L884.8 151.7L881.7 155.7L879 153.4L876.5 156.1L873.4 153.2L877.8 148.8L867.4 148L861.5 153.2L864.7 164.3L858.7 170V161.4H854.7L850.7 165L849.7 160.6L855.6 155.2L849.3 155.6L830.5 165.2L834.2 169.6L828.8 174.8L830.9 178.6L834.7 176.7L835.1 182.2L839.7 187.6L832.6 189.3L830.5 192.2L832.4 196.8L826.7 197.8L819 195.5L816.7 204.1L803.6 201.8V221L794.4 219.5L780.3 206.6L785.5 203L776.9 190.1L771.3 187.4L762.9 190.3L753.5 186.6L752.2 201.2L735.1 208.5L728.6 204.1L729.6 200.7L712.2 200.5L707.6 206.6L706.4 210.6L705.3 204.6L702 201.7L698.2 205.7L692.9 208.4L692.6 212L695.1 215.3V215.4L696.2 221.3L704.4 232.9L704.5 233V240.7L708.7 245.7L708.9 246L708.6 246.2L699 253.8L698.5 258.2V258.3H698.4L696.2 261.7L694.5 269.9L694.4 270.2H694.1L689.4 269.6L681.8 275.8L679.3 277.1L685.3 286.3V286.4V286.5L687.3 312.2V312.3L687.2 312.4L681.9 318.3L685.4 321L685.6 321.1V321.3L684.2 328.1L687.3 331.5L687.4 331.6V336.5L691 339L691.2 339.2L691.1 339.4L689.4 344.1L683.9 350.7L683.4 355.4H692.5L692.6 355.5L696.5 358.5L700.7 355.8L701 355.6L701.2 355.8L703.5 358.7L703.7 358.9L706.7 363.5L706.9 363.8L706.6 364L703.1 366.2V370.3L707 370.6L710.2 368.4L710.5 368.2L710.7 368.6L714.7 376.2V376.3V376.4L714.4 385.4L719.5 388.2L719.7 388.4V388.6L717.4 398.1L720.3 404.5L726.8 406.4L727.2 406.5L727 406.9L722.1 418.4L721.1 432.7L726.1 438L731.5 433.9L731.6 433.8H731.7L739.7 433.5L742.6 428.4L742.8 428L743.1 428.3L747.4 432.6L753.1 426L762 406.9L762.1 406.7H762.3L768.3 405.7H768.4H768.5L780.1 410.3H780.2L780.3 410.5L782.8 418L789.7 414.9L789.9 414.8L790.1 414.9L794.4 417.9H794.5V418L802.2 435.6L812.3 454.3L818.7 450.1L825.3 447.4L825.5 447.3L825.7 447.4L830.7 451.5L833.4 449L833.6 448.8L833.8 449L837.8 452.7L841.5 449L841.6 448.9H841.7L851 449.2H851.1L851.2 449.3L857 453.8L868.4 449.6L868.6 449.5L868.7 449.6L872.5 452.8L888.1 445.6L888.2 445.5H888.3L892.8 446.5L897.7 444.7L897.1 441V440.8L897.3 440.7L909.4 434.4L906.4 425.8L906.3 425.6L906.5 425.4L910.6 421L908.9 416.8L901.2 411.7L901 411.5L901.1 411.2L905.2 403.3L897.6 398.1L897.3 397.9L897.6 397.6L901.1 393.5V375.9L901.3 375.8L916.2 370.1L916.8 363.4V363.1H917.1L925.9 362.5L927.9 357L927.6 351.3V351.1L927.8 351L932 349L928.8 337.7L922.9 333.5L922.7 333.4V333.2L926.6 319.4L921.2 305V304.8L921.3 304.6L924.3 300.7L924.5 300.5L924.7 300.6L935.2 304.2L941.9 302.7L944.2 298.6L944.3 298.5H944.5L952.4 297.3L953.8 292.2L940.6 264.9V264.8V266L942 259.3V259.2L942.1 259.1L950.9 252.9L947.6 246.5L947.5 246.3L947.7 246.1L956.2 238.1L956.3 238H956.4L964 237.2L968.4 232.3L969.1 223.8L964.2 219.3L964.1 219.2V219L963.9 213.5L960.7 208.8L960.5 208.5L960.7 208.3L964.5 204.8L960.4 200L960.2 199.7L960.4 199.5L970.3 190.4H970.4L974.9 188.6L978.2 183.8L972 170.8H964.1L957.9 168.1H957.8V167.9L954.6 159.6L954.5 159.4L954.6 159.2L967 144.6V137.4L951 125.3Z" stroke="white" stroke-width="0.5"/>
<path fill-rule="evenodd" clip-rule="evenodd" d="M1097.9 128.4L1096 107.7L1090.2 104.4L1103.8 95L1101.9 88.7L1076.6 86.6L1073.5 90.6L1066.6 91.2L1065.8 96.5L1060.2 96.1V88.6L1066.5 86.5L1069 81.3L1067.7 67.7L1065.2 66.7L1062.1 68.6L1061.9 63.6L1056 65.9L1052 61.3L1053.5 53.8L1058.5 58.2L1061.4 55.9L1065.6 60.5L1068.1 54.8L1067.5 47.9L1072.1 44.1L1080.1 44.9L1093.5 34.7L1090.3 30.9L1097 31.9L1096.8 25.4L1089.5 26.7L1087.4 22.1L1077.6 20.2L1081.4 15.4L1076.4 11.7L1081 8.5L1075.3 1L1059 10.6L1058.1 18.4L1053.7 24.1L1064.6 28.5L1058.6 31.2L1041 26.4L1020.5 40L990 56.8L981.8 70.3L982.6 74.3L977 75.8L969.1 82.9L974.7 89.8L979.7 88.3L987.2 92.5L986.5 100L979.6 100.8L975 103.5L965.3 97.4V109.9L955.3 117.4L951.5 124.9L968 137.3L968.2 137.4V145.2L968.1 145.3L955.7 159.8L958.8 167.8L964.8 170.4H973L973.1 170.6L976.2 177.1L981.4 177.9H981.6L981.7 178.1L985 183.9L991.9 180.6H992H992.1L998.6 182.7L1003.5 178.3L1003.6 178.2H1003.7L1011.3 177.7L1017 171.8L1016 166.1L1015.9 165.8L1016.2 165.7L1021.9 163.9L1023.5 158.5V158.3H1023.7L1028.5 157.8L1030 153.2L1030.1 153H1030.3L1039.2 150.9L1041.5 146.8L1041.6 146.6H1041.8L1055.1 145.8H1055.4L1055.5 146L1058.6 154.5L1067.9 151.7H1068L1078.1 152L1086.3 128.4L1086.4 128L1086.8 128.2L1091.7 130.8L1097.9 128.4Z" stroke="white" stroke-width="0.5"/>
<path fill-rule="evenodd" clip-rule="evenodd" d="M991.6 314.5L996.7 311.1L1000.2 308.2L1005 307.1L1003.5 297.3L1012 294.6L1018.5 288.9L1024.4 288.7L1020 295.1L1024.2 298.7L1030.3 291.8L1031.8 280.9L1037.3 278.8L1041.7 273.1L1037.1 269.6L1033.1 274.6L1028.9 270.6L1027.7 250.9L1024.1 239.2L1025.2 230.6L1032.3 220.4L1036.3 220.2L1038.2 214.5L1046.4 225.8L1052.2 224.8L1052.6 220.6L1051.3 212L1049.8 205.9L1044.3 202.8L1044.1 202.7V202.5L1043.1 197L1039.5 193.7L1033.8 194.2H1033.6L1033.5 194L1030.1 185L1025.2 184H1025L1024.9 183.9L1017 172.4L1011.4 178.2L1011.3 178.3H1011.1L1003.5 178.8L998.5 183.3L998.3 183.4H998.1L991.6 181.3L984.5 184.7L984.2 184.9L984 184.6L980.6 178.6L976.1 177.9L979 183.9L979.1 184.1L979 184.3L975.5 189.4V189.5H975.4L970.9 191.3L961.3 200.1L965.4 204.9L965.6 205.2L965.4 205.4L961.6 208.9L964.6 213.4L964.7 213.5V213.6L964.9 219.1L969.9 223.6L970 223.7V223.9L969.2 232.7V232.8V232.9L964.6 238L964.5 238.1H964.4L956.8 238.9L948.5 246.6L951.9 253.1L952 253.3L951.8 253.5L942.9 259.8L941.6 266.2L954.6 293.1L960.6 289.1L960.7 289L960.9 289.1L974.5 293.6L974.7 293.7V293.9L976.2 301.4V301.5L976.1 301.6L972.9 307.5L975.3 312.4L980.7 308.4H980.8H988L988.1 308.6L991.6 314.5Z" stroke="white" stroke-width="0.5"/>
<path fill-rule="evenodd" clip-rule="evenodd" d="M995.7 522.9L1000.8 531.3L998.9 537.4L1002 546.3L1007.4 545.1L1005.2 540.8L1005.1 540.6L1005.3 540.4L1008.4 536.2L1008.5 536.1H1008.6L1020.3 535.3L1027.1 530.8L1026.3 523.8V523.4H1026.7L1031.7 523.2L1033.2 513L1026.5 512.5H1026.4L1026.3 512.4L1021.6 507.3L1021.4 507L1021.7 506.8L1029.6 500.9L1029.8 500.7L1030 500.9L1036.9 505.8L1037 505.9V506L1037.9 510.7L1041.4 511.7L1043.2 489.1L1040.7 482L1029.6 459.4L1025.9 455L1022.7 439.1L1020.5 433.8L1019.7 432.9L1011.4 429.4L1008.5 426L1011 421L1004.9 418.5L992 416.2L982.1 421.4L978.6 436.6L974.4 431.2L969.6 437.3L965.6 425.6L957.2 430.8L950.1 429.6L950.5 422.9L959.7 399.9L962 376.9L964.7 365.8L962.4 356.6L965.5 348.4L964.2 339.6L983.6 320.6L989.7 321.8L990.3 319.5L988.6 316.8L991.3 315L988 309.2H981.4L975.7 313.4L975.4 313.6L975.2 313.2L972.5 307.8L972.4 307.6L972.5 307.4L975.7 301.5L974.2 294.3L961 289.9L954.9 293.9L953.4 299.2L953.3 299.4H953.1L945.1 300.6L942.8 304.7L942.7 304.8H942.6L935.6 306.3H935.5H935.4L925.1 302.8L922.4 306.4L927.8 320.7V320.8V320.9L923.9 334.6L929.7 338.7H929.8V338.8L933.1 350.6L933.2 350.9L933 351L928.7 353L929 358.5V358.6L926.9 364.3L926.8 364.5H926.6L917.9 365.1L917.3 371.7V371.9L917.1 372L902.3 377.7V395.1L902.2 395.2L898.9 399.2L906.4 404.4L906.6 404.6L906.5 404.8L902.4 412.7L910 417.7L910.1 417.8V417.9L911.9 422.4L912 422.6L911.8 422.8L907.7 427.2L910.6 435.4L922.6 429.1L922.8 429L923 429.2L927 433.5L927.2 433.7L927.1 433.9L921.2 446.7L921.9 452.9V453.1L921.7 453.2L917.2 455.7L917.5 460.7H927.6L927.7 460.9L932.2 467.6L937.2 467.3L945.3 459.8L946.6 454.3L946.7 454H953L954.9 450.3L955 450.1H955.2L959.5 450.8H959.7L959.8 451L963.8 463.2L963.9 463.4L963.7 463.5L961.1 466.2L961 466.3H960.9L951.1 467.9L953.6 473.1L953.7 473.3L953.5 473.5L949.6 477.7L948.6 483.2V483.3V483.4L942.8 490.1L945.3 493.2L945.5 493.4L945.4 493.6L941.5 498.8V505.1L951.9 510.3H952V510.4L960 522L965.2 517L965.3 516.9H965.4L976.6 517.1H976.7L976.8 517.2L981.8 521.2L996.7 516.2L997.3 516L997.1 516.6L995.7 522.9Z" stroke="white" stroke-width="0.5"/>
<path fill-rule="evenodd" clip-rule="evenodd" d="M849 499.2L862.1 492.5L872.1 496L884.2 494.1L901.8 511.5L923.7 534.2L932.3 530.7L937.7 533.2L941.6 531.3L948.9 533.6L952.8 533.1L959.7 522.6L951.3 511L940.8 505.8L940.6 505.7V498.7L940.7 498.6L944.5 493.5L942 490.4L941.8 490.2L942 490L947.9 483.2L948.9 477.7V477.6H949L952.8 473.5L950.3 468.1L950.1 467.7L950.6 467.6L960.7 466L963.1 463.6L959.3 451.8L955.5 451.2L953.6 454.9L953.5 455.1H947L945.8 460.4V460.5L945.7 460.6L937.5 468.2L937.4 468.3H937.3L932 468.6H931.8L931.7 468.4L927.2 461.6H916.8V461L916.5 455.4V455.2L916.7 455.1L921.1 452.6L920.5 446.5V446.4V446.3L926.3 433.6L922.7 429.7L898.4 442.3L899 446L899.1 446.3L898.8 446.4L893.5 448.4H893.4H893.3L888.8 447.4L873.1 454.6L872.9 454.7L872.7 454.6L868.9 451.4L857.5 455.6H857.3L857.1 455.5L851.2 450.9L842.3 450.6L838.4 454.5L838.2 454.7L838 454.5L834 450.8L831.3 453.3L831.1 453.5L830.9 453.3L825.8 449.1L819.4 451.6L813.2 455.7L821 460.9L821.3 461.1L821.1 461.4L818.8 464.7L822.4 468.3L828.9 464.7L829.2 464.5L829.4 464.8L832.5 470.3L837.5 469.1L837.9 469V469.4L838.6 479.3L843.7 482.2L844 482.4L843.8 482.7L840.9 486.7L849 499.2Z" stroke="white" stroke-width="0.5"/>
<path fill-rule="evenodd" clip-rule="evenodd" d="M207 407.8L206.8 412.1L209.1 417.7L211.8 417.1L213.7 415.4L217.7 417.3L217.5 420L216.3 422.5L217.7 424L221.5 425.3L223 430.7L224.5 437.4L222.8 441.6L224.5 445.1L228.9 442.4L230.8 442.9L232.2 445.8L233.2 450.8L236.1 452.9L239.6 450.6L242.8 450.8L248.9 453.5L248.7 456.4L250 458.7L253.1 459.3L255.6 456.6L258.3 459.3L261.8 461.4L261 466.7L261.8 469.8L265.3 473.6L268.2 474.6L271.1 472.9L273.4 473.7L275.1 477.2L282.2 479.5L285.3 477.2L288.3 472.8L282.9 460.9L282.4 460.6L282.3 460.5V460.4L281.1 456.8L281 456.6L281.2 456.4L284.2 454.1L284.9 452L283.4 448.8L275.8 446.5L272.3 447.4L270.5 451.7L270.4 451.9H270L265.4 451.4H265.3L265.2 451.3L261 447.1L253.3 445.4H253.2L253.1 445.2L251.4 442L251.3 441.8L251.5 441.6L254.5 438.4L252.6 436.4L252.5 436.3V436.1L252.6 434.1V433.9L252.8 433.8L255.6 433L255.9 428.3L251.9 428.5L249.9 429.8L249.4 430.1L249.3 429.5L248.6 423.9V423.6L248.8 423.5L250.6 422.8L250.8 419.5L249 417.5L248.9 417.4V417.2L249.1 409.4L246.9 406.4L246.8 406.3V395.8L244.7 391.2V391.1V391L245.7 386.8L242.9 383.7L242.8 384.2L241.4 388.9L240.3 391V391.1L240.2 391.2L232 395.7L230 399.4L229.9 399.5H229.8L224.2 401.3L221.3 401.7L215.6 406.7L215.5 406.8H215.4L207.1 407.4L207 407.8Z" stroke="white" stroke-width="0.5"/>
<path fill-rule="evenodd" clip-rule="evenodd" d="M276.8 370.6L273.3 373.8L273.2 373.9H269.9L269.2 378.5V378.7H269L263.4 380.5H263.3H263.2L257 379.8L256.5 383.2L259 385.7L259.1 385.8V385.9L259.8 390V390.2L259.7 390.3L258.6 391.8L258.4 392.1L258.1 391.9L254.4 389.6L252.1 389.5L250.6 392.7L249.3 395.7L249 396H247.8V406.1L250 409.1V409.2V409.3L249.8 417.1L251.6 419.1L251.7 419.2V419.4L251.5 423.1V423.3L251.3 423.4L249.6 424.1L250.1 428.8L251.6 427.8H251.7H251.8L256.3 427.6H256.7V428L256.4 433.4V433.6L256.2 433.7L253.4 434.5L253.3 436.1L255.3 438.2L255.5 438.4L255.3 438.6L252.2 441.9L253.7 444.8L261.4 446.5H261.5H261.6L265.8 450.7L270 451.1L271.8 446.9V446.8H272L275.6 445.8L276.1 442.6L276.6 439.3V439L276.8 438.9L281.4 437.9L281.9 434.2V434.1L285.7 427.6V427.5H285.8L292.2 423.9L292.4 423.8L292.6 423.9L295.8 425.6H297.4L298.5 421.5L298.6 421.3L298.8 421.2L302 420.2L303.7 418.8L301.2 416.3L299.7 417L297.4 418.2L297.3 418.3H297.1L286.9 414.9H286.8L284.5 413H284.4V412.9L281.7 406.9L281.6 406.8V406.7L282.8 403.1V403L282.9 402.9L287.7 400H287.8H287.9L290.6 400.2H290.8L290.9 400.3L293 403.1L293.1 403.2V403.3L293.2 408L295.2 409.5L297.7 408.3H297.8H297.9L300.2 408.5H300.3L300.4 408.6L301.9 409.7L305.5 413.2L307.2 412.2L308.4 409.8L306.2 406.8V406.7V406.6L305.9 404.2V404.1V404L308.2 399.7L308.7 396.2L306.8 396H306.7L300.1 393.1L297.3 390.9H297.2V390.8L296.2 387.7L293.5 388.4L293.3 388.5L293.2 388.3L292 386.6V386.5V386.4L291.5 383.5L291.1 381.8L288.1 381.1H287.9V380.8L287.6 376.9L280.5 376.6H280.2V371L276.8 370.6Z" stroke="white" stroke-width="0.5"/>
<path fill-rule="evenodd" clip-rule="evenodd" d="M536.1 219.4L532.2 219.6L530.3 226.5L524 220.7L522.3 226.7L529 234L529.4 240.3L517.1 229.4L516.7 222.5L521.9 216.2L522.6 206L520.5 207L518 213.9L514.2 217.4L510.2 218.5L506.4 224.2L506.6 239.4L497.2 254.2L497.8 263.2H507.4L515.2 272.6V281.6L509.7 288.3L511.2 291.4L515.6 293.9L507.4 295.8L505.1 287.2L511.3 276.5L508.6 268.4L499.2 267.1L494 272.1L493.4 283.4L484.8 292.2L476.9 295.1L471.5 300.8L453.5 289.7V284.3L465.6 289.8L471.9 287.3L482.1 280.8L489 267L487.9 259.5L499.6 231.7L500.9 226.9L499.6 220.6L507.3 213.3L508.8 203.1L502.8 195.2L508.9 194.4L508 187L502 186.5L501.5 191.9L502.8 195.1L499 193.6L493.3 198L486.4 206.8L481 212L473 213.9L468.8 217.9L473 223.4L468.4 231.6L462.1 233.6L461.9 236.5L467.4 242.2L465.5 247.6L466.5 251.1L468.6 254.1L461.5 260.6L459.2 256.9L457.3 248.7L449.8 236.7L445.5 240.3L448 244.8L448.1 245L448 245.2L442.8 254.5L444.8 261.2V261.3L444.7 261.5L441.5 266.5L441.4 266.6H441.3L436.1 268.3L432.6 272.4L432.5 272.5H432.3L419.1 273.1L412.4 278.6L412.3 278.7H412.2L407.9 278.8L407.5 290V290.1V290.2L402.3 297.4L405.6 304.5L418.3 305.5H418.4L418.5 305.6L424.6 310.3L424.7 310.4V310.6L424.9 316.7L427 318.7L441.6 319.5H441.8L441.9 319.6L446.4 325.3L446.5 325.4V325.5L446.9 334.8L449.4 338L449.5 338.1V338.2L449.3 344.3H459.1L459.2 344.4L468 352.4L480.1 357.7H480.2L480.3 357.8L484.8 365.2L492.7 370L500.7 370.8L507.3 366L507.5 365.8L507.7 366L513.7 371.6L519.8 371.4H520L520.1 371.6L524.7 378.3L527.1 378.5H527.2L527.3 378.6L531.7 383L540.8 371.4L541.4 363.9V363.8L541.5 363.7L547.5 355.4L546.4 348.7L539.5 343.5L539.3 343.4V343.2L541 333.4L536.4 327.1L536.3 327V326.9L537.8 313.3L532.1 305.8L532 305.6V305.4L534.3 298.5L532.1 293.1L531.9 292.7L532.3 292.6L539.7 290.6L542.9 282.6L541.2 273.2L533.5 271.2H533.4L533.3 271.1L526.2 261.7L526.1 261.6V261.4L527.5 255.7V255.5L527.7 255.4L538.4 250.7L539.5 246.4L535 236.8V236.7V236.6L536.1 230.3V230.1H536.3L541 229.3L536.6 220V219.9L536.1 219.4Z" stroke="white" stroke-width="0.5"/>
<path fill-rule="evenodd" clip-rule="evenodd" d="M376.4 447.7L381.8 447.6L386.2 455.1L389.8 455.6L389.9 455.5L391.1 452.4V452.3H391.2L397.5 446.4L398.5 441.9V441.8V441.7L402.3 437.5L402.5 437.3H402.7L407.4 438.3L408.6 436.4L409.3 432.9L408 429.4L404 427.9H403.8V427.7L403.2 425.5V425.3L403.3 425.1L405.2 422.8L405.8 416.9V416.7L405.9 416.6L412.7 410L412.9 409.8L413.1 410L416.9 413.8L417.1 414L416.9 414.2L414.8 417.2L417.5 417.7H417.6L424.5 422.6L429.7 421.8H429.8H429.9L434.8 424.5L439.6 424.7L446.1 420.2L434.6 411.5H434.5V411.4L428.9 400.4L424.8 391.2L421.6 390.4L414.9 387.6H414.8L411.4 384.4L410.4 387.1L410.3 387.3H410.1L404.7 387.1L403.4 388.6H403.3L399.9 390.4H399.8H399.7L397.1 389.8L395.4 391.1L395.3 391.2H391.7H391.6L387.3 389.4L385.5 392.9L385.4 393H385.2L379.1 394.2L375.2 400.9L375.1 401.1H374.9L364.1 400.7L361.1 406.9L361.3 413V413.3L361 413.4L358.1 414.2L357.1 419L359.6 424.7L360.6 428.5L365.1 429.9H365.2L369.4 433.7L369.5 433.8V434L369.6 437.9L375.8 443.4L375.9 443.5V443.6L376.4 447.7Z" stroke="white" stroke-width="0.5"/>
<path fill-rule="evenodd" clip-rule="evenodd" d="M282.8 459.9L285 457L292.3 456.4L292.9 451.2L296.4 449.3L300 449.5L304.4 453L307.1 450.5L303.9 445.1L302.4 439.7L306.1 435.9L309.3 434.9L314.3 440.3L324.6 441V440.9L327.5 435.8L319.9 431.3L319.7 431.2V431L319.9 426.9V426.7L320 426.6L330.3 418.9L330.4 412.3L329.5 407.6L326.8 405L325.3 405.9L325.1 406H325L322.4 405.3H322.3H322.2L311.3 395.9L309.4 396.4L308.9 400.1V400.2L306.6 404.5L306.9 406.6L309.2 409.7L309.3 409.9L309.2 410.1L307.9 412.8L307.8 412.9L307.7 413L305.7 414.1L305.5 414.2L305.3 414L301.5 410.3L300 409.3L297.9 409.1L295.3 410.3L295.1 410.4L294.9 410.2L292.7 408.4L292.5 408.3V408.1L292.4 403.4L290.4 400.8L288 400.6L283.4 403.4L282.3 406.7L284.9 412.5L287.1 414.3L297 417.6L299.2 416.4L300.9 415.6L301.1 415.5L301.3 415.7L304.2 418.7L304.4 419L304.1 419.2L302 420.9H301.9L298.9 421.8L297.7 426V426.2H295.4H295.3L292.3 424.6L286.1 428L282.4 434.4L281.9 438.2V438.4H281.7L277.2 439.5L276.8 442.6L276.3 445.8L283.9 448.1H284.1V448.3L285.7 451.7L285.8 451.8L285.7 451.9L285 454.3V454.4H284.9L282.1 456.6L282.8 459.9Z" stroke="white" stroke-width="0.5"/>
<path fill-rule="evenodd" clip-rule="evenodd" d="M407 279H402.8L396.8 284.3L396.7 284.4H396.6L391.2 284.7H391L390.9 284.5L389.2 281.7L380.5 289.4L379.1 294.4V294.5L379 294.6L369.8 302.8L359.7 320.1L361.8 322.3L361.9 322.4V322.5L362.9 327.2L369.8 331.3L369.9 331.4V331.5L374.1 341.5V341.6L374.3 347.6V347.7V347.8L370.8 352.7L372.2 360.4L373.1 364.9V365.1L373 365.2L368.8 370.3L370 373.3L377.5 378.1L377.7 378.2V378.4L376.6 385.8L376.3 389.6L379 393.6L384.8 392.5L386.7 388.9L386.8 388.6L387.1 388.7L391.6 390.7H394.8L396.5 389.4L396.6 389.3H396.8L399.5 389.8L402.7 388.1L404.1 386.6L404.2 386.5H404.4L409.7 386.7L410.8 383.7L411 383.2L411.4 383.6L415.1 387.1L421.8 389.8L425.2 390.6H425.4L425.5 390.8L429.7 400.2L435.3 411.1L447 419.9L453.4 416.2L454.1 412.2V412L454.2 411.9L458.1 409.4H458.2H458.3L462.9 409.9L466.9 397.1V397H467L472.7 392.7L472.9 392.6H473.1L479.2 394.3L487.4 399.8L499.8 400H499.9L500 400.1L508.6 406.4L519 400.4L519.2 400.3L519.4 400.4L524.8 404.2L530.9 403.4L537.6 400.5L538.8 397.4L531.3 393L531.1 392.9V383.2L526.6 378.7L524.2 378.5H524L523.9 378.4L519.3 371.7L513.2 371.9H513L512.9 371.8L507 366.3L500.6 371L500.5 371.1H500.4L492.2 370.3H492H491.9L483.9 365.4H483.8V365.3L479.4 358L467.4 352.8H467.3L458.6 344.8H448.4V344.4L448.6 338.1L446.1 334.9V334.8V334.7L445.7 325.4L441.4 319.9L426.9 319.1H426.8L426.7 319L424.4 316.8L424.3 316.7V316.5L424.1 310.4L418.3 305.9L405.5 304.9H405.3L405.2 304.7L401.7 297.2L401.6 297L401.7 296.8L406.9 289.5L407 279Z" stroke="white" stroke-width="0.5"/>
<path fill-rule="evenodd" clip-rule="evenodd" d="M259 186.7L258.5 183.5L259.1 180.8L256.6 177.3L258.9 173.1L266 164.3L272 162.4L275.5 156.4L276.8 147.8L275.4 145.4L269.3 142.4L269.1 142.3V142L270.3 136.3L263.3 127L255.1 137.3L250.9 137.1L245.5 140.7L241.7 140.5L240.2 144.3L238.5 147.5L235.4 149.8L237.1 153.1L235 155.2L227.9 154.1L226 160.8L224.6 171L220.4 172.7L201.6 170.2L193.1 170.5L193.3 176L197.9 175.1L203.9 176H204.1L204.2 176.1L206.6 179.5L206.7 179.6V179.7L206.6 183.9V184L206.5 184.1L204.5 186.6L204.7 191.3L204.1 195.4V195.5L204 195.6L201 198L200.1 200.3L201.3 202.8L202.9 203.1L203.1 199.8V199.6H203.3L205.3 199L205.6 198.9L205.7 199.1L206.9 201.3L207.9 201.5L208.2 198.6V198.3H208.5L211 198.1H211.3L211.4 198.3L212.9 203.3L215.9 203.9H216L216.1 204L220.9 210.2L221.6 208.2L221.1 202.2V202.1V202L223.3 197.8L231.1 189.3L231.3 189.2H231.5L236.1 190.3H236.2L236.3 190.4L237.8 193.1V193.2V193.3L237.1 197.9V198H237L233.6 201.3L227.9 207.7L226.4 213.2H230.2H230.6V218.5L233.7 219.5L235.9 217L236 216.9H239L240.1 211.7V211.6L240.2 211.5L245.4 206L244.2 203.9L242.5 201L242.4 200.9V200.8L243.6 196.5V196.4H243.7L248.8 191.2L249.3 188.5V188.1L249.7 188.2L253.2 189.1L255.4 189.6L258.1 186.6L259 186.7Z" stroke="white" stroke-width="0.5"/>
<path fill-rule="evenodd" clip-rule="evenodd" d="M339.7 225.5L332.6 234.7L335.1 238.5L335.2 238.7L335.1 238.9L333.5 241.9L334.7 246.8L334.8 247L334.6 247.1L330.1 249.7L329.9 249.8L329.7 249.7L323.9 246L318.3 246.2H318L317.9 245.9L317 241.7L302.9 230.9L301.4 233.2L305.3 239.7L305.4 239.8V239.9L304.2 245.4V245.5L304.1 245.6L300.7 248.9L302.2 251.5V251.6V251.7L302.4 254.5V254.9H302L296.5 255.1L292.2 260.8L292 264.2L297.2 266.4L299.4 263.8V263.7H299.5L304.5 262L304.8 261.9L305 262.2L308.1 268.4L308.2 268.6L308 268.8L296.5 278L296.3 283V283.2L296.1 283.3L292.1 286.4L291.9 286.5L291.7 286.4L286.7 284.4L283.1 287.3L272.4 299.3L273.4 301.8V301.9V309.9L275.1 311.3L279.6 306.3L279.8 306.1L280 306.2L293.5 311.4L298.2 309.2L300.9 302.7L301 302.5H301.2L310.1 303.4H310.2L310.3 303.5L316.9 311L324.2 314.7L334.4 315.8L338.4 313.6L338.6 313.5L338.8 313.7L349.8 322.7L356.6 323.7L368.8 302.7V302.6L378 294.4L379.4 289.4V289.3V289.2L388.5 281.1L388.8 280.8L389 281.1L390.9 284.1L396 283.9L402 278.6L402.1 278.5H402.2L411.4 278.4L418.1 272.9L418.2 272.8H418.3L432 272L435.5 268V267.9H435.6L440.8 266.2L443.9 261.4L441.9 254.7V254.6L442 254.4L444.4 250.1L441.9 249.6L440.3 252.1L440.2 252.3H436.9L432.9 256L432.7 256.1H432.5L427.7 255L424 259.3L423.9 259.4H423.7L412.8 260.3H412.7H412.6L365.1 226.4L360.5 227.8H360.4L339.7 225.5Z" stroke="white" stroke-width="0.5"/>
<path fill-rule="evenodd" clip-rule="evenodd" d="M322.2 199.6L316.4 204.8L313.7 199.8L317.5 199.1L312.7 190.1L305.4 191.2L298.1 188.7L289.1 190.1L284.1 202.6L280.4 200.5L275.2 188.4L275.9 179L267.5 180L265.2 188L268.9 192.4L265.4 197L259.8 194L258.8 187.5L258.6 187.6L255.8 190.6L255.7 190.8H255.5L253.1 190.3L249.9 189.5L249.5 192V192.1H249.4L244.2 197.3L243.1 201.3L244.7 204L246.2 206.4L246.3 206.6L246.1 206.8L240.7 212.4L239.5 217.8V218.1H236.3L234.1 220.6L229.2 226.2L228.3 233.1L241 247L245.2 251L249.7 253.8L254.4 259.1L261.8 259.3H262L262.1 259.5L265.1 267L267.3 266L267.4 265.9H267.5L271.8 267.3L272.1 267.4L272 267.8L270.7 271.3L274.7 273.3L274.9 273.4V277.7L279 277.1H279.2L279.3 277.3L282.6 281.3L282.7 281.4V281.5L283.1 286.3L286.4 283.6L286.6 283.5L286.8 283.6L291.8 285.6L295.5 282.8L295.7 277.7V277.5L295.8 277.4L307.2 268.3L304.4 262.7L299.8 264.2L297.5 266.9L297.3 267.1L297.1 267L291.4 264.6L291.2 264.5V264.3L291.4 260.5V260.4L291.5 260.3L296 254.3L296.1 254.2H296.3L301.6 254L301.4 251.6L299.8 248.8L299.7 248.6L299.9 248.4L303.4 244.9L304.5 239.7L300.5 233.2L300.4 233L300.5 232.8L302.4 230L302.6 229.7L302.9 229.9L317.3 241.1L317.4 241.2V241.3L318.3 245.3L323.7 245.1H323.8H323.9L329.6 248.8L333.7 246.4L332.6 241.7V241.6L332.7 241.5L334.2 238.6L331.7 234.8L331.6 234.6L331.8 234.4L339 225.1L336.1 220.9L330.6 220.2H330.4L330.3 220.1L324.1 210.9V210.8L322.2 199.6Z" stroke="white" stroke-width="0.5"/>
<path fill-rule="evenodd" clip-rule="evenodd" d="M104.4 462.8L110.4 462.9L116.1 460.3L112.3 455L112.1 454.7L112.4 454.5L115.7 452.8L118.8 450.3L116.4 444.5L116.3 444.3L116.5 444.1L118.5 441.7L118.8 441.4L119.1 441.8L120.9 444.5L123.2 443.5H123.3H123.4L127.7 444L126.7 439.7V439.6V439.5L129.3 432L126.7 427.3V427.2V427.1L128.8 417.1L126.8 411.8L123 411.3H122.8V411.1L121.8 406.3L119.1 406.1L118.1 408.8L118 409H117.7L108.3 408L108.5 411L112.7 411.5H113V411.8L113.2 414.7V414.9L113.1 415L108.3 420.3L108.2 420.4H100.5L99 423.1V423H98.8L93.7 423.5H93.5L93.4 423.3L91.3 419.8V419.7V415L87.5 413.3L87.3 413.2V408.2L84.6 407.1L83.1 409.5L83 409.7L82.7 409.6L78.7 408.1L76.4 410.8L79 414L81.7 413.5H81.9L82.1 413.7L83.9 416.3L87.5 417.3L87.7 417.4L87.8 417.6L89.4 421.8L93.1 428.2L93.2 428.3V428.4L92.2 434.7L96.2 441.8L97.5 447.4L97.2 453.1L103.2 459.1V459.2L104.4 462.8Z" stroke="white" stroke-width="0.5"/>
<path fill-rule="evenodd" clip-rule="evenodd" d="M37.9 420L37.7 415.5V415.1V414.8H38H38.3L43 414.3V411.5V411.1L43.1 411L43.3 410.9L48.6 407L45.2 404.9H45.1L40.8 399.8L40.7 399.7L40.6 399.6V399.4V399.2L41.1 395.2L41.2 394.8V394.3L41.6 394.5L42 394.6L45.7 395.9H45.8H45.9L46 396V396.1L49 400.8H53.1H53.8V401.1V401.4L54 405.6L57 408.1L57.1 408.2L57.3 408.3V408.5V408.7L57.1 414.6V414.7V414.8L57 414.9L56.9 415L52.7 420.6L52.2 421.3L51.7 422L51.6 421.2L51.5 420.3L50.9 415.4L44.2 422.8L44 423L43.8 423.2L43.6 423.1L43.4 423L38.3 420.6L38.1 420.5L37.9 420.4V420.2V420V420ZM30.7 377.8L31.1 384.5L29 387L30 389.9L33.1 392.2L32.9 397L34.6 404.7L34.1 411.8L32.7 423.5L34.2 425.6L37.3 424.3L39.3 427.7L48.4 424.5L48.6 424.4L48.8 424.6L51.6 428.5L56.3 429L59.6 422.3L59.7 422.2H59.8L63.4 420.7L62 418.7L61.9 418.5L62 418.3L64 414.6L61.8 412.6L61.6 412.4L61.8 412.2L64.4 409.6L64.6 407.3V407.1H64.8L67.7 405.7L68 405.6L68.2 405.9L70.2 409.3L72.7 407.3L72.9 402.9V402.8L73.9 400.8L69.5 395.4L69.3 395.2L69.4 395L72.8 388.5L68.5 383.2H64.5L64.4 383L62.1 378.4L55.1 372L54.1 381.2L50.3 379.3L43 379.7L40.3 383.2L34.9 374.2L30.7 377.8Z" stroke="white" stroke-width="0.5"/>
<path fill-rule="evenodd" clip-rule="evenodd" d="M636.7 555.7L652.9 562.3L667.8 565.8L670.9 577.7L681.8 583.4L689.5 583.2L700.4 576.7L708.8 579.4L717.6 578.8L719.9 582.8L725 583L726.7 576.8V576.6L726.8 576.5L731.7 574L726.5 568.3L726.2 568L726.5 567.8L731.6 563.7L729.6 557.9L729.5 557.4H739.7L745.6 552.4L745.7 552.3H745.9L751.2 553.1L761.1 539.9L761.2 539.8H761.4L767.8 539.3L769.7 536.2V536.1H769.8L775.3 533.9L779.4 528.8L779.9 523.3L775.5 520.4L775.3 520.3V514.7L775.5 514.6L784.9 507.4L788.1 499.9V499.7H788.3L796.6 496.8L796.1 490.2L791 485.6L785.3 484.6H785.1L785 484.4L780.3 470.2L777.3 467.5L777.1 467.3L777.3 467L780.3 462.8L779.9 458.7L776.4 462.6L776.3 462.8H776.1L773.1 462.3L771.4 468.8L771.3 469H771.1L755.3 473.2L755.1 473.3L754.9 473.1L752.2 469.5H748.5H748.4L745 467.7L743.1 472.1V472.3H742.9L735.4 474.8H735.3H735.2L731.3 473.4L730.4 477.8V478H730.1L722.4 479L723.1 482.8L727.8 486.8L728 487L727.8 487.3L723.8 492L723 499.1L725.5 505.1L725.9 503.9L727.5 494.1L730 489.6L730.1 489.4H730.3L733.6 489.8H733.8V490.1L734.4 493.8V493.9L732.8 502.6L733.4 511.1L734.8 515.8V515.9V516L733 520.5V520.6H732.9L730.2 523.1L729.3 524.7L730.3 527.7V527.8L730.2 527.9L729 530.8L728.9 531H728.7L725.8 531.8L725.6 535V535.1V535.2L721.9 541.3L721.8 541.4H721.7L716.2 543.1L712.5 548.1L712.4 548.3H712.2L708 548L706.9 554.3V554.4L706.8 554.5L703.7 558H703.6L693.6 562.4L693 567V567.2H692.8L686.3 569.4L685.9 569.5L685.8 569.1L684.9 565.4L678.1 564.1H677.8V563.9L677.2 558.9L672.5 552.9H666.1L666 552.8L652.9 542.4L648.8 536.8L642.2 541.5L642.1 541.6H642L638.3 541.5L638.5 542.3V542.5L638.3 542.7L636.3 544.7L637 547.6V547.8L636.9 547.9L634.1 551.1L636.7 555.7Z" stroke="white" stroke-width="0.5"/>
<path fill-rule="evenodd" clip-rule="evenodd" d="M532.2 547.7L536.4 546.2L539.5 544.7L544.8 539.4L543.6 536.1V536V535.9L544.5 532.1L543.3 527.1V526.9L543.4 526.8L546.9 522.3L548.7 516.9L543.5 515.1H543.3V514.9L542.3 511.7V511.5L542.4 511.4L546.5 506.1L544.3 500.9V500.8V500.7L545.3 496.5V496.3L545.5 496.2L550.9 493.7L553.6 491L547.9 480L547.8 479.9V479.8L548.6 476L542.5 478.6H542.3H542.2L534.3 475.1L525.2 476.3L521.7 480.4L521.6 480.5H521.4H512L511.8 505.7L515.2 505.3H515.5V505.6L516.2 510.6L520.9 515.6L521 515.7L522.6 520.1L527 523.3L527.3 523.5L527.1 523.8L523.8 527.8L526.5 530.8L526.6 531V531.2L525.3 536.4V536.5L525.2 536.6L521.8 538.8L521.5 544.8L529.3 545H529.4L529.5 545.1L532.2 547.7Z" stroke="white" stroke-width="0.5"/>
<path fill-rule="evenodd" clip-rule="evenodd" d="M490.7 563.9L491.4 570.5L497.6 574L497.8 580.5L504 581.8L506.5 584.9L513.4 581.3L514.8 586.1L519.2 592.6L526.1 593.4L528.2 588.8L537.4 588.4L543.5 583.9L542.5 577.1V576.9L542.7 576.8L546.6 574.1L541 564.1V564V563.9L540.4 557.5L535.4 561.3L535.1 561.5L534.9 561.2L530.4 555.4L530.3 555.3V555.1L531.9 548.2L529.4 545.3L521.7 545.1V545.2H521.5L516.7 546.2H516.5L516.4 546.1L512.4 543L512.2 546.2V546.3H512.1L508.3 552.1L508.2 552.3H508L501 551.7L495.4 553.6L493.2 556.7L496.7 558.4L496.8 558.5V558.7L497.8 562.9L497.9 563.3L497.5 563.4L490.7 563.9Z" stroke="white" stroke-width="0.5"/>
<path d="M703.4 360.2L701.1 362.8L701 362.9H700.9L695.4 364.1L690.4 366.3L690.7 371.8L692.2 375.5V375.6L692.1 375.7L689.3 381.9L692.1 386.4V386.5V386.6L692.7 393.3V393.4V393.5L688.3 402V402.1H688.2L680.9 406.6L683.6 411.2L683.7 411.4L683.5 411.6L680.4 415.8L682 421.3L688.2 423.3H688.4V423.5L689.3 427.6V427.8L689.2 427.9L684.6 432.8L684.4 436.2L687.3 437L687.5 437.1L687.6 437.3L689.1 441.7V441.9L689 442.1L685.5 445.5L684.1 450.7L684 451.2L683.6 451L677.2 447.2H677.1L677 447.1L674 440.4L668.1 443.1L667.2 448.7V448.8L667.1 448.9L654.1 463.1L654.7 469.7V469.9L654.5 470L651 471.5L650.7 471.6L650.6 471.3L645.6 460.5L642.2 465L642.1 465.1H641.9L628.4 465.7L623 475.5L629 485L629.1 485.1V485.2L627.9 490.4V490.6H627.7L621.7 491.4L618.3 497.9L617.1 515.3V515.7H616.7L611 515.1L606.9 517V520.4L616.7 529.2L631.5 539.5L637.5 539.1H637.8L637.9 539.4L638.1 540.4L641.9 540.5L648.6 535.7L648.9 535.5L649.1 535.8L653.4 541.6L666.3 551.8H672.8L672.9 552L677.8 558.2V558.3V558.4L678.3 563.2L685.1 564.5H685.3L685.4 564.7L686.3 568.2L692.2 566.2L693.4 562.2H687L686.9 562L685.6 559L685.4 558.7L685.7 558.5L688.6 556.8H688.7H688.8L692.8 556.2L700.9 550.6L703.8 546.1L709.8 540.7L711.1 536.7L714.6 530.6L718.9 524L722.6 513.8L725.3 505.7L722.4 498.9V498.8V499L723.1 491.7V491.6L723.2 491.5L727 487L722.5 483.2L722.4 483.1V483L721.7 478.7L721.6 478.4L722 478.3L729.8 477.3L730.8 472.8L730.9 472.4L731.3 472.5L735.5 474L742.8 471.6L744.8 467L744.9 466.6L745.3 466.8L749 468.8H752.9L753 469L755.6 472.5L771 468.4L772.7 461.8L772.8 461.5H773.1L776.2 462L780.1 457.6L780.6 457L780.7 457.8L781.2 462.5L790.6 464L796.1 460.2L796.3 453L790.4 448.8L790.3 448.7V448.5L789.8 439.5V439.3L790 439.2L793.2 436.7H793.3H793.4L801.4 436.5L793.9 419.4L789.9 416.6L782.8 419.8L782.5 420L782.4 419.6L779.8 411.8L768.5 407.3L762.8 408.3L754 427.3L748 434.3L747.8 434.6L747.6 434.3L743.3 430L740.6 434.9L740.5 435.1H740L731.8 435.4L726.3 439.6L726.1 439.8L725.9 439.6L720.6 434L720.5 433.9V433.8L721.5 419.2L726.3 408L720.1 406.1H719.9V405.9L716.9 399.3V399.2V399.1L719.1 389.8L714 387L713.8 386.9V386.7L714.1 377.5L710.4 370.3L707.4 372.4L707.3 372.5H707.2L702.9 372.2H702.6V367.1L702.8 367L706.1 364.9L703.4 360.2Z" stroke="white" stroke-width="0.5"/>
<path d="M729 583.3L725.8 583.1L728 577L733.2 574.3L733.6 574.1L733.3 573.8L728 568.1L733 564.1L733.2 563.9L733.1 563.7L731.2 558.2H740.6L740.7 558.1L746.6 553.2L752 553.9H752.2L752.3 553.7L762.2 540.5L768.6 540H768.8L768.9 539.8L770.9 536.6L776.3 534.4H776.4L776.5 534.3L780.7 529.1L780.8 529V528.9L781.3 523.1V522.9L781.1 522.8L776.8 519.9V515L786.2 507.8V507.7L789.4 500.3L797.8 497.3L798 497.2V496.9L797.5 489.9V489.8L797.4 489.7L792.1 485L792 484.9H791.9L786.3 483.9L781.6 469.8V469.7L781.5 469.6L778.8 467.1L781.5 463.3L791.1 464.8H791.2L791.3 464.7L797.1 460.7L797.2 460.6V460.4L797.4 452.9V452.7L797.2 452.6L791.3 448.4L790.8 439.7L793.8 437.4L802 437.2L812.2 456.1V456.2L820.2 461.5L817.9 464.7L817.7 464.9L817.9 465.1L821.9 469.1L822.1 469.3L822.3 469.2L828.8 465.6L831.9 471.1L832 471.3L832.2 471.2L837.1 470L837.8 479.7V479.9L838 480L842.9 482.8L840.1 486.8L840 487H840.1L848.4 499.4L839.2 505.7L834 515.3L841.3 516.1L844.8 525.3L839.6 530.5L836.6 549.7L839.5 556.8L832.6 561.6L829.7 569.5L809.4 566.2L804.6 570.6L801.1 567.4L789.6 568L781.4 575.7L779.7 581.3L774.3 581.5L757.4 591.7L732.3 589.4L729 583.3Z" stroke="white" stroke-width="0.5"/>
<path d="M697 360L696.8 360.2L696.6 360L692.6 356.9H683V356.5L683.6 351.3V351L683.7 350.9L689.2 344.2L690.8 339.9L687.3 337.4L687.1 337.3V332.3L684 328.9L683.9 328.8V328.6L685.3 321.8L681.7 319.1L681.4 318.9L681.6 318.6L687.1 312.6L685.1 287.2L678.7 277.4L681.9 275.8L689.6 269.6L689.7 269.5H689.8L694.3 270L695.9 262V261.9L698.1 258.6L698.7 254.1V254L698.8 253.9L708.2 246.4L704.2 241.6L704.1 241.5V233.8L696 222V221.9V221.8L694.9 215.9L692.4 212.5L692.3 212.4V212.3L692.6 209L687.5 211.5L681.8 215.9L673.9 218.2L670.8 223.5L671 215.8L686.9 199.3L695.7 183.4L699.7 169.2L687.4 155.2L676 155L672 160.7L667.4 161.5L670.8 151.7L661.4 150.5L664.5 146.1L658.7 141.3L653.5 143.2L645.3 155.5L647.2 162.8L638.4 163.4L638.6 165.7L641.8 170.5L635.5 169.2L632.3 172.2L625 170.9L624 167.7L613.6 167.9L613.8 173.9L601.4 175.7L593 182.4L586.5 182.6L581.7 186.8L579.6 195.4L583.6 202.7L577.5 204.2L561.2 201.5L551.8 201.3L548.9 206.5L548.5 219.9L554.4 225.7L557.3 232.4H549.1L542 219L536.8 219.3L536.9 220L541.4 229.7L541.6 230.1L541.1 230.2L536.2 231L535.1 236.9L539.6 246.5L539.7 246.6V246.7L538.6 251.3V251.5L538.4 251.6L527.7 256.3L526.4 261.7L533.4 270.9L541.3 272.9L541.5 273V273.2L543.2 283L542.7 284.3L540 291.3L539.9 291.5H539.7L532.5 293.5L534.7 298.7L534.8 298.8V298.9L532.5 305.7L538.2 313.1L538.3 313.2V313.3L536.8 326.9L541.4 333.2L541.5 333.3V333.5L539.8 343.2L546.6 348.3L546.7 348.4V348.5L547.9 355.5V355.7L547.8 355.8L541.7 364.2L541.1 371.7V371.8L541 371.9L531.6 383.8V393L539.3 397.4L539.6 397.5L539.5 397.8L538.1 401.3V401.4L537.9 401.5L531.1 404.4L525.2 405.1L527.7 414.1V414.3L527.6 414.5L525.1 417.6V422.3L543.5 425.1H543.7L543.8 425.3L549.2 436.4L554.2 437H554.6V437.3L554.3 441.5V441.7L554.2 441.8L547 448.1L547.6 453.2L551.6 457.2L557.6 459.1L557.9 459.2L557.8 459.5L556.8 463V463.1L556.7 463.2L550.1 468.2L549.8 474.8V475L548.9 479.2L554.6 490.4L554.7 490.6L554.5 490.8L551.6 493.7L549.1 494.9L552 503.4H557.5L563 502.7H563.1L563.2 502.8L566.7 505L567 505.2L566.8 505.5L565 509.5L569.1 515.7V515.8L570.1 521.3L572 527L572.3 531.2V531.4L572.1 531.5L567.5 534V537.7V537.8L565.9 541.3V541.4L565.8 541.5L560.8 543.4L558.1 549.1L566.2 554.8L579.5 556.5L585.2 551.7H585.3L588.4 551L588.6 548V547.8L588.7 547.7L593.4 544.7L593.1 541.4V541.1L593.4 541L596.9 540.1L598 535.4L598.1 535.2H598.3L615.8 533.7L616.7 529.7L606.9 520.9L606.8 520.8V516.6L607 516.5L611.4 514.5H611.5H611.6L617.1 515L618.3 497.8V497.7L621.8 491L621.9 490.8H622.1L628 490L629 485.1L623 475.6L622.9 475.4L623 475.2L628.5 465L628.6 464.8H628.8L642.4 464.2L646.1 459.4L646.5 458.9L646.7 459.4L651.8 470.5L654.7 469.3L654.2 462.8V462.6L654.3 462.5L667.4 448.3L668.2 442.6V442.4L675.2 439.2L675.4 439.5L678.6 446.4L684.5 449.9L685.8 445.1V445L689.2 441.6L687.9 437.6L684.9 436.8L684.6 436.7V436.4L684.9 432.6V432.5L685 432.4L689.5 427.6L688.7 423.9L682.5 421.9H682.3V421.7L680.6 415.8V415.6L680.7 415.5L683.8 411.3L681 406.6L680.8 406.3L681.1 406.1L688.6 401.5L692.9 393.3L692.3 386.8L689.4 382.2L689.3 382L689.4 381.8L692.2 375.5L690 372L689.7 366.2V366L689.9 365.9L695.1 363.6L700.5 362.4L702.9 359.8L700.9 357.4L697 360Z" stroke="white" stroke-width="0.5"/>
</g>
<defs>
<clipPath id="clip0_1_2">
<rect width="1171" height="611" fill="white"/>
</clipPath>
</defs>
</svg>
