<svg width="16" height="17" viewBox="0 0 16 17" fill="none" xmlns="http://www.w3.org/2000/svg">
<g clip-path="url(#clip0_3101_13080)">
<path d="M16 5.83333H0V5.16667C0 3.32867 1.49533 1.83333 3.33333 1.83333H4V1.16667C4 0.798667 4.298 0.5 4.66667 0.5C5.03533 0.5 5.33333 0.798667 5.33333 1.16667V1.83333H10.6667V1.16667C10.6667 0.798667 10.9647 0.5 11.3333 0.5C11.702 0.5 12 0.798667 12 1.16667V1.83333H12.6667C14.5047 1.83333 16 3.32867 16 5.16667V5.83333ZM6.66667 15.53C6.66667 14.9353 6.79133 14.3613 7.02333 13.8333H4C3.63133 13.8333 3.33333 13.5347 3.33333 13.1667C3.33333 12.7987 3.63133 12.5 4 12.5C4 12.5 6.68133 12.5 7.94667 12.5007L9.28067 11.1667H4C3.63133 11.1667 3.33333 10.868 3.33333 10.5C3.33333 10.132 3.63133 9.83333 4 9.83333H10.6147L12.442 8.006C12.9833 7.46467 13.7027 7.16667 14.468 7.16667H0V13.1667C0 15.0047 1.49533 16.5 3.33333 16.5H6.66667V15.53ZM13.3847 8.94867C13.9827 8.35067 14.9533 8.35067 15.5513 8.94867C16.1493 9.54667 16.1493 10.5173 15.5513 11.1153L11.0133 15.6533C10.4713 16.1953 9.73667 16.5 8.97 16.5H8V15.53C8 14.7633 8.30467 14.0287 8.84667 13.4867L13.3847 8.94867Z" fill="#1972DB"/>
</g>
<defs>
<clipPath id="clip0_3101_13080">
<rect width="16" height="16" fill="white" transform="translate(0 0.5)"/>
</clipPath>
</defs>
</svg>
