<svg width="40" height="40" viewBox="0 0 40 40" fill="none" xmlns="http://www.w3.org/2000/svg">
<g clip-path="url(#clip0_2757_12347)">
<path d="M28.8171 23.4338C29.8773 23.4338 30.7397 22.5713 30.7397 21.5113C30.7397 21.1876 30.4773 20.9253 30.1537 20.9253C29.8302 20.9253 29.5678 21.1876 29.5678 21.5113C29.5678 21.9252 29.231 22.262 28.8171 22.262C28.4032 22.262 28.0664 21.9252 28.0664 21.5113C28.0664 21.1876 27.8041 20.9253 27.4805 20.9253C27.1569 20.9253 26.8945 21.1876 26.8945 21.5113C26.8945 22.5713 27.757 23.4338 28.8171 23.4338Z" fill="#1972DB"/>
<path d="M31.8887 20.1471C32.2123 20.1471 32.4746 19.8849 32.4746 19.5612V18.9489C32.7639 18.9131 32.9879 18.6664 32.9879 18.3674C32.9879 18.0438 32.7255 17.7815 32.402 17.7815H31.8887C31.5651 17.7815 31.3027 18.0438 31.3027 18.3674V19.5612C31.3027 19.8849 31.5651 20.1471 31.8887 20.1471Z" fill="#1972DB"/>
<path d="M25.1578 18.949V19.5613C25.1578 19.8849 25.4202 20.1472 25.7438 20.1472C26.0673 20.1472 26.3297 19.8849 26.3297 19.5613V18.3675C26.3297 18.0439 26.0673 17.7816 25.7438 17.7816H25.2305C24.9069 17.7816 24.6445 18.0439 24.6445 18.3675C24.6445 18.6664 24.8685 18.9131 25.1578 18.949Z" fill="#1972DB"/>
<path d="M37.5738 19.6665C37.7402 19.3145 37.8337 18.9217 37.8337 18.5074C37.8337 17.8177 37.5755 17.1876 37.1513 16.7073C37.2187 16.6119 37.2585 16.4958 37.2585 16.3701C37.2585 14.6395 37.3449 13.6131 36.8243 12.1245C36.7174 11.8191 36.3832 11.6577 36.0777 11.7649C35.7723 11.8717 35.6113 12.2059 35.718 12.5114C36.1436 13.7279 36.0866 14.5717 36.0866 15.7842C35.3392 15.7842 33.3259 15.7842 32.477 15.7842C30.7817 15.7842 29.4024 14.4049 29.4023 12.7096C29.4023 12.3859 29.14 12.1237 28.8164 12.1237C28.4928 12.1237 28.2305 12.3859 28.2305 12.7096C28.2305 14.4049 26.8512 15.7842 25.1558 15.7842H22.6098H21.5462V14.6926C21.5462 11.0512 24.5087 8.08868 28.1502 8.08868C28.1945 8.08868 28.2305 8.1247 28.2305 8.16899C28.2305 8.49259 28.4928 8.75485 28.8164 8.75485C29.14 8.75485 29.4023 8.49259 29.4023 8.16899C29.4023 8.1247 29.4384 8.08868 29.4827 8.08868C31.3916 8.08876 33.2066 8.9147 34.4622 10.3547C34.6748 10.5987 35.045 10.6238 35.2889 10.4113C35.5328 10.1986 35.5581 9.82853 35.3455 9.58462C33.8673 7.88931 31.7304 6.91696 29.4827 6.91689C29.238 6.91689 29.0095 6.98743 28.8165 7.10923C28.6234 6.98743 28.3949 6.91689 28.1502 6.91689C23.8627 6.91689 20.3745 10.4051 20.3745 14.6927V16.3702C20.3745 16.4958 20.4144 16.612 20.4816 16.7074C20.2849 16.9301 20.1238 17.1849 20.0079 17.4631C19.9375 16.5991 19.5016 15.8402 18.8507 15.3438V13.1116C18.8507 8.71657 15.2752 5.14103 10.8802 5.14103C9.78891 5.14103 10.2262 5.1222 8.7168 5.24017C6.63477 5.40267 4.77156 6.51681 3.64367 8.25009L1.87914 7.6861C1.51352 7.56892 1.13391 7.83095 1.11547 8.21626C1.10711 8.39282 0.930313 12.3167 1.64578 15.0498C0.671016 15.5387 0 16.5472 0 17.7101C0 19.219 1.12938 20.4691 2.58727 20.6596C2.95422 22.234 3.82109 23.6631 5.06117 24.7231C5.38633 25.0009 5.73328 25.2483 6.09656 25.4656H4.86359C2.83773 25.4656 1.18961 27.1138 1.18961 29.1396V34.2742C1.18961 34.5979 1.45195 34.8602 1.77555 34.8602H2.74891C3.0725 34.8602 3.33484 34.5979 3.33484 34.2742C3.33484 33.9506 3.0725 33.6883 2.74891 33.6883H2.36148V29.1396C2.36148 27.7599 3.48391 26.6375 4.86359 26.6375H6.56812C6.8593 28.3652 8.4218 29.6642 10.2472 29.5463C11.8996 29.4399 13.2088 28.1966 13.4719 26.6375H15.1766C16.5563 26.6375 17.6788 27.7599 17.6788 29.1396V33.6883H5.48336C5.15977 33.6883 4.89742 33.9506 4.89742 34.2742C4.89742 34.5979 5.15977 34.8602 5.48336 34.8602H18.2648C18.5884 34.8602 18.8508 34.5979 18.8508 34.2742V29.1396C18.8508 28.6517 18.7544 28.1861 18.5809 27.7598H19.5223C20.1118 27.7598 20.674 27.642 21.1878 27.43C20.8263 27.989 20.6155 28.6542 20.6155 29.3679V34.2742C20.6155 34.5979 20.8779 34.8602 21.2015 34.8602H36.471C36.7946 34.8602 37.057 34.5979 37.057 34.2742V29.3679C37.057 28.663 36.8513 28.0055 36.498 27.4508C36.9976 27.6494 37.5414 27.7598 38.1109 27.7598H39.4141C39.7377 27.7598 40 27.4975 40 27.1738V23.5852C40 21.916 39.0326 20.3984 37.5738 19.6665ZM25.1559 16.9561C26.7133 16.9561 28.0775 16.1136 28.8166 14.8602C29.5557 16.1136 30.9198 16.9561 32.4772 16.9561H35.1105C35.9659 16.9561 36.6618 17.652 36.6618 18.5074C36.6618 18.9256 36.4947 19.305 36.2247 19.5842C35.9162 19.903 35.4884 20.0748 35.0484 20.0569C34.752 20.0432 34.4945 20.2539 34.4457 20.5456C33.9999 23.2107 31.6945 25.3047 28.8166 25.3047C26.7833 25.3047 24.884 24.2298 23.862 22.4421C23.8525 22.418 23.8416 22.3943 23.8288 22.3715C23.5902 21.9435 23.4093 21.4914 23.2885 21.0224C23.2861 21.013 23.2841 21.0034 23.2818 20.9941C23.2485 20.8619 23.2169 20.7217 23.1874 20.5456C23.1388 20.2545 22.8801 20.0434 22.5848 20.0568C21.7079 20.0924 20.9713 19.385 20.9713 18.5072C20.9713 17.6518 21.6673 16.9559 22.5226 16.9559C22.5439 16.9559 22.5652 16.9569 22.5863 16.9577C22.6113 16.9587 22.6359 16.9581 22.6603 16.9559H25.1559V16.9561ZM28.8262 28.9413C27.7113 28.9413 26.8043 28.0343 26.8043 26.9194V26.3739V26.177C27.4693 26.381 28.1638 26.4767 28.8165 26.4767C29.4906 26.4767 30.1927 26.3744 30.848 26.1711V26.9195C30.848 27.9995 29.9967 28.8845 28.93 28.9388C28.8956 28.9405 28.861 28.9413 28.8262 28.9413ZM24.1947 25.788C24.1945 25.788 24.1942 25.788 24.194 25.788C23.7923 25.7881 23.4064 25.8558 23.0457 25.9784C23.4078 25.4889 23.6701 24.9216 23.8032 24.3065C23.9751 24.4895 24.1568 24.6645 24.3491 24.8288C24.7452 25.1673 25.1762 25.4568 25.6324 25.6949V25.788H24.1947ZM32.0199 25.6853C32.6832 25.3365 33.2901 24.8814 33.8298 24.3066C33.9614 24.9143 34.2193 25.4753 34.5748 25.9609C33.9059 25.7448 33.5568 25.788 32.02 25.788V25.6853H32.0199ZM2.26688 9.04024L3.72852 9.50735C3.99484 9.59228 4.28437 9.47751 4.41969 9.23267C5.31742 7.6086 6.95797 6.55274 8.80805 6.40845C10.2811 6.29345 9.83445 6.31282 10.8802 6.31282C14.6289 6.31282 17.6788 9.36267 17.6788 13.1115V14.8041C17.1668 14.6938 17.3288 14.7377 9.29281 14.7377C8.70859 14.7377 8.14898 14.6079 7.64477 14.3734C6.53547 13.8577 5.69422 12.8356 5.44781 11.576C5.35367 11.0948 4.76133 10.95 4.44492 11.2882C3.59969 12.1918 3.00875 13.2622 2.68789 14.3731C2.285 12.5506 2.25242 10.2249 2.26688 9.04024ZM3.64977 19.9997C3.60234 19.7163 3.35711 19.5104 3.07211 19.5104C3.06422 19.5104 3.05625 19.5106 3.04828 19.5109C3.02383 19.5119 2.99938 19.5128 2.97469 19.5128C1.98063 19.5128 1.17188 18.7042 1.17188 17.7101C1.17188 16.7327 1.95094 15.9427 2.90922 15.9089C2.91156 15.9088 2.91398 15.9088 2.91633 15.9088C2.95992 15.9074 3.00352 15.9074 3.04688 15.9092C3.04781 15.9092 3.04875 15.9092 3.04969 15.9093C3.05148 15.9094 3.05328 15.9092 3.05508 15.9092C3.34734 15.9183 3.60141 15.7095 3.64977 15.4205C3.78203 14.6296 4.05977 13.8773 4.46711 13.1952C4.52531 13.0978 4.58617 13.0018 4.64961 12.9074C5.45617 14.6987 7.25953 15.9097 9.29281 15.9097H17.1284H17.1287C17.4132 15.9228 17.7095 16.0087 17.9648 16.1608C17.9694 16.1635 17.9742 16.1653 17.9788 16.1679C18.5009 16.4836 18.8468 17.0555 18.8468 17.71C18.8468 18.7041 18.038 19.5127 17.044 19.5127C17.0193 19.5127 16.9948 19.5117 16.9703 19.5108C16.6755 19.5002 16.4176 19.7084 16.3688 19.9996C15.8378 23.1749 13.1055 25.3763 10.0093 25.3763C6.8893 25.3763 4.17703 23.1524 3.64977 19.9997ZM9.90258 28.3796C8.75602 28.3223 7.82117 27.4304 7.70383 26.2931C7.70297 26.2845 7.7025 26.2759 7.70172 26.2673C7.69938 26.242 7.69742 26.2165 7.69594 26.1909C8.46758 26.4372 9.27219 26.5481 10.0095 26.5481C10.7606 26.5481 11.5717 26.4333 12.3452 26.1837C12.2744 27.4598 11.1804 28.4434 9.90258 28.3796ZM15.1767 25.4656H13.9223C14.2855 25.2483 14.6325 25.0009 14.9577 24.7231C16.1977 23.6632 17.0646 22.2341 17.4315 20.6596C18.5206 20.5174 19.4263 19.7835 19.8147 18.7923C19.847 19.102 19.9315 19.3963 20.0591 19.6665C18.6004 20.3984 17.633 21.9159 17.633 23.5852V26.4102C16.9817 25.8234 16.1203 25.4656 15.1767 25.4656ZM18.8049 26.5879V23.5852C18.8049 22.2814 19.6104 21.1032 20.7989 20.6153C21.1881 20.9331 21.6568 21.1328 22.1254 21.2017C22.2607 21.7669 22.4737 22.319 22.731 22.8056V23.3789C22.731 25.1483 21.2916 26.5878 19.5222 26.5878H18.8049V26.5879ZM35.885 33.6883H21.7873V29.3679C21.7873 28.0401 22.8677 26.9599 24.1955 26.9599H25.6327C25.6543 28.6901 27.0688 30.1132 28.8262 30.1132C30.5634 30.1132 31.9977 28.712 32.0197 26.9599H33.4769C34.8047 26.9599 35.8849 28.0401 35.8849 29.3679V33.6883H35.885ZM38.8281 26.5879H38.1108C36.3414 26.5879 34.902 25.1484 34.902 23.379V22.8057C35.163 22.3118 35.374 21.7598 35.5076 21.2017C35.9478 21.1371 36.3917 20.9582 36.7778 20.6583C36.7965 20.6438 36.8158 20.6304 36.8341 20.6155C38.0227 21.1033 38.8281 22.2814 38.8281 23.5852V26.5879Z" fill="#1972DB"/>
<path d="M10.0097 23.1575C11.1566 23.1575 12.0896 22.2245 12.0896 21.0776C12.0896 20.7539 11.8273 20.4916 11.5037 20.4916C11.1801 20.4916 10.9177 20.7539 10.9177 21.0776C10.9177 21.5783 10.5104 21.9856 10.0097 21.9856C9.50898 21.9856 9.10156 21.5783 9.10156 21.0776C9.10156 20.7539 8.83922 20.4916 8.51563 20.4916C8.19203 20.4916 7.92969 20.7539 7.92969 21.0776C7.92977 22.2244 8.86281 23.1575 10.0097 23.1575Z" fill="#1972DB"/>
<path d="M6.57422 16.9972C6.25062 16.9972 5.98828 17.2595 5.98828 17.5831V18.8786C5.98828 19.2023 6.25062 19.4645 6.57422 19.4645C6.89781 19.4645 7.16016 19.2023 7.16016 18.8786V17.5831C7.16016 17.2595 6.89781 16.9972 6.57422 16.9972Z" fill="#1972DB"/>
<path d="M13.4434 19.4645C13.767 19.4645 14.0293 19.2023 14.0293 18.8786V17.5831C14.0293 17.2595 13.767 16.9972 13.4434 16.9972C13.1198 16.9972 12.8574 17.2595 12.8574 17.5831V18.8786C12.8574 19.2023 13.1198 19.4645 13.4434 19.4645Z" fill="#1972DB"/>
</g>
<defs>
<clipPath id="clip0_2757_12347">
<rect width="40" height="40" fill="white"/>
</clipPath>
</defs>
</svg>
