<svg width="24" height="25" viewBox="0 0 24 25" fill="none" xmlns="http://www.w3.org/2000/svg">
<g clip-path="url(#clip0_4024_11132)">
<path d="M7.99967 17.1667C7.99967 17.9 8.59967 18.5 9.33301 18.5H14.6663C15.3997 18.5 15.9997 17.9 15.9997 17.1667V9.16667H7.99967V17.1667ZM9.63967 12.42L10.5797 11.48L11.9997 12.8933L13.413 11.48L14.353 12.42L12.9397 13.8333L14.353 15.2467L13.413 16.1867L11.9997 14.7733L10.5863 16.1867L9.64634 15.2467L11.0597 13.8333L9.63967 12.42ZM14.333 7.16667L13.6663 6.5H10.333L9.66634 7.16667H7.33301V8.5H16.6663V7.16667H14.333Z" fill="#F74343"/>
</g>
<defs>
<clipPath id="clip0_4024_11132">
<rect width="16" height="16" fill="white" transform="translate(4 4.5)"/>
</clipPath>
</defs>
</svg>
