<svg width="24" height="24" viewBox="0 0 24 24" fill="none" xmlns="http://www.w3.org/2000/svg">
<path d="M22.5773 10.5455L19.8611 9.93884C19.6753 9.22761 19.3923 8.54481 19.017 7.90245L20.5084 5.54675C20.6239 5.36431 20.5975 5.1262 20.4448 4.97352L19.0264 3.55508C18.8734 3.40217 18.635 3.37595 18.4526 3.49175L16.098 4.98649C15.4644 4.61426 14.7816 4.33041 14.0613 4.13994L13.4543 1.42263C13.4072 1.21166 13.22 1.06171 13.0039 1.06171L10.9958 1.06171C10.7797 1.06171 10.5925 1.21171 10.5454 1.42263L9.93843 4.13994C9.21806 4.33041 8.53526 4.61426 7.90175 4.98649L5.54712 3.49175C5.36463 3.37591 5.12625 3.40226 4.97343 3.55503L3.55494 4.97352C3.40226 5.1262 3.37586 5.36431 3.49134 5.54675L4.98271 7.9024C4.60748 8.54477 4.32442 9.22757 4.1386 9.9388L1.42245 10.5455C1.21152 10.5926 1.06152 10.7798 1.06152 10.9959L1.06152 13.004C1.06152 13.2201 1.21152 13.4073 1.42245 13.4544L4.13851 14.0611C4.32515 14.7769 4.60808 15.4598 4.98234 16.0981L3.49134 18.4532C3.37586 18.6356 3.40226 18.8737 3.55494 19.0264L4.97343 20.4449C5.12611 20.5976 5.36426 20.624 5.54666 20.5085L7.90235 19.0171C8.54472 19.3924 9.22752 19.6754 9.93875 19.8612L10.5454 22.5774C10.5926 22.7883 10.7797 22.9383 10.9959 22.9383L13.0039 22.9383C13.2201 22.9383 13.4072 22.7883 13.4544 22.5774L14.0611 19.8613C14.7769 19.6746 15.4598 19.3917 16.0981 19.0175L18.4532 20.5085C18.6355 20.624 18.8736 20.5976 19.0264 20.4449L20.4448 19.0265C20.5975 18.8738 20.6239 18.6357 20.5084 18.4533L19.0171 16.0976C19.3923 15.4552 19.6754 14.7724 19.8612 14.0612L22.5773 13.4545C22.7883 13.4074 22.9383 13.2202 22.9383 13.004L22.9383 10.996C22.9382 10.7798 22.7882 10.5926 22.5773 10.5455ZM22.0151 12.6342L19.3796 13.2229C19.2049 13.2619 19.0685 13.3984 19.0296 13.5732C18.8506 14.3786 18.5324 15.1466 18.0839 15.8558C17.9886 16.0066 17.9886 16.1987 18.084 16.3494L19.531 18.6349L18.6349 19.531L16.3493 18.084C16.1983 17.9884 16.0055 17.9886 15.8547 18.0846C15.1527 18.5313 14.3851 18.8492 13.5731 19.0297C13.3984 19.0686 13.2618 19.205 13.2228 19.3797L12.6341 22.0152L11.3657 22.0152L10.777 19.3797C10.738 19.205 10.6014 19.0686 10.4267 19.0297C9.62126 18.8507 8.85331 18.5325 8.14411 18.084C7.99337 17.9887 7.80119 17.9886 7.65054 18.0841L5.365 19.5311L4.46888 18.635L5.91585 16.3494C6.01148 16.1984 6.01125 16.0056 5.91525 15.8548C5.46857 15.1528 5.15062 14.3852 4.9702 13.5732C4.93139 13.3984 4.795 13.2619 4.62026 13.2229L1.98465 12.6342L1.98465 11.3658L4.62026 10.7771C4.79495 10.738 4.93134 10.6015 4.9702 10.4267C5.14919 9.62135 5.46737 8.85335 5.91594 8.1442C6.01129 7.99346 6.01125 7.80128 5.91585 7.65058L4.46888 5.36509L5.36468 4.46925L7.65003 5.92005C7.80137 6.01614 7.99471 6.01591 8.14577 5.9194C8.84071 5.47568 9.6088 5.15615 10.4288 4.96983C10.6026 4.93032 10.7381 4.79431 10.777 4.6204L11.3656 1.98478L12.634 1.98478L13.2227 4.6204C13.2616 4.79431 13.3971 4.93032 13.5709 4.96983C14.3909 5.1562 15.159 5.47568 15.854 5.9194C16.005 6.01586 16.1983 6.01618 16.3497 5.92005L18.6351 4.46925L19.5309 5.36505L18.0839 7.65058C17.9885 7.80128 17.9884 7.99346 18.0838 8.14415C18.5323 8.85335 18.8505 9.62131 19.0295 10.4267C19.0684 10.6015 19.2048 10.738 19.3795 10.777L22.015 11.3657L22.015 12.6342L22.0151 12.6342Z" fill="white"/>
<path d="M12.0057 6.29744C8.85812 6.29744 6.29736 8.85819 6.29736 12.0057C6.29736 15.147 8.85812 17.7026 12.0057 17.7026C15.1469 17.7026 17.7025 15.147 17.7025 12.0057C17.7025 8.85819 15.1469 6.29744 12.0057 6.29744ZM12.0057 16.7795C9.3671 16.7795 7.22044 14.638 7.22044 12.0057C7.22044 9.36718 9.3671 7.22052 12.0057 7.22052C14.6379 7.22052 16.7794 9.36718 16.7794 12.0057C16.7794 14.638 14.6379 16.7795 12.0057 16.7795Z" fill="white"/>
<path d="M2.30724 6.92306C2.56214 6.92306 2.76878 6.71642 2.76878 6.46152C2.76878 6.20662 2.56214 5.99998 2.30724 5.99998C2.05234 5.99998 1.8457 6.20662 1.8457 6.46152C1.8457 6.71642 2.05234 6.92306 2.30724 6.92306Z" fill="white"/>
<path d="M5.5382 2.76921C5.7931 2.76921 5.99974 2.56257 5.99974 2.30767C5.99974 2.05277 5.7931 1.84613 5.5382 1.84613C5.2833 1.84613 5.07666 2.05277 5.07666 2.30767C5.07666 2.56257 5.2833 2.76921 5.5382 2.76921Z" fill="white"/>
<path d="M15.2306 3.23076C15.4855 3.23076 15.6921 3.02412 15.6921 2.76922C15.6921 2.51432 15.4855 2.30768 15.2306 2.30768C14.9757 2.30768 14.769 2.51432 14.769 2.76922C14.769 3.02412 14.9757 3.23076 15.2306 3.23076Z" fill="white"/>
<path d="M8.76916 21.6923C9.02406 21.6923 9.23069 21.4856 9.23069 21.2307C9.23069 20.9758 9.02406 20.7692 8.76916 20.7692C8.51425 20.7692 8.30762 20.9758 8.30762 21.2307C8.30762 21.4856 8.51425 21.6923 8.76916 21.6923Z" fill="white"/>
<path d="M21.2306 21.2308C21.4855 21.2308 21.6921 21.0241 21.6921 20.7692C21.6921 20.5143 21.4855 20.3077 21.2306 20.3077C20.9757 20.3077 20.769 20.5143 20.769 20.7692C20.769 21.0241 20.9757 21.2308 21.2306 21.2308Z" fill="white"/>
<path d="M2.30724 17.0769C2.56214 17.0769 2.76878 16.8703 2.76878 16.6154C2.76878 16.3605 2.56214 16.1538 2.30724 16.1538C2.05234 16.1538 1.8457 16.3605 1.8457 16.6154C1.8457 16.8703 2.05234 17.0769 2.30724 17.0769Z" fill="white"/>
<path d="M13.1535 10.7423L13.1535 9.69229L13.3842 9.69229C13.6391 9.69229 13.8458 9.48566 13.8458 9.23075C13.8458 8.97584 13.6391 8.76921 13.3842 8.76921C12.4186 8.76921 11.5846 8.76921 10.615 8.76921C10.3601 8.76921 10.1535 8.97584 10.1535 9.23075C10.1535 9.48566 10.3601 9.69229 10.615 9.69229L10.8458 9.69229L10.8458 10.7423C9.0641 13.62 9.16443 13.4504 9.14265 13.4972C8.76539 14.3055 9.35616 15.2308 10.2466 15.2308L13.7526 15.2308C14.6447 15.2308 15.2332 14.3041 14.8566 13.4972C14.8489 13.4807 14.9351 13.6199 13.1535 10.7423ZM13.7526 14.3077L10.2466 14.3077C10.0356 14.3077 9.89754 14.0951 9.97065 13.9072L11.6996 11.1168C11.7448 11.0438 11.7688 10.9596 11.7688 10.8737L11.7688 9.69229L12.2304 9.69229L12.2304 10.8737C12.2304 10.9596 12.2544 11.0438 12.2996 11.1168L14.0286 13.9072C14.1016 14.0949 13.964 14.3077 13.7526 14.3077Z" fill="white"/>
<path d="M2.30747 19.8461C1.54399 19.8461 0.922852 20.4673 0.922852 21.2307C0.922852 21.9942 1.54399 22.6154 2.30747 22.6154C3.07094 22.6154 3.69208 21.9942 3.69208 21.2307C3.69208 20.4673 3.07094 19.8461 2.30747 19.8461ZM2.30747 21.6923C2.05297 21.6923 1.84593 21.4852 1.84593 21.2307C1.84593 20.9763 2.05297 20.7692 2.30747 20.7692C2.56196 20.7692 2.76901 20.9763 2.76901 21.2307C2.76901 21.4852 2.56196 21.6923 2.30747 21.6923Z" fill="white"/>
<path d="M20.5381 3.69229C21.1744 3.69229 21.692 3.17467 21.692 2.53844C21.692 1.90221 21.1744 1.3846 20.5381 1.3846C19.9019 1.3846 19.3843 1.90221 19.3843 2.53844C19.3843 3.17467 19.9019 3.69229 20.5381 3.69229ZM20.5381 2.30767C20.6654 2.30767 20.7689 2.4112 20.7689 2.53844C20.7689 2.66569 20.6654 2.76921 20.5381 2.76921C20.4109 2.76921 20.3074 2.66569 20.3074 2.53844C20.3074 2.4112 20.4109 2.30767 20.5381 2.30767Z" fill="white"/>
</svg>
