<svg width="24" height="24" viewBox="0 0 24 24" fill="none" xmlns="http://www.w3.org/2000/svg">
<g clip-path="url(#clip0_2651_8286)">
<path d="M12.3192 23.1998C12.232 23.1126 12.1111 23.0625 11.9878 23.0625C11.8645 23.0625 11.7435 23.1126 11.6564 23.1998C11.5692 23.287 11.519 23.4079 11.519 23.5312C11.519 23.6545 11.5692 23.7754 11.6564 23.8626C11.7435 23.9498 11.8645 24 11.9878 24C12.1111 24 12.232 23.9498 12.3192 23.8626C12.4063 23.7754 12.4565 23.6545 12.4565 23.5312C12.4565 23.4079 12.4064 23.287 12.3192 23.1998Z" fill="white"/>
<path d="M21.495 15.3314L19.9313 14.9579L19.9313 14.3376C20.7993 13.789 21.3773 12.8216 21.3773 11.7212L21.3773 9.97426C21.3773 8.26834 19.9895 6.88051 18.2835 6.88051C17.3633 6.88051 16.536 7.28485 15.9688 7.92465C15.472 6.2042 13.8831 4.94232 12.0049 4.94232L12.0048 4.94232C10.1235 4.94232 8.53247 6.20818 8.03845 7.93285C7.47108 7.28832 6.64083 6.88051 5.71664 6.88051C4.01067 6.88051 2.6228 8.26838 2.6228 9.97426L2.6228 11.7212C2.6228 12.8216 3.20086 13.7891 4.0688 14.3376L4.0688 14.9579L2.50514 15.3314C1.03013 15.6837 -2.02528e-08 16.9889 -2.28021e-08 18.5052L-2.80995e-08 21.6562C-2.85348e-08 21.9151 0.209906 22.125 0.46875 22.125L4.21702 22.125L4.21702 23.5312C4.21702 23.7901 4.42692 24 4.68577 24L9.82814 24C10.087 24 10.2969 23.7901 10.2969 23.5312C10.2969 23.2723 10.087 23.0625 9.82814 23.0625L7.7355 23.0625L7.7355 20.9994C7.7355 20.7405 7.52559 20.5307 7.26675 20.5307C7.00791 20.5307 6.798 20.7405 6.798 20.9994L6.798 23.0625L5.15447 23.0625L5.15447 20.9476C5.15447 19.3578 6.23419 17.9889 7.78017 17.6184L10.0856 17.0659L11.569 20.4407C11.6438 20.6109 11.8122 20.7209 11.9981 20.7209L11.9981 20.7209C12.184 20.7209 12.3524 20.611 12.4272 20.4408L13.9091 17.0709L16.2079 17.62C17.7553 17.9897 18.8359 19.3589 18.8359 20.9498L18.8359 21.4728C18.812 21.5292 18.7987 21.5911 18.7987 21.6562C18.7987 21.7212 18.812 21.7832 18.8359 21.8395L18.8359 23.0625L17.202 23.0625L17.202 20.9994C17.202 20.7405 16.9921 20.5307 16.7332 20.5307C16.4744 20.5307 16.2645 20.7405 16.2645 20.9994L16.2645 23.0625L13.9688 23.0625C13.71 23.0625 13.5 23.2723 13.5 23.5312C13.5 23.7901 13.71 24 13.9688 24L19.3047 24C19.5635 24 19.7734 23.7901 19.7734 23.5312L19.7734 22.125L23.5312 22.125C23.7901 22.125 24 21.9151 24 21.6562L24 18.5052C24 16.9889 22.9699 15.6837 21.495 15.3314ZM18.2835 7.81801C19.4724 7.81801 20.4398 8.78532 20.4398 9.97426L20.4398 10.0903L20.4398 10.1374L19.099 10.1374C18.0863 10.1374 17.091 9.87151 16.214 9.36746C16.4768 8.47299 17.305 7.81801 18.2835 7.81801ZM16.1271 11.6446C16.1287 11.5968 16.1299 10.3843 16.1299 10.3843C17.0514 10.8375 18.0674 11.075 19.0991 11.075L20.4398 11.075L20.4398 11.7212C20.4398 12.9101 19.4724 13.8774 18.2835 13.8774C17.0945 13.8774 16.1271 12.9101 16.1271 11.7212L16.1271 11.6446ZM8.81719 9.06737C8.81719 7.30974 10.2472 5.87987 12.0048 5.87987C13.7625 5.87987 15.1924 7.30979 15.1924 9.06737L15.1924 9.12849L13.4527 8.10638C13.2553 7.99037 13.003 8.03401 12.8559 8.20946C12.18 9.01609 11.1887 9.47874 10.1362 9.47874L8.81719 9.47874L8.81719 9.06737ZM3.5602 10.0904L3.5602 9.97426C3.5602 8.78528 4.52756 7.81801 5.71655 7.81801C6.69497 7.81801 7.52325 8.47299 7.78598 9.36751C6.90891 9.87151 5.91375 10.1375 4.90092 10.1375L3.5602 10.1375L3.5602 10.0904ZM3.5602 11.7212L3.5602 11.0749L4.90097 11.0749C5.93372 11.0749 6.95067 10.837 7.87289 10.3829L7.87289 11.7212C7.87289 12.9101 6.90553 13.8774 5.71655 13.8774C4.52756 13.8774 3.5602 12.9101 3.5602 11.7212ZM4.21702 20.9476L4.21702 21.1875L2.8125 21.1875L2.8125 19.1049C2.8125 18.846 2.60259 18.6361 2.34375 18.6361C2.08491 18.6361 1.875 18.846 1.875 19.1049L1.875 21.1875L0.9375 21.1875L0.9375 18.5052C0.9375 17.4245 1.67166 16.4944 2.72283 16.2433L4.20867 15.8883L5.17842 18.2112C4.57191 18.9647 4.21702 19.9197 4.21702 20.9476ZM5.71664 17.0669L5.00475 15.3616C5.00555 15.3504 5.0062 15.3392 5.0062 15.3279L5.0062 14.7317C5.23444 14.7855 5.47209 14.8149 5.71655 14.8149C5.95992 14.8149 6.19645 14.7857 6.4238 14.7324L6.4238 15.2982C6.42328 15.307 6.42305 15.3158 6.42305 15.3246C6.42305 15.3394 6.42445 15.3541 6.42586 15.3687L5.71664 17.0669ZM7.56173 16.7067C7.28494 16.7731 7.02042 16.8654 6.76927 16.9792L7.22583 15.8859L8.71191 16.2421C8.82717 16.2697 8.93948 16.3062 9.04819 16.3505L7.56173 16.7067ZM9.88842 15.7297C9.59414 15.5472 9.27127 15.412 8.93039 15.3304L7.3613 14.9544L7.3613 14.3396C7.75153 14.0937 8.08298 13.7631 8.33006 13.3737C8.68345 14.0641 9.22584 14.6423 9.88842 15.0399L9.88842 15.7297ZM13.1687 16.4256L11.9982 19.0874L10.8259 16.4204L10.8259 15.4536C11.1996 15.5653 11.5953 15.6255 12.0048 15.6255C12.4088 15.6255 12.7995 15.5668 13.1687 15.458L13.1687 16.4256ZM12.0048 14.6881C10.2471 14.688 8.81719 13.2581 8.81719 11.5005L8.81719 10.4163L10.1362 10.4163C11.3326 10.4163 12.4665 9.94342 13.3043 9.10656L15.1897 10.2142L15.1897 11.6105C15.1313 13.3173 13.7256 14.6881 12.0048 14.6881ZM14.1062 15.0488L14.1063 15.0488C14.7729 14.6524 15.3191 14.0739 15.6752 13.3819C15.9218 13.7678 16.2513 14.0954 16.6387 14.3396L16.6387 14.9544L15.0696 15.3304C14.7267 15.4126 14.402 15.5489 14.1062 15.7331L14.1062 15.0488ZM16.4257 16.7083L14.9432 16.3541C15.0546 16.3082 15.1698 16.2704 15.2881 16.2421L16.7706 15.8868L17.229 16.9849C16.9746 16.8691 16.7064 16.7754 16.4257 16.7083ZM17.5732 15.3757C17.575 15.3587 17.5764 15.3416 17.5764 15.3244C17.5764 15.3201 17.5763 15.3157 17.5762 15.3113L17.5762 14.7324C17.8035 14.7858 18.0401 14.8149 18.2835 14.8149C18.5279 14.8149 18.7656 14.7855 18.9938 14.7317L18.9938 15.3278C18.9938 15.3363 18.9944 15.3447 18.9949 15.3532L18.2792 17.0669L17.5732 15.3757ZM23.0625 21.1875L22.125 21.1875L22.125 19.1049C22.125 18.846 21.9151 18.6361 21.6562 18.6361C21.3974 18.6361 21.1875 18.846 21.1875 19.1049L21.1875 21.1875L19.7734 21.1875L19.7734 20.9498C19.7734 19.9233 19.4197 18.9696 18.8149 18.2168L19.7877 15.8874L21.2772 16.2433C22.3283 16.4944 23.0625 17.4245 23.0625 18.5052L23.0625 21.1875Z" fill="white"/>
<path d="M10.7591 10.9772C10.672 10.89 10.551 10.8398 10.4277 10.8398C10.3045 10.8398 10.1835 10.89 10.0963 10.9772C10.0091 11.0643 9.95898 11.1853 9.95898 11.3086C9.95898 11.4318 10.0091 11.5528 10.0963 11.64C10.1836 11.7272 10.3045 11.7773 10.4277 11.7773C10.5515 11.7773 10.672 11.7272 10.7591 11.64C10.8468 11.5528 10.8965 11.4318 10.8965 11.3086C10.8965 11.1853 10.8468 11.0643 10.7591 10.9772Z" fill="white"/>
<path d="M13.8939 10.9772C13.8067 10.89 13.6858 10.8398 13.5625 10.8398C13.4392 10.8398 13.3183 10.89 13.2311 10.9772C13.1439 11.0643 13.0937 11.1853 13.0937 11.3086C13.0937 11.4318 13.1439 11.5528 13.2311 11.64C13.3183 11.7272 13.4392 11.7773 13.5625 11.7773C13.6858 11.7773 13.8067 11.7272 13.8939 11.64C13.9815 11.5528 14.0312 11.4318 14.0312 11.3086C14.0312 11.1853 13.9815 11.0643 13.8939 10.9772Z" fill="white"/>
<path d="M12.902 12.5551C12.7189 12.372 12.4221 12.372 12.239 12.5551C12.1004 12.6937 11.8749 12.6937 11.7363 12.5551C11.5532 12.372 11.2565 12.372 11.0733 12.5551C10.8903 12.7381 10.8903 13.0349 11.0733 13.218C11.3254 13.4701 11.6565 13.5961 11.9876 13.5961C12.3187 13.5961 12.6498 13.4701 12.9019 13.218C13.085 13.0349 13.085 12.7381 12.902 12.5551Z" fill="white"/>
<path d="M19.3821 2.53122L19.0605 2.53122C18.8017 2.53122 18.5918 2.74108 18.5918 2.99997C18.5918 3.25886 18.8017 3.46872 19.0605 3.46872L19.3821 3.46872C19.6409 3.46872 19.8508 3.25886 19.8508 2.99997C19.8508 2.74108 19.6409 2.53122 19.3821 2.53122Z" fill="white"/>
<path d="M21.6565 2.53122L21.335 2.53122C21.0761 2.53122 20.8662 2.74108 20.8662 2.99997C20.8662 3.25886 21.0761 3.46872 21.335 3.46872L21.6565 3.46872C21.9153 3.46872 22.1252 3.25886 22.1252 2.99997C22.1252 2.74108 21.9153 2.53122 21.6565 2.53122Z" fill="white"/>
<path d="M20.3584 3.50768C20.0996 3.50768 19.8896 3.71753 19.8896 3.97643L19.8896 4.29794C19.8896 4.55683 20.0995 4.76669 20.3584 4.76669C20.6172 4.76669 20.8271 4.55683 20.8271 4.29794L20.8271 3.97643C20.8271 3.71753 20.6172 3.50768 20.3584 3.50768Z" fill="white"/>
<path d="M20.3584 1.23325C20.0996 1.23325 19.8896 1.44311 19.8896 1.702L19.8896 2.02351C19.8896 2.2824 20.0995 2.49226 20.3584 2.49226C20.6172 2.49226 20.8271 2.2824 20.8271 2.02351L20.8271 1.702C20.8271 1.44311 20.6172 1.23325 20.3584 1.23325Z" fill="white"/>
<path d="M2.63934 2.53122L2.31787 2.53122C2.05903 2.53122 1.84912 2.74108 1.84912 2.99997C1.84912 3.25886 2.05903 3.46872 2.31787 3.46872L2.63934 3.46872C2.89818 3.46872 3.10809 3.25886 3.10809 2.99997C3.10809 2.74108 2.89818 2.53122 2.63934 2.53122Z" fill="white"/>
<path d="M4.91375 2.53122L4.59229 2.53122C4.33344 2.53122 4.12354 2.74108 4.12354 2.99997C4.12354 3.25886 4.33339 3.46872 4.59229 3.46872L4.91375 3.46872C5.1726 3.46872 5.3825 3.25886 5.3825 2.99997C5.3825 2.74108 5.1726 2.53122 4.91375 2.53122Z" fill="white"/>
<path d="M3.61572 3.50768C3.35688 3.50768 3.14697 3.71753 3.14697 3.97643L3.14697 4.29794C3.14697 4.55683 3.35683 4.76669 3.61572 4.76669C3.87457 4.76669 4.08447 4.55683 4.08447 4.29794L4.08447 3.97643C4.08447 3.71753 3.87457 3.50768 3.61572 3.50768Z" fill="white"/>
<path d="M3.61572 1.23325C3.35688 1.23325 3.14697 1.44311 3.14697 1.702L3.14697 2.02351C3.14697 2.2824 3.35683 2.49226 3.61572 2.49226C3.87457 2.49226 4.08447 2.2824 4.08447 2.02351L4.08447 1.702C4.08447 1.44311 3.87457 1.23325 3.61572 1.23325Z" fill="white"/>
<path d="M12 1.78529C11.7412 1.78529 11.5312 1.99515 11.5312 2.25404L11.5312 3.48732C11.5312 3.74622 11.7412 3.95607 12 3.95607C12.2588 3.95607 12.4687 3.74622 12.4687 3.48732L12.4687 2.25404C12.4687 1.99515 12.2588 1.78529 12 1.78529Z" fill="white"/>
<path d="M12.3314 0.137313C12.2442 0.0501257 12.1233 -3.05186e-05 12 -3.05184e-05C11.8767 -3.05181e-05 11.7558 0.0501257 11.6686 0.137313C11.5814 0.224501 11.5312 0.345438 11.5312 0.468719C11.5312 0.592001 11.5814 0.712938 11.6686 0.800126C11.7558 0.887313 11.8767 0.937469 12 0.937469C12.1233 0.937469 12.2442 0.887313 12.3314 0.800126C12.4186 0.712938 12.4687 0.592001 12.4687 0.468719C12.4687 0.345438 12.4186 0.224501 12.3314 0.137313Z" fill="white"/>
<path d="M10.3573 1.88055L9.67133 1.19458C9.48824 1.01154 9.19152 1.01154 9.00838 1.19458C8.82533 1.37763 8.82533 1.67444 9.00838 1.85753L9.69439 2.5435C9.78594 2.63505 9.90589 2.6808 10.0258 2.6808C10.1458 2.6808 10.2658 2.63505 10.3573 2.5435C10.5403 2.36046 10.5403 2.06364 10.3573 1.88055Z" fill="white"/>
<path d="M14.9916 1.16879C14.8085 0.985748 14.5117 0.985748 14.3286 1.16879L13.6197 1.87769C13.4367 2.06073 13.4367 2.35754 13.6197 2.54064C13.7113 2.63219 13.8312 2.67794 13.9512 2.67794C14.0712 2.67794 14.1911 2.63219 14.2827 2.54064L14.9916 1.83175C15.1746 1.6487 15.1746 1.35189 14.9916 1.16879Z" fill="white"/>
</g>
<defs>
<clipPath id="clip0_2651_8286">
<rect width="24" height="24" fill="white"/>
</clipPath>
</defs>
</svg>
