<svg width="32" height="32" viewBox="0 0 32 32" fill="none" xmlns="http://www.w3.org/2000/svg">
<path d="M12.4719 29.4317C12.4719 29.7077 12.2523 29.934 11.9758 29.934C11.6993 29.934 11.4727 29.7077 11.4727 29.4317V23.1418C11.4727 22.7175 11.6567 22.3353 11.9545 22.0595C12.2453 21.7908 12.6352 21.6281 13.0674 21.6281H18.9287C19.3609 21.6281 19.7579 21.7905 20.0411 22.0595C20.3386 22.3355 20.5234 22.7175 20.5234 23.1418V29.4317C20.5234 29.7077 20.3036 29.934 20.0271 29.934C19.7506 29.934 19.524 29.7077 19.524 29.4317V23.1418C19.524 23.0075 19.4671 22.88 19.3679 22.7883C19.2547 22.6893 19.1057 22.6255 18.9287 22.6255H16.4974V29.432C16.4974 29.708 16.278 29.9342 16.0016 29.9342C15.7253 29.9342 15.4984 29.708 15.4984 29.432V22.6253H13.0674C12.8974 22.6253 12.7484 22.6893 12.6352 22.788C12.536 22.8798 12.4722 23.0073 12.4722 23.1415V29.4317H12.4719Z" fill="#5A5A5A"/>
<path d="M11.0625 14.9209H14.3367C14.6132 14.9209 14.8329 15.1404 14.8329 15.4162V18.4586C14.8329 18.7346 14.6132 18.9534 14.3367 18.9534H11.0625C10.786 18.9534 10.5664 18.7344 10.5664 18.4586V15.4162C10.5662 15.1404 10.786 14.9209 11.0625 14.9209ZM11.0625 8.8717H14.3367C14.6132 8.8717 14.8329 9.0912 14.8329 9.36695V12.4092C14.8329 12.6852 14.6132 12.9044 14.3367 12.9044H11.0625C10.786 12.9044 10.5664 12.6849 10.5664 12.4092V9.3672C10.5662 9.0912 10.786 8.8717 11.0625 8.8717ZM13.8336 9.8697H11.5657V11.9069H13.8336V9.8697ZM19.3049 11.9069C19.5814 11.9069 19.8008 12.1334 19.8008 12.4094C19.8008 12.6854 19.5811 12.9047 19.3049 12.9047H17.6678C17.3913 12.9047 17.1644 12.6852 17.1644 12.4094V9.3672C17.1644 9.0912 17.3911 8.87195 17.6678 8.87195C17.9443 8.87195 18.1639 9.09145 18.1639 9.3672V11.9069H19.3049ZM17.6678 14.9209H20.935C21.2115 14.9209 21.4381 15.1404 21.4381 15.4162V18.4586C21.4381 18.7346 21.2115 18.9534 20.935 18.9534H17.6678C17.3913 18.9534 17.1644 18.7344 17.1644 18.4586V15.4162C17.1644 15.1404 17.3913 14.9209 17.6678 14.9209ZM20.4391 15.9186H18.1642V17.9561H20.4391V15.9186ZM13.8336 15.9186H11.5657V17.9561H13.8336V15.9186Z" fill="#5A5A5A"/>
<path d="M24.4212 15.3244C24.2797 15.5579 23.9751 15.6426 23.741 15.5011C23.6628 15.4516 23.5992 15.3881 23.5567 15.3174L19.2617 8.05119C19.0418 7.67619 18.8577 7.19519 18.7445 6.7707C18.6308 6.33195 18.5742 5.87945 18.5742 5.41221C18.5742 3.91922 19.1768 2.56823 20.1617 1.58449C21.1399 0.608495 22.4936 0 23.9962 0C25.4915 0 26.8451 0.608495 27.8304 1.58474C28.8083 2.56848 29.4181 3.91947 29.4181 5.41246C29.4181 5.87945 29.3543 6.3322 29.2411 6.77095C29.1274 7.22394 28.9501 7.64819 28.7307 8.04444L24.4212 15.3244ZM23.9962 14.0931L27.8657 7.54869C28.043 7.23044 28.1847 6.8837 28.2769 6.52295C28.3688 6.16895 28.4184 5.8012 28.4184 5.41221C28.4184 4.19522 27.9228 3.09173 27.1216 2.29223C26.3207 1.49299 25.2151 0.997492 23.9962 0.997492C22.77 0.997492 21.6644 1.49274 20.8637 2.29223C20.0696 3.09173 19.5737 4.19522 19.5737 5.41221C19.5737 5.80145 19.623 6.16895 19.7084 6.52295C19.8004 6.87645 19.9421 7.21619 20.1122 7.53444L23.9962 14.0931Z" fill="#5A5A5A"/>
<path d="M23.996 2.52576C24.7899 2.52576 25.5127 2.8515 26.0368 3.37475C26.5615 3.89125 26.8876 4.61274 26.8876 5.41223C26.8876 6.21148 26.5613 6.93347 26.0368 7.45697C25.5124 7.97346 24.7899 8.29871 23.996 8.29871C23.1951 8.29871 22.4721 7.97346 21.9477 7.45697C21.4233 6.93347 21.1045 6.21173 21.1045 5.41223C21.1045 4.61274 21.4233 3.89125 21.9477 3.37475C22.4721 2.85125 23.1949 2.52576 23.996 2.52576ZM25.3284 4.07524C24.988 3.73575 24.5134 3.5235 23.996 3.5235C23.4716 3.5235 22.9965 3.73575 22.6564 4.07524C22.3161 4.42199 22.1037 4.88874 22.1037 5.41248C22.1037 5.93598 22.3161 6.40998 22.6564 6.74972C22.9963 7.08922 23.4716 7.30147 23.996 7.30147C24.5134 7.30147 24.988 7.08922 25.3284 6.74972C25.6755 6.41023 25.8881 5.93598 25.8881 5.41248C25.8881 4.88874 25.6755 4.42199 25.3284 4.07524Z" fill="#5A5A5A"/>
<path d="M26.3064 24.3023C26.0299 24.3023 25.8108 24.0761 25.8108 23.8001C25.8108 23.5241 26.0302 23.3046 26.3064 23.3046H28.1208C28.7446 23.3046 29.2976 23.6656 29.5385 24.2386L31.8844 29.941C31.9835 30.1815 32.0189 30.4223 31.9906 30.6628C31.941 31.151 31.6147 31.6035 31.1824 31.83C30.9628 31.9432 30.7218 32 30.4669 32H1.53667C1.28148 32 1.04056 31.9432 0.820925 31.83C0.381408 31.6035 0.0626018 31.151 0.00600301 30.6628C-0.0152841 30.4223 0.0200275 30.1815 0.112188 29.941L2.46529 24.2386C2.70621 23.6656 3.25893 23.3046 3.88277 23.3046H5.68291C5.95939 23.3046 6.17902 23.5243 6.17902 23.8001C6.17902 24.0758 5.95939 24.3023 5.68291 24.3023H3.88277C3.66313 24.3023 3.47155 24.4083 3.38665 24.6206L1.04081 30.3228C1.00525 30.401 0.991222 30.4785 0.998234 30.5565C1.01952 30.7193 1.13297 30.8678 1.27472 30.9458C1.3526 30.9813 1.4375 31.0025 1.53692 31.0025H30.4674C30.5666 31.0025 30.6515 30.9813 30.7226 30.9458C30.8716 30.8678 30.9848 30.7195 30.9991 30.5565C31.0061 30.4785 30.9991 30.401 30.9635 30.3228L28.6177 24.6206C28.5325 24.4081 28.3412 24.3023 28.1216 24.3023H26.3064Z" fill="#5A5A5A"/>
<path d="M23.4929 17.4678C23.4929 17.1918 23.7195 16.9653 23.996 16.9653C24.2725 16.9653 24.4921 17.1918 24.4921 17.4678V29.4315C24.4921 29.7075 24.2722 29.9337 23.996 29.9337H8.00686C7.73038 29.9337 7.51074 29.7075 7.51074 29.4315V7.56317C7.51074 7.13867 7.69506 6.75643 7.99283 6.48068C8.27633 6.21168 8.67327 6.04193 9.10552 6.04193H16.9935C17.27 6.04193 17.4897 6.26818 17.4897 6.54443C17.4897 6.82043 17.2698 7.04667 16.9935 7.04667H9.10552C8.92822 7.04667 8.77946 7.10342 8.66626 7.20942C8.56709 7.30117 8.51024 7.42867 8.51024 7.56317V28.936H23.4931V17.4678H23.4929Z" fill="#5A5A5A"/>
</svg>
