<svg width="32" height="32" viewBox="0 0 32 32" fill="none" xmlns="http://www.w3.org/2000/svg">
<path d="M18.4255 12.208C17.2671 11.0048 15.4047 12.848 16.6047 14.0256C17.8047 15.2032 19.6191 13.376 18.4255 12.208ZM17.5135 13.6032C17.4026 13.5809 17.3028 13.5209 17.2312 13.4334C17.1595 13.3459 17.1203 13.2363 17.1203 13.1232C17.1203 13.0101 17.1595 12.9005 17.2312 12.813C17.3028 12.7255 17.4026 12.6655 17.5135 12.6432C17.6243 12.6655 17.7241 12.7255 17.7957 12.813C17.8674 12.9005 17.9066 13.0101 17.9066 13.1232C17.9066 13.2363 17.8674 13.3459 17.7957 13.4334C17.7241 13.5209 17.6243 13.5809 17.5135 13.6032Z" fill="#5A5A5A"/>
<path d="M4.3774 27.7024H3.1998C3.09372 27.7024 2.99198 27.7445 2.91696 27.8195C2.84195 27.8946 2.7998 27.9963 2.7998 28.1024V30C2.7998 30.1061 2.84195 30.2078 2.91696 30.2828C2.99198 30.3578 3.09372 30.4 3.1998 30.4H27.1998C27.3059 30.4 27.4076 30.3578 27.4826 30.2828C27.5577 30.2078 27.5998 30.1061 27.5998 30V28.1024C27.5998 27.9963 27.5577 27.8946 27.4826 27.8195C27.4076 27.7445 27.3059 27.7024 27.1998 27.7024H26.0318C25.875 19.3824 20.9118 13.808 20.099 12.944C20.0677 12.4549 19.8966 11.9851 19.6062 11.5904L22.4702 8.71038C22.9246 8.28478 21.9614 7.72158 21.7598 7.43038L23.8782 5.31198L24.3198 5.75998C24.6814 6.13118 25.2574 5.55838 24.8862 5.19678C24.8606 5.16158 24.179 4.50878 24.1662 4.46718C23.6478 3.94558 21.8878 2.19518 21.3982 1.70878C21.0366 1.34718 20.4574 1.91998 20.8318 2.28158L21.2734 2.72318L19.155 4.84478C18.867 4.63998 18.3038 3.67998 17.875 4.13438L8.483 13.5296C8.1246 13.872 8.6462 14.2528 8.8702 14.4896C8.6846 14.8096 7.2894 15.6448 7.811 16.1152L10.4926 18.8C10.5692 18.8736 10.6712 18.9149 10.7774 18.9152C10.8828 18.9154 10.984 18.874 11.059 18.8L12.1182 17.7408C12.3486 17.9648 12.7294 18.4864 13.0782 18.128L15.9902 15.216C16.3497 15.4733 16.7698 15.6332 17.2094 15.68C17.4974 16.7264 18.4574 20.6912 16.9854 22.704C16.3998 23.504 15.5038 23.8944 14.2494 23.8944H11.8942V22.9344H14.2494C14.3555 22.9344 14.4572 22.8922 14.5322 22.8172C14.6073 22.7422 14.6494 22.6405 14.6494 22.5344V20.6496C14.6494 20.5435 14.6073 20.4418 14.5322 20.3667C14.4572 20.2917 14.3555 20.2496 14.2494 20.2496H3.811C3.75836 20.2492 3.70615 20.2592 3.65743 20.2792C3.60871 20.2991 3.56444 20.3286 3.52721 20.3658C3.48998 20.403 3.46054 20.4473 3.44058 20.496C3.42063 20.5447 3.41058 20.5969 3.411 20.6496V22.5504C3.41058 22.603 3.42063 22.6552 3.44058 22.704C3.46054 22.7527 3.48998 22.7969 3.52721 22.8342C3.56444 22.8714 3.60871 22.9009 3.65743 22.9208C3.70615 22.9408 3.75836 22.9508 3.811 22.9504H6.1662V24.0864C4.7518 24.8544 4.4446 26.8448 4.3774 27.7024ZM26.7998 29.6H3.5998V28.5024H26.7998V29.6ZM21.1614 27.7024C20.435 22.5472 20.6046 18.7712 21.6318 17.6C21.7767 17.4185 21.9785 17.2912 22.2046 17.2384C24.0812 20.4198 25.1247 24.0233 25.2382 27.7152L21.1614 27.7024ZM17.5134 14.9024C15.187 14.9376 15.1806 11.2736 17.5134 11.3088C19.8398 11.2864 19.8398 14.9472 17.5134 14.912V14.9024ZM21.8398 3.28958L23.3118 4.76478L21.1934 6.88318L19.7182 5.40798L21.8398 3.28958ZM10.7774 17.9456L8.659 15.824L9.4334 15.04L11.5518 17.1584L10.7774 17.9456ZM12.7998 17.28L9.331 13.8112L18.1598 4.98238C19.0366 5.86878 20.7198 7.56478 21.6222 8.44158L19.0622 11.0176C16.7678 9.25758 13.6766 12.3552 15.4334 14.6464L12.7998 17.28ZM17.6318 23.1872C19.251 20.9728 18.3934 17.0208 18.0318 15.6608C18.4679 15.5695 18.8733 15.3681 19.2094 15.0757C19.5455 14.7833 19.8011 14.4096 19.9518 13.9904C20.6183 14.79 21.2289 15.6347 21.779 16.5184C21.4859 16.634 21.2263 16.821 21.0238 17.0624C19.4238 18.9088 19.8878 24.3712 20.3518 27.7024H5.1806C5.251 26.9088 5.5422 25.1712 6.7294 24.7072H14.2494C15.7566 24.7072 16.8926 24.1952 17.6318 23.1872ZM4.211 21.0496H13.8494V22.1504H4.211V21.0496ZM11.0942 22.9504V23.9104H6.9662V22.9504H11.0942Z" fill="#5A5A5A"/>
</svg>
