<svg width="24" height="24" viewBox="0 0 24 24" fill="none" xmlns="http://www.w3.org/2000/svg">
<path d="M14.5483 6.82114H9.45498C8.00431 6.82114 6.82031 7.9998 6.82031 9.4558V14.5491C6.82031 15.9998 7.99898 17.1838 9.45498 17.1838H14.5483C15.999 17.1838 17.183 16.0051 17.183 14.5491V9.4558C17.1776 7.9998 15.999 6.82114 14.5483 6.82114ZM11.999 15.4078C10.1216 15.4078 8.59098 13.8771 8.59098 11.9998C8.59098 10.1225 10.1216 8.5918 11.999 8.5918C13.8763 8.5918 15.407 10.1225 15.407 11.9998C15.407 13.8771 13.8763 15.4078 11.999 15.4078ZM15.5776 8.97047C15.2576 8.97047 15.0016 8.71447 15.0016 8.39447C15.0016 8.07447 15.2576 7.81847 15.5776 7.81847C15.8976 7.81847 16.1536 8.07447 16.1536 8.39447C16.1536 8.71447 15.8976 8.97047 15.5776 8.97047Z" fill="#1972DB"/>
<path d="M14.0717 12.0253C14.0854 10.8824 13.1701 9.9448 12.0272 9.93109C10.8843 9.91737 9.94675 10.8327 9.93304 11.9756C9.91932 13.1184 10.8347 14.056 11.9775 14.0698C13.1204 14.0835 14.058 13.1681 14.0717 12.0253Z" fill="#1972DB"/>
<path d="M12 0C5.37067 0 0 5.37067 0 12C0 18.6293 5.37067 24 12 24C18.6293 24 24 18.6293 24 12C24 5.37067 18.6293 0 12 0ZM18.6667 14.5493C18.6667 16.8213 16.8213 18.6667 14.5493 18.6667H9.456C7.184 18.6667 5.33867 16.8213 5.33867 14.5493V9.456C5.33867 7.184 7.184 5.33867 9.456 5.33867H14.5493C16.8213 5.33867 18.6667 7.184 18.6667 9.456V14.5493Z" fill="#1972DB"/>
</svg>
