<svg width="32" height="32" viewBox="0 0 32 32" fill="none" xmlns="http://www.w3.org/2000/svg">
<path d="M4.39115 27.0537H27.5796C29.4595 27.0516 30.9833 25.5281 30.9854 23.6479V7.91306C30.9833 6.03308 29.4595 4.5093 27.5796 4.50726H4.39115C2.51117 4.5093 0.98739 6.03308 0.985352 7.91306V23.6479C0.98739 25.5281 2.51117 27.0516 4.39115 27.0537ZM4.39115 26.0392C3.86782 26.0399 3.35877 25.8678 2.94323 25.5494L9.87801 18.4563C10.0066 18.327 10.0558 18.1386 10.0071 17.9631C9.9584 17.7874 9.81936 17.6515 9.64273 17.6069C9.46588 17.5621 9.27883 17.6155 9.15247 17.7473L2.28245 24.7742C2.09676 24.428 1.99962 24.041 1.99984 23.6479V9.03127L13.7886 19.0134C15.0578 20.0938 16.9238 20.0933 18.1921 19.0113L29.9709 9.02153V23.6479C29.9713 24.0426 29.8735 24.4307 29.6864 24.7779L22.7752 17.7459C22.5784 17.548 22.2589 17.546 22.0596 17.7414C21.8606 17.9375 21.857 18.257 22.0517 18.457L29.0245 25.5516C28.6094 25.8685 28.1017 26.0399 27.5796 26.0392H4.39115ZM4.39115 5.52176H27.5796C28.8169 5.52357 29.849 6.46741 29.9609 7.69997L17.5361 18.2378C16.6455 18.9973 15.3352 18.9978 14.4441 18.2389L2.00936 7.70971C2.11579 6.4733 3.14998 5.52357 4.39115 5.52176Z" fill="#5A5A5A"/>
</svg>
