<svg width="16" height="16" viewBox="0 0 16 16" fill="none" xmlns="http://www.w3.org/2000/svg">
<path d="M3.51449 10.8573C3.18516 11.1866 3.0001 11.6331 3 12.0988V13H3.90123C4.36689 12.9999 4.81345 12.8148 5.14267 12.4855L11 6.62818L9.37182 5L3.51449 10.8573Z" fill="#1972DB"/>
<path d="M12.7111 3.28889C12.6196 3.19731 12.511 3.12466 12.3914 3.07508C12.2718 3.02551 12.1436 3 12.0142 3C11.8847 3 11.7565 3.02551 11.6369 3.07508C11.5174 3.12466 11.4087 3.19731 11.3172 3.28889L10 4.6065L11.3935 6L12.7111 4.68277C12.8027 4.59128 12.8753 4.48264 12.9249 4.36305C12.9745 4.24347 13 4.11528 13 3.98583C13 3.85638 12.9745 3.7282 12.9249 3.60861C12.8753 3.48903 12.8027 3.38038 12.7111 3.28889Z" fill="#1972DB"/>
</svg>
