<svg width="16" height="17" viewBox="0 0 16 17" fill="none" xmlns="http://www.w3.org/2000/svg">
<g clip-path="url(#clip0_2891_12750)">
<path d="M8 0.5C4.692 0.5 2 3.21067 2 6.54333C2 11.2787 7.436 16.168 7.66733 16.3733C7.76267 16.458 7.88133 16.5 8 16.5C8.11867 16.5 8.23733 16.458 8.33267 16.374C8.564 16.168 14 11.2787 14 6.54333C14 3.21067 11.308 0.5 8 0.5ZM8 9.83333C6.162 9.83333 4.66667 8.338 4.66667 6.5C4.66667 4.662 6.162 3.16667 8 3.16667C9.838 3.16667 11.3333 4.662 11.3333 6.5C11.3333 8.338 9.838 9.83333 8 9.83333Z" fill="white"/>
</g>
<defs>
<clipPath id="clip0_2891_12750">
<rect width="16" height="16" fill="white" transform="translate(0 0.5)"/>
</clipPath>
</defs>
</svg>
