<svg width="16" height="17" viewBox="0 0 16 17" fill="none" xmlns="http://www.w3.org/2000/svg">
<g clip-path="url(#clip0_3101_13073)">
<path d="M1.07121 12.5C1.62265 13.4571 2.84556 13.7859 3.80262 13.2344C3.80328 13.2341 3.8039 13.2337 3.80456 13.2333L4.10121 13.062C4.66121 13.5411 5.3049 13.9127 5.99987 14.158V14.5C5.99987 15.6046 6.89531 16.5 7.99987 16.5C9.10443 16.5 9.99987 15.6046 9.99987 14.5V14.158C10.6949 13.9123 11.3387 13.5403 11.8985 13.0607L12.1965 13.2327C13.1538 13.7849 14.3776 13.4566 14.9299 12.4993C15.4822 11.542 15.1538 10.3182 14.1965 9.76597L13.9005 9.59531C14.0338 8.87028 14.0338 8.12703 13.9005 7.40197L14.1965 7.23131C15.1538 6.67903 15.4822 5.45528 14.9299 4.49797C14.3776 3.54069 13.1538 3.21234 12.1965 3.76463L11.8999 3.93597C11.3393 3.45744 10.6952 3.08656 9.99987 2.842V2.5C9.99987 1.39544 9.10443 0.5 7.99987 0.5C6.89531 0.5 5.99987 1.39544 5.99987 2.5V2.842C5.30481 3.08772 4.66109 3.45972 4.10121 3.93934L3.80321 3.76669C2.8459 3.21438 1.62215 3.54272 1.06987 4.5C0.517589 5.45728 0.845901 6.68106 1.80321 7.23334L2.09921 7.404C1.96596 8.12903 1.96596 8.87228 2.09921 9.59734L1.80321 9.768C0.848557 10.3217 0.521307 11.5431 1.07121 12.5ZM7.99987 5.83334C9.47262 5.83334 10.6665 7.02725 10.6665 8.5C10.6665 9.97275 9.47262 11.1667 7.99987 11.1667C6.52712 11.1667 5.33321 9.97275 5.33321 8.5C5.33321 7.02725 6.52712 5.83334 7.99987 5.83334Z" fill="#1972DB"/>
</g>
<defs>
<clipPath id="clip0_3101_13073">
<rect width="16" height="16" fill="white" transform="translate(0 0.5)"/>
</clipPath>
</defs>
</svg>
