<svg width="24" height="24" viewBox="0 0 24 24" fill="none" xmlns="http://www.w3.org/2000/svg">
<path d="M11.0489 2.92705C11.3483 2.00574 12.6517 2.00574 12.9511 2.92705L14.4697 7.60081C14.6035 8.01284 14.9875 8.2918 15.4207 8.2918H20.335C21.3037 8.2918 21.7065 9.53141 20.9228 10.1008L16.947 12.9894C16.5966 13.244 16.4499 13.6954 16.5838 14.1074L18.1024 18.7812C18.4017 19.7025 17.3472 20.4686 16.5635 19.8992L12.5878 17.0106C12.2373 16.756 11.7627 16.756 11.4122 17.0106L7.43648 19.8992C6.65276 20.4686 5.59828 19.7025 5.89763 18.7812L7.41623 14.1074C7.55011 13.6954 7.40345 13.244 7.05296 12.9894L3.07722 10.1008C2.29351 9.53141 2.69628 8.2918 3.66501 8.2918H8.57929C9.01252 8.2918 9.39647 8.01284 9.53035 7.60081L11.0489 2.92705Z" fill="#EEF3F7"/>
<path fill-rule="evenodd" clip-rule="evenodd" d="M14.6938 8.2918L12.9506 2.92705C12.6513 2.00574 11.3479 2.00574 11.0485 2.92705L9.52994 7.60081C9.39606 8.01284 9.01211 8.2918 8.57888 8.2918H3.6646C2.69587 8.2918 2.2931 9.53141 3.07681 10.1008L7.05255 12.9894C7.40304 13.244 7.5497 13.6954 7.41582 14.1074L5.89723 18.7812C5.59787 19.7025 6.65236 20.4686 7.43607 19.8992L11.4118 17.0106C11.7623 16.756 12.2369 16.756 12.5874 17.0106L14.6938 18.541V8.2918Z" fill="#FFA800"/>
</svg>
