<svg width="40" height="40" viewBox="0 0 40 40" fill="none" xmlns="http://www.w3.org/2000/svg">
<path fill-rule="evenodd" clip-rule="evenodd" d="M2.5 38.125H37.4912C37.8369 38.125 38.1162 37.845 38.1162 37.5V26.2344C38.1162 26.055 38.0394 25.8844 37.905 25.7656L33.125 21.5519V15.8838C33.125 15.1094 33.0431 14.3519 32.8875 13.62C32.7712 13.0763 32.615 12.5463 32.4206 12.0331L33.1794 11.5C33.265 11.6975 33.3375 11.8869 33.395 12.0656C33.4588 12.265 33.6181 12.4194 33.8194 12.4763C34.0206 12.5331 34.2375 12.4863 34.3962 12.35L37.6856 9.53751C37.8856 9.36688 37.9569 9.08938 37.865 8.84313C36.7412 5.84813 35.0069 3.45501 32.3 1.95313C32.0706 1.82626 31.7869 1.85563 31.5888 2.02688L28.3419 4.83001C28.1856 4.96501 28.1062 5.16751 28.1287 5.37189C28.1512 5.57689 28.2738 5.75688 28.455 5.85438C28.5925 5.92813 28.7331 6.01376 28.8756 6.11001L28.2681 6.71563C26.2075 5.24813 23.6338 4.37501 20.8413 4.37501H19.1587C12.3631 4.37501 6.875 9.54001 6.875 15.8838V21.5681L2.08687 25.7656C1.9525 25.8844 1.875 26.055 1.875 26.2344V37.5C1.875 37.845 2.155 38.125 2.5 38.125ZM36.8662 26.5169V36.875H33.125V23.2188L36.8662 26.5169ZM25 36.875H31.875V25.3581H8.125V36.875H15V27.5C15 27.155 15.28 26.875 15.625 26.875H24.375C24.72 26.875 25 27.155 25 27.5V36.875ZM6.875 36.875V23.2169L3.125 26.5169V36.875H6.875ZM23.75 36.875H16.25V28.125H23.75V36.875ZM18.125 31.25V34.0625C18.125 34.4075 18.405 34.6875 18.75 34.6875C19.095 34.6875 19.375 34.4075 19.375 34.0625V31.25C19.375 30.905 19.095 30.625 18.75 30.625C18.405 30.625 18.125 30.905 18.125 31.25ZM20.625 31.25V34.0625C20.625 34.4075 20.905 34.6875 21.25 34.6875C21.595 34.6875 21.875 34.4075 21.875 34.0625V31.25C21.875 30.905 21.595 30.625 21.25 30.625C20.905 30.625 20.625 30.905 20.625 31.25ZM8.125 22.4594V24.1081H31.875V22.4594H8.125ZM31.875 21.2094V15.8838C31.875 15.1981 31.8025 14.5281 31.665 13.88C31.585 13.505 31.4831 13.1375 31.3606 12.7781L28.7756 14.5944C29.3225 16.06 29.5363 17.7919 29.3731 19.7594C29.3444 20.1031 29.0419 20.3594 28.6981 20.3306C28.3544 20.3019 28.0987 20 28.1269 19.6563C28.525 14.8706 26.4244 11.6438 22.5331 10.65L22.5175 10.6463C21.8369 10.4725 21.1544 10.4019 20.4856 10.425C20.1413 10.4369 19.8519 10.1663 19.84 9.82188C19.8281 9.47688 20.0981 9.18751 20.4431 9.17563C21.2269 9.14876 22.0281 9.23126 22.8269 9.43501L22.8419 9.43876C23.5475 9.61938 24.2044 9.86189 24.8088 10.1644L27.3688 7.61251C25.5394 6.36189 23.2825 5.62501 20.8413 5.62501H19.1587C13.0762 5.62501 8.125 10.2056 8.125 15.8838V21.2094H31.875ZM29.8531 6.90126L25.915 10.8269C26.8806 11.5119 27.6656 12.3881 28.2463 13.4388L32.6025 10.3775C31.8938 9.16501 30.8731 7.85188 29.8531 6.90126ZM32.0675 3.26438C34.1769 4.55688 35.5775 6.49813 36.5362 8.87563L34.2456 10.8338C33.3625 8.94126 31.4769 6.48876 29.7888 5.23189L32.0675 3.26438Z" fill="#1972DB"/>
</svg>
