<svg width="32" height="32" viewBox="0 0 32 32" fill="none" xmlns="http://www.w3.org/2000/svg">
<path d="M30.6137 1.38616C30.2612 1.03372 29.7471 0.910963 29.2722 1.06595C29.2438 1.07514 29.2177 1.08364 29.1953 1.09096L2.51162 9.80933C2.18109 9.91796 1.8887 10.0978 1.64249 10.3439C0.785838 11.2006 0.785838 12.5946 1.64249 13.4514L5.72528 17.5342C6.3138 18.1238 6.51935 18.9812 6.26059 19.7731L4.17183 26.1656C4.01807 26.6409 4.14124 27.1549 4.49304 27.5068C4.74464 27.7583 5.07898 27.893 5.4234 27.893C5.56069 27.893 5.69961 27.8716 5.83543 27.8277L12.2267 25.7392C13.0186 25.4805 13.8761 25.686 14.4645 26.2757C14.4656 26.2746 18.5484 30.3573 18.5484 30.3573C18.9768 30.7857 19.5395 30.9998 20.1022 30.9998C20.6649 30.9998 21.2275 30.7857 21.656 30.3573C21.9025 30.1107 22.0823 29.8179 22.1904 29.487C22.1993 29.4597 22.2078 29.434 22.2155 29.4105L30.935 2.72721C31.0886 2.25189 30.9655 1.73802 30.6137 1.38616ZM7.09603 20.046C7.20232 19.7207 7.25224 19.3876 7.24943 19.0583L7.60955 19.4184C8.26446 20.0734 9.23361 20.2311 10.0398 19.88L10.6502 19.6271C11.0548 19.4595 11.4297 19.5114 11.7235 19.6549L5.03996 26.3384L7.09603 20.046ZM11.9539 24.9037L5.66153 26.9599L12.345 20.2764C12.4885 20.5702 12.5404 20.9451 12.3728 21.3496L12.1196 21.961C11.769 22.767 11.9268 23.7356 12.5815 24.3903L12.9416 24.7503C12.6122 24.7476 12.2791 24.7975 11.9539 24.9037ZM30.0991 2.45568C30.0123 2.72129 21.4307 28.984 21.3558 29.2114C21.3555 29.2124 21.3552 29.2133 21.3548 29.2143C21.2901 29.4125 21.1823 29.5879 21.0344 29.7358C20.5205 30.2498 19.684 30.2499 19.17 29.7358L13.203 23.7688C12.7069 23.2727 12.6856 22.4762 13.1546 21.9555L24.4461 9.41405C24.915 8.89291 24.8942 8.09662 24.3988 7.60108C23.9032 7.10561 23.1069 7.08487 22.5857 7.55386L16.9515 12.6266C16.7711 12.789 16.7565 13.0669 16.9189 13.2473C17.0813 13.4276 17.3592 13.4422 17.5396 13.2799L23.1737 8.20718C23.3474 8.05097 23.6125 8.05777 23.7773 8.22259C23.9421 8.38748 23.949 8.65262 23.7929 8.82611L13.3231 20.4547C13.2463 20.0261 13.0389 19.6218 12.7085 19.2914C12.3782 18.9611 11.9739 18.7537 11.5452 18.6768L16.25 14.441C16.4303 14.2785 16.4449 14.0007 16.2826 13.8203C16.1201 13.6399 15.8422 13.6253 15.6619 13.7877L10.0444 18.8454C9.52371 19.3143 8.72724 19.2931 8.23112 18.7969L2.26405 12.8299C1.75007 12.3159 1.75007 11.4794 2.264 10.9655C2.41183 10.8176 2.58749 10.7096 2.78531 10.6445C3.05057 10.5579 29.2665 1.9915 29.5408 1.90279C29.5421 1.90238 29.5434 1.90197 29.5446 1.90156C29.7035 1.84976 29.8749 1.89054 29.9921 2.00773C30.1095 2.12498 30.1503 2.29725 30.0991 2.45568Z" fill="#5A5A5A"/>
</svg>
