<svg width="24" height="24" viewBox="0 0 24 24" fill="none" xmlns="http://www.w3.org/2000/svg">
<path fill-rule="evenodd" clip-rule="evenodd" d="M12 24C18.6274 24 24 18.6274 24 12C24 5.37258 18.6274 0 12 0C5.37258 0 0 5.37258 0 12C0 18.6274 5.37258 24 12 24ZM7.47218 13.0487L4.2463 11.8447C3.91866 11.722 3.91581 11.2594 4.24252 11.1334L17.4816 6.02615C17.7623 5.91761 18.0519 6.1635 17.9908 6.45824L15.6149 17.8865C15.5589 18.1563 15.2426 18.2787 15.0193 18.1164L11.776 15.7617C11.579 15.6187 11.3106 15.6264 11.1221 15.78L9.32392 17.2458C9.11518 17.4165 8.80069 17.3214 8.7208 17.0643L7.47218 13.0487ZM14.8241 8.52483L8.51957 12.4078C8.27793 12.557 8.16416 12.8488 8.24223 13.122L8.92389 15.5171C8.97228 15.6869 9.21864 15.6694 9.24211 15.4941L9.41935 14.1806C9.45276 13.9333 9.57074 13.7055 9.75362 13.5352L14.9567 8.69871C15.054 8.60845 14.9374 8.45525 14.8241 8.52483Z" fill="#1972DB"/>
</svg>
