<svg width="40" height="40" viewBox="0 0 40 40" fill="none" xmlns="http://www.w3.org/2000/svg">
<g clip-path="url(#clip0_2757_12367)">
<path d="M39.3098 38.4706L29.9348 19.7206C29.8286 19.5087 29.6123 19.375 29.3755 19.375H23.1923L23.2711 19.0344C25.7798 18.1775 27.5005 15.7994 27.5005 13.125C27.5005 9.67875 24.6967 6.875 21.2505 6.875C17.8042 6.875 15.0005 9.67875 15.0005 13.125C15.0005 15.7994 16.7211 18.1775 19.2298 19.0344L19.3086 19.375H10.6255C10.3886 19.375 10.1723 19.5087 10.0661 19.7206L0.691093 38.4706C0.594218 38.6644 0.604218 38.8944 0.718593 39.0788C0.832968 39.2625 1.03359 39.375 1.25047 39.375H38.7505C38.9673 39.375 39.168 39.2625 39.2823 39.0788C39.3961 38.8944 39.4067 38.6644 39.3098 38.4706ZM18.9336 35.4419L21.6167 38.125H19.6342L14.8173 33.3081C14.573 33.0637 14.178 33.0637 13.9336 33.3081L9.11672 38.125H7.13422L12.9423 32.3169C13.1867 32.0725 13.1867 31.6775 12.9423 31.4331L8.05234 26.5431L8.71297 25.2213L11.433 27.9412C11.5555 28.0638 11.7155 28.125 11.8755 28.125C12.0355 28.125 12.1955 28.0638 12.3173 27.9419L15.4423 24.8169C15.5598 24.7 15.6255 24.5406 15.6255 24.375V20.625H16.8755V25.3662L13.3086 28.9331C13.0642 29.1775 13.0642 29.5725 13.3086 29.8169L17.0586 33.5669C17.1805 33.6888 17.3405 33.75 17.5005 33.75C17.6605 33.75 17.8205 33.6888 17.9423 33.5669L23.3842 28.125H32.7392L33.3642 29.375H24.3755C24.2092 29.375 24.0505 29.4406 23.9336 29.5581L18.9336 34.5581C18.6892 34.8025 18.6892 35.1975 18.9336 35.4419ZM17.8667 38.125H10.8842L14.3755 34.6338L17.8667 38.125ZM16.2505 13.125C16.2505 10.3681 18.4936 8.125 21.2505 8.125C24.0073 8.125 26.2505 10.3681 26.2505 13.125C26.2505 15.3656 24.7398 17.3456 22.5773 17.9406C22.3561 18.0019 22.1861 18.1788 22.1342 18.4025L21.2505 22.2256L20.3667 18.4025C20.3148 18.1788 20.1448 18.0013 19.9236 17.9406C17.7611 17.3456 16.2505 15.3656 16.2505 13.125ZM20.6411 25.1406C20.7073 25.4244 20.9592 25.625 21.2505 25.625C21.5417 25.625 21.7936 25.4244 21.8598 25.1406L22.9036 20.625H28.9892L32.1142 26.875H23.1255C22.9592 26.875 22.8005 26.9406 22.6836 27.0581L17.5005 32.2412L14.6342 29.375L17.9423 26.0669C18.0598 25.95 18.1255 25.7906 18.1255 25.625V20.625H19.5973L20.6411 25.1406ZM11.0117 20.625H14.3755V24.1162L11.8755 26.6162L9.30234 24.0431L11.0117 20.625ZM7.46359 27.7219L11.6167 31.875L5.36672 38.125H2.26172L7.46359 27.7219ZM23.3842 38.125L20.2592 35L24.6342 30.625H33.9892L36.4892 35.625H33.4598L31.1455 32.1531C31.0417 31.9969 30.873 31.8962 30.6873 31.8781C30.4986 31.8588 30.3161 31.9263 30.1836 32.0581L29.0005 33.2406L28.043 31.5644C27.8211 31.175 27.1798 31.175 26.958 31.5644L24.638 35.625H23.1255V36.875H37.1142L37.7392 38.125H23.3842ZM28.9236 35.625H26.0773L27.5005 33.135L28.9236 35.625ZM30.363 35.625L29.6436 34.3656L30.5286 33.4813L31.958 35.625H30.363Z" fill="#1972DB"/>
<path d="M23.75 13.125H25C25 11.0569 23.3181 9.375 21.25 9.375V10.625C22.6288 10.625 23.75 11.7462 23.75 13.125Z" fill="#1972DB"/>
<path d="M22.75 15.125L23.5006 16.125C24.0194 15.735 24.4294 15.2169 24.6875 14.625L23.5425 14.125C23.3713 14.5194 23.0969 14.865 22.75 15.125Z" fill="#1972DB"/>
<path d="M2.5 9.375C2.29125 9.375 2.09625 9.47937 1.98 9.65312L0.73 11.5281C0.59 11.7381 0.59 12.0113 0.73 12.2213L1.98 14.0963C2.09625 14.2706 2.29125 14.375 2.5 14.375H5.625V20C5.625 20.345 5.90438 20.625 6.25 20.625H8.75C9.09562 20.625 9.375 20.345 9.375 20V14.375H13.75C13.9806 14.375 14.1925 14.2481 14.3013 14.045C14.41 13.8419 14.3975 13.595 14.27 13.4037L13.2512 11.875L14.27 10.3469C14.3975 10.155 14.41 9.90875 14.3013 9.70563C14.1925 9.5025 13.9806 9.375 13.75 9.375H9.375V8.125H12.5C12.7087 8.125 12.9038 8.02063 13.02 7.84688L14.27 5.97188C14.41 5.76188 14.41 5.48875 14.27 5.27875L13.02 3.40375C12.9038 3.22938 12.7087 3.125 12.5 3.125H9.375V1.25C9.375 0.905 9.09562 0.625 8.75 0.625H6.25C5.90438 0.625 5.625 0.905 5.625 1.25V3.125H1.25C1.01937 3.125 0.8075 3.25187 0.69875 3.455C0.59 3.65812 0.6025 3.905 0.73 4.09625L1.74875 5.625L0.73 7.15312C0.6025 7.345 0.59 7.59125 0.69875 7.79437C0.8075 7.9975 1.01937 8.125 1.25 8.125H5.625V9.375H2.5ZM8.125 19.375H6.875V14.375H8.125V19.375ZM11.98 12.2219L12.5825 13.125H2.83437L2.00125 11.875L2.83437 10.625H12.5825L11.98 11.5281C11.84 11.7381 11.84 12.0119 11.98 12.2219ZM6.875 1.875H8.125V3.125H6.875V1.875ZM3.02 5.27812L2.4175 4.375H12.1656L12.9988 5.625L12.1656 6.875H2.4175L3.02 5.97188C3.16 5.76188 3.16 5.48812 3.02 5.27812ZM6.875 8.125H8.125V9.375H6.875V8.125Z" fill="#1972DB"/>
<path d="M3.125 11.25H4.375V12.5H3.125V11.25Z" fill="#1972DB"/>
<path d="M5.625 11.25H6.875V12.5H5.625V11.25Z" fill="#1972DB"/>
<path d="M10.625 5H11.875V6.25H10.625V5Z" fill="#1972DB"/>
<path d="M8.125 5H9.375V6.25H8.125V5Z" fill="#1972DB"/>
</g>
<defs>
<clipPath id="clip0_2757_12367">
<rect width="40" height="40" fill="white"/>
</clipPath>
</defs>
</svg>
