<svg width="16" height="17" viewBox="0 0 16 17" fill="none" xmlns="http://www.w3.org/2000/svg">
<g clip-path="url(#clip0_3101_13067)">
<path d="M10.6953 9.83301H5.30467C4.42854 9.83407 3.5886 10.1826 2.96908 10.8021C2.34957 11.4216 2.00106 12.2615 2 13.1377V16.4997H14V13.1377C13.9989 12.2615 13.6504 11.4216 13.0309 10.8021C12.4114 10.1826 11.5715 9.83407 10.6953 9.83301Z" fill="#1972DB"/>
<path d="M8 8.5C10.2091 8.5 12 6.70914 12 4.5C12 2.29086 10.2091 0.5 8 0.5C5.79086 0.5 4 2.29086 4 4.5C4 6.70914 5.79086 8.5 8 8.5Z" fill="#1972DB"/>
</g>
<defs>
<clipPath id="clip0_3101_13067">
<rect width="16" height="16" fill="white" transform="translate(0 0.5)"/>
</clipPath>
</defs>
</svg>
