<svg width="16" height="17" viewBox="0 0 16 17" fill="none" xmlns="http://www.w3.org/2000/svg">
<g clip-path="url(#clip0_3101_13088)">
<path d="M5 9.16667C4.40666 9.16667 3.82664 8.99072 3.33329 8.66108C2.83994 8.33143 2.45542 7.8629 2.22836 7.31472C2.0013 6.76654 1.94189 6.16334 2.05764 5.5814C2.1734 4.99945 2.45912 4.46491 2.87868 4.04535C3.29824 3.62579 3.83279 3.34007 4.41473 3.22431C4.99667 3.10856 5.59987 3.16797 6.14805 3.39503C6.69623 3.62209 7.16476 4.00661 7.49441 4.49996C7.82405 4.9933 8 5.57332 8 6.16667C7.99912 6.96205 7.68276 7.7246 7.12035 8.28701C6.55793 8.84943 5.79538 9.16579 5 9.16667ZM10 13.8333C9.99894 12.9496 9.64741 12.1024 9.02252 11.4775C8.39763 10.8526 7.5504 10.5011 6.66667 10.5H3.33333C2.4496 10.5011 1.60237 10.8526 0.97748 11.4775C0.352588 12.1024 0.00105857 12.9496 0 13.8333L0 16.5H10V13.8333ZM11.6667 6.5C11.0733 6.5 10.4933 6.32405 9.99996 5.99441C9.50661 5.66477 9.12209 5.19623 8.89503 4.64805C8.66796 4.09987 8.60855 3.49667 8.72431 2.91473C8.84007 2.33279 9.12579 1.79824 9.54535 1.37868C9.9649 0.959123 10.4995 0.673401 11.0814 0.557646C11.6633 0.44189 12.2665 0.5013 12.8147 0.728363C13.3629 0.955426 13.8314 1.33994 14.1611 1.83329C14.4907 2.32664 14.6667 2.90666 14.6667 3.5C14.6658 4.29538 14.3494 5.05793 13.787 5.62035C13.2246 6.18277 12.462 6.49912 11.6667 6.5ZM12.6667 7.83333H9.33333C9.21633 7.8387 9.09971 7.8505 8.984 7.86867C8.74161 8.42954 8.38359 8.93295 7.93333 9.346C8.91088 9.62259 9.77162 10.2103 10.3852 11.02C10.9987 11.8298 11.3316 12.8174 11.3333 13.8333H16V11.1667C15.9989 10.2829 15.6474 9.43571 15.0225 8.81081C14.3976 8.18592 13.5504 7.83439 12.6667 7.83333Z" fill="#1972DB"/>
</g>
<defs>
<clipPath id="clip0_3101_13088">
<rect width="16" height="16" fill="white" transform="translate(0 0.5)"/>
</clipPath>
</defs>
</svg>
