<svg width="24" height="24" viewBox="0 0 24 24" fill="none" xmlns="http://www.w3.org/2000/svg">
<path d="M11.9996 10.2853C14.3665 10.2853 16.2853 8.36652 16.2853 5.99958C16.2853 3.63265 14.3665 1.71387 11.9996 1.71387C9.63265 1.71387 7.71387 3.63265 7.71387 5.99958C7.71387 8.36652 9.63265 10.2853 11.9996 10.2853Z" fill="#BBBBBB"/>
<path d="M20.5716 19.8655V20.5714C20.5716 21.5182 19.8041 22.2857 18.8573 22.2857H5.14299C4.19622 22.2857 3.42871 21.5182 3.42871 20.5714V19.8655C3.42942 17.7797 4.2682 15.7795 5.76068 14.3045C7.25317 12.8296 9.2772 12.0007 11.3879 12H12.6124C14.7231 12.0007 16.7471 12.8296 18.2396 14.3045C19.7321 15.7795 20.5709 17.7797 20.5716 19.8655Z" fill="#BBBBBB"/>
</svg>
